<?xml version="1.0" encoding="utf-8"?>
<!-- Generator: Adobe Illustrator 28.6.0, SVG Export Plug-In . SVG Version: 9.03 Build 54939)  -->
<svg version="1.0"
	 id="Layer_1" xmlns:sodipodi="http://sodipodi.sourceforge.net/DTD/sodipodi-0.dtd" xmlns:inkscape="http://www.inkscape.org/namespaces/inkscape" xmlns:svg="http://www.w3.org/2000/svg"
	 xmlns="http://www.w3.org/2000/svg" xmlns:xlink="http://www.w3.org/1999/xlink" x="0px" y="0px" viewBox="0 0 724.9 614.3"
	 style="enable-background:new 0 0 724.9 614.3;" xml:space="preserve">
<style type="text/css">
	.st0{fill:none;stroke:#00FF00;stroke-width:2.834646e-02;stroke-miterlimit:10;}
	.st1{fill:none;stroke:#0000FF;stroke-width:2.834646e-02;stroke-miterlimit:10;}
</style>
<sodipodi:namedview  bordercolor="#000000" borderopacity="0.25" id="namedview1" inkscape:current-layer="layer1" inkscape:cx="427" inkscape:cy="357" inkscape:deskcolor="#d1d1d1" inkscape:document-units="mm" inkscape:pagecheckerboard="0" inkscape:pageopacity="0.0" inkscape:showpageshadow="2" inkscape:window-height="1094" inkscape:window-maximized="1" inkscape:window-width="1920" inkscape:window-x="-11" inkscape:window-y="-11" inkscape:zoom="1" pagecolor="#ffffff" showgrid="false">
	</sodipodi:namedview>
<path id="path258" class="st0" d="M468.6,12.6h71.5V4.1h57.3v8.5H669v29.6h8.5v57.3H669v29.6h-71.6v8.5h-57.3v-8.5h-71.5V99.5h-8.5
	V42.2h8.5V12.6z"/>
<path id="path259" sodipodi:nodetypes="cccscscscscscscscscssccccccccccccsscscscscscscscscscccccccccccssccss" class="st0" d="
	M60.6,141.7l35.7,32.4c2.6-1,4.5-3.6,4.5-6.6c0,3.9,3.2,7,7.1,7s7.1-3.2,7.1-7.1c0,3.9,3.2,7.1,7.1,7.1s7.1-3.1,7.1-7
	c0,3.9,3.2,7,7.1,7s7.1-3.2,7.1-7.1c0,3.9,3.2,7.1,7.1,7.1s7.1-3.2,7.1-7.1c0,3.9,3.2,7.1,7.1,7.1s7.1-3.2,7.1-7.1
	c0,3.9,3.2,7.1,7.1,7.1s7.1-3.2,7.1-7.1c0,3.9,3.2,7.1,7.1,7.1s7.1-3.2,7.1-7.1c0,3.9,3.2,7.1,7.1,7.1s7.1-3.1,7.1-7
	c0,3.9,3.2,7,7.1,7s7.1-3.2,7.1-7.2v-13.4h-78v-8.4h78v-29.2h-8.5V59.6h8.5V29.7h-78v-8.4h78V8.6c0-3.9-3.2-7.2-7.1-7.2
	s-7.1,3.1-7.1,7c0-3.9-3.2-7-7.1-7s-7.1,3.2-7.1,7.1c0-3.9-3.2-7.1-7.1-7.1S186,4.6,186,8.5c0-3.9-3.2-7.1-7.1-7.1s-7.1,3.2-7.1,7.1
	c0-3.9-3.2-7.1-7.1-7.1s-7.1,3.2-7.1,7.1c0-3.9-3.2-7.1-7.1-7.1s-7.1,3.2-7.1,7.1c0-3.9-3.2-7.1-7.1-7.1s-7.1,3.1-7.1,7
	c0-3.9-3.2-7-7.1-7S115,4.6,115,8.5c0-3.9-3.2-7.1-7.1-7.1s-7.1,3.1-7.1,7c0-3-1.9-5.5-4.5-6.6L60.6,34.2l-5.7-6.3l-42,38.3l5.7,6.3
	L1.5,88l17.1,15.5l-5.7,6.3l42,38.1l5.7-6.3L60.6,141.7z M122.2,88c0-17.1,9.8-31,21.7-31h59.7v62.1h-59.7
	C132,119.1,122.2,105.1,122.2,88L122.2,88z"/>
<path id="path260" sodipodi:nodetypes="cccscscscscscscscscssccccccccccccsscscscscscscscscsccccccccccccccccccccccccccccccccccccccccccccccc" class="st0" d="
	M397,34.2L361.3,1.8c-2.6,1-4.5,3.6-4.5,6.6c0-3.9-3.2-7-7.1-7s-7.1,3.2-7.1,7.1c0-3.9-3.2-7.1-7.1-7.1s-7.1,3.1-7.1,7
	c0-3.9-3.2-7-7.1-7s-7.1,3.2-7.1,7.1c0-3.9-3.2-7.1-7.1-7.1S300,4.6,300,8.5c0-3.9-3.2-7.1-7.1-7.1s-7.1,3.2-7.1,7.1
	c0-3.9-3.2-7.1-7.1-7.1s-7.1,3.2-7.1,7.1c0-3.9-3.2-7.1-7.1-7.1s-7.1,3.2-7.1,7.1c0-3.9-3.2-7.1-7.1-7.1s-7.1,3.1-7.1,7
	c0-3.9-3.2-7-7.1-7S229,4.6,229,8.6v12.7h78v8.4h-78v29.9h8.5v56.7H229v29.2h78v8.4h-78v13.4c0,3.9,3.2,7.2,7.1,7.2s7.1-3.1,7.1-7
	c0,3.9,3.2,7,7.1,7s7.1-3.2,7.1-7.1c0,3.9,3.2,7.1,7.1,7.1s7.1-3.2,7.1-7.1c0,3.9,3.2,7.1,7.1,7.1s7.1-3.2,7.1-7.1
	c0,3.9,3.2,7.1,7.1,7.1s7.1-3.2,7.1-7.1c0,3.9,3.2,7.1,7.1,7.1s7.1-3.2,7.1-7.1c0,3.9,3.2,7.1,7.1,7.1s7.1-3.1,7.1-7
	c0,3.9,3.2,7,7.1,7s7.1-3.2,7.1-7.1c0,3.9,3.2,7.1,7.1,7.1s7.1-3.1,7.1-7c0,3,1.9,5.5,4.5,6.6l35.7-32.4l5.7,6.3l42-38.1l-5.7-6.3
	l17.1-15.5L439,72.6l5.7-6.3l-42-38.1l-5.7,6.3V34.2z M286,89.4c1.8,0.4,3.2,1.5,4.2,2.9c0.9,1.3,1.3,2.9,1.2,4.6
	c-0.1,1.7-0.8,3.2-1.8,4.4c-1.1,1.3-2.6,2.2-4.3,2.5c-2,0.3-3.9-0.2-5.4-1.4c-1.6-1.3-2.7-3.4-2.6-5.8c0-2.5,1.2-4.6,3-5.9
	C281.9,89.5,284,89,286,89.4L286,89.4L286,89.4z M284.7,70.6c2.2-0.1,4.1,0.7,5.4,2.2s1.8,3.7,1.3,5.9c-0.5,2.2-1.9,3.9-3.7,4.9
	c-1.6,1-3.5,1.3-5.3,1c-1.7-0.3-3-1.3-3.9-2.5s-1.3-2.8-1.1-4.4c0.2-1.7,1-3.4,2.2-4.6C280.9,71.8,282.7,70.8,284.7,70.6L284.7,70.6
	z M307.7,89.8c2.6,0.6,4.6,2.1,5.8,4c1.1,1.7,1.6,3.8,1.2,5.7c-0.4,1.9-1.4,3.4-2.9,4.4c-1.4,1-3.3,1.6-5.4,1.5
	c-2.2-0.1-4.2-1-5.8-2.3c-1.7-1.4-2.9-3.5-3.1-5.8c-0.2-2.5,0.9-4.6,2.8-6.1c1.9-1.4,4.5-2,7.2-1.4l0,0L307.7,89.8z M307.9,69
	c2.2,0.4,4,1.5,5.3,3c1.2,1.5,1.9,3.4,1.9,5.4c0,2.1-0.9,4-2.2,5.4c-1.4,1.5-3.5,2.6-5.8,2.8c-2.5,0.2-4.9-0.7-6.6-2.3
	c-1.8-1.7-2.8-4.1-2.6-6.7c0.2-2.6,1.6-4.8,3.6-6.1C303.3,69.2,305.7,68.6,307.9,69L307.9,69L307.9,69z"/>
<path id="path261" class="st1" d="M310.8,66.4h-27.7c-5.9,0-8.9,3-8.9,8.9v25.9c0,5.9,3,8.9,8.9,8.9h27.7c5.9,0,8.9-3,8.9-8.9V75.3
	C319.7,69.4,316.7,66.4,310.8,66.4z"/>
<path id="path262" class="st1" d="M318.3,58h-42.7c-6.8,0-10.2,3.4-10.2,10.2v40.1c0,6.8,3.4,10.2,10.2,10.2h42.7
	c6.8,0,10.2-3.4,10.2-10.2V68.2C328.5,61.4,325.1,58,318.3,58z"/>
<path id="path268" sodipodi:nodetypes="cccccscscscscscscscscscsccccccscscscscscscscscscscsscccccccscccccccccccccccccccccccccccccccccccccccccccscccccccsscccccccccscccccccss" class="st0" d="
	M32.8,176v78h-8.4v-63.8H11.2c-3.9,0-7,3.2-7,7.1s3.2,7.1,7.1,7.1c-3.9,0-7.1,3.2-7.1,7.1s3.2,7.1,7.1,7.1c-3.9,0-7.1,3.2-7.1,7.1
	s3.2,7.1,7.1,7.1c-3.9,0-7.1,3.2-7.1,7.1s3.2,7.1,7.1,7.1c-3.9,0-7.1,3.2-7.1,7.1s3.2,7.1,7.1,7.1c-3.9,0-7.1,3.2-7.1,7.1
	s3.2,7.1,7,7.1c-3.9,0-7,3.2-7,7.1s3.2,7.1,7.1,7.1c-3.9,0-7.1,3.2-7.1,7.1s3.2,7.1,7,7.1c-3.9,0-7,3.2-7,7.1s3.2,7.1,7.1,7.1
	c-3.9,0-7.1,3.2-7.1,7.1s3.2,7.1,7.1,7.1h93.6v-8.5h56.7v8.5h93.6c3.9,0,7.1-3.2,7.1-7.1s-3.2-7.1-7.1-7.1c3.9,0,7.1-3.2,7.1-7.1
	s-3.1-7.1-7-7.1c3.9,0,7-3.2,7-7.1s-3.2-7.1-7.1-7.1c3.9,0,7.1-3.2,7.1-7.1s-3.1-7.1-7-7.1c3.9,0,7-3.2,7-7.1s-3.2-7.1-7.1-7.1
	c3.9,0,7.1-3.2,7.1-7.1s-3.2-7.1-7.1-7.1c3.9,0,7.1-3.2,7.1-7.1s-3.2-7.1-7.1-7.1c3.9,0,7.1-3.2,7.1-7.1s-3.2-7.1-7.1-7.1
	c3.9,0,7.1-3.2,7.1-7.1s-3.2-7.1-7.1-7.1c3.9,0,7.1-3.2,7.1-7.1s-3.1-7.1-7-7.1c3.9,0,7-3.2,7-7.1s-3.2-7.1-7.2-7.1h-13.4v78h-8.4
	v-78H133.2L32.8,176L32.8,176z M194.8,267.3c0.4-1.8,1.5-3.2,2.9-4.2c1.3-0.9,2.9-1.3,4.6-1.2c1.7,0.1,3.2,0.8,4.4,1.8
	c1.3,1.1,2.2,2.6,2.5,4.3c0.3,2-0.2,3.9-1.4,5.4c-1.3,1.6-3.4,2.7-5.8,2.6c-2.5,0-4.6-1.2-5.9-3
	C194.9,271.4,194.4,269.3,194.8,267.3L194.8,267.3L194.8,267.3z M176,268.7c-0.1-2.2,0.7-4.1,2.2-5.4s3.7-1.8,5.9-1.3
	s3.9,1.9,4.9,3.7c1,1.6,1.3,3.5,1,5.3c-0.3,1.7-1.3,3-2.5,3.9s-2.8,1.3-4.4,1.1c-1.7-0.2-3.4-1-4.6-2.2
	C177.2,272.5,176.2,270.7,176,268.7L176,268.7z M195.2,245.7c0.6-2.6,2.1-4.6,4-5.8c1.7-1.1,3.8-1.6,5.7-1.2
	c1.9,0.4,3.4,1.4,4.4,2.9c1,1.4,1.6,3.3,1.5,5.4c-0.1,2.2-1,4.2-2.3,5.8c-1.4,1.7-3.5,2.9-5.8,3.1c-2.5,0.2-4.6-0.9-6.1-2.8
	c-1.4-1.9-2-4.5-1.4-7.2l0,0L195.2,245.7z M174.4,245.5c0.4-2.2,1.5-4,3-5.3c1.5-1.2,3.4-1.9,5.4-1.9c2.1,0,4,0.9,5.4,2.2
	c1.5,1.4,2.6,3.5,2.8,5.8c0.2,2.5-0.7,4.9-2.3,6.6c-1.7,1.8-4.1,2.8-6.7,2.6c-2.6-0.2-4.8-1.6-6.1-3.6
	C174.6,250.1,174,247.7,174.4,245.5L174.4,245.5z M75.1,267.3c0.4-1.8,1.5-3.2,2.9-4.2c1.3-0.9,2.9-1.3,4.6-1.2
	c1.7,0.1,3.2,0.8,4.4,1.8c1.3,1.1,2.2,2.6,2.5,4.3c0.3,2-0.2,3.9-1.4,5.4c-1.3,1.6-3.4,2.7-5.8,2.6c-2.5,0-4.6-1.2-5.9-3
	C75.2,271.4,74.7,269.3,75.1,267.3L75.1,267.3L75.1,267.3z M56.3,268.7c-0.1-2.2,0.7-4.1,2.2-5.4s3.7-1.8,5.9-1.3
	c2.2,0.5,3.9,1.9,4.9,3.7c1,1.6,1.3,3.5,1,5.3c-0.3,1.7-1.3,3-2.5,3.9s-2.8,1.3-4.4,1.1c-1.7-0.2-3.4-1-4.6-2.2
	c-1.3-1.3-2.3-3.1-2.4-5.1H56.3z M75.5,245.7c0.6-2.6,2.1-4.6,4-5.8c1.7-1.1,3.8-1.6,5.7-1.2c1.9,0.4,3.4,1.4,4.4,2.9
	c1,1.4,1.6,3.3,1.5,5.4c-0.1,2.2-1,4.2-2.3,5.8c-1.4,1.7-3.5,2.9-5.8,3.1c-2.5,0.2-4.6-0.9-6.1-2.8c-1.4-1.9-2-4.5-1.4-7.2l0,0
	L75.5,245.7z M54.7,245.5c0.4-2.2,1.5-4,3-5.3c1.5-1.2,3.4-1.9,5.4-1.9c2.1,0,4,0.9,5.4,2.2c1.5,1.4,2.6,3.5,2.8,5.8
	c0.2,2.5-0.7,4.9-2.3,6.6c-1.7,1.8-4.1,2.8-6.7,2.6c-2.6-0.2-4.8-1.6-6.1-3.6C54.9,250.1,54.3,247.7,54.7,245.5L54.7,245.5z"/>
<path id="path269" class="st1" d="M52.1,242.5v27.7c0,5.9,3,8.9,8.9,8.9h25.9c5.9,0,8.9-3,8.9-8.9v-27.7c0-5.9-3-8.9-8.9-8.9H61
	C55.1,233.6,52.1,236.6,52.1,242.5L52.1,242.5z"/>
<path id="path270" class="st1" d="M43.6,235v42.7c0,6.8,3.4,10.2,10.2,10.2h40.1c6.8,0,10.2-3.4,10.2-10.2V235
	c0-6.8-3.4-10.2-10.2-10.2H53.8C47,224.8,43.6,228.2,43.6,235L43.6,235z"/>
<path id="path271" class="st1" d="M171.8,242.5v27.7c0,5.9,3,8.9,8.9,8.9h25.9c5.9,0,8.9-3,8.9-8.9v-27.7c0-5.9-3-8.9-8.9-8.9h-25.9
	C174.8,233.6,171.8,236.6,171.8,242.5L171.8,242.5z"/>
<path id="path272" class="st1" d="M163.3,235v42.7c0,6.8,3.4,10.2,10.2,10.2h40.1c6.8,0,10.2-3.4,10.2-10.2V235
	c0-6.8-3.4-10.2-10.2-10.2h-40.1C166.7,224.8,163.3,228.2,163.3,235L163.3,235z"/>
<path id="path273" class="st1" d="M31.3,353.6c-1.4-1-1.7-2.9-0.7-4.3s2.9-1.7,4.3-0.7c11.9,8.5,23.8,12.7,35.5,12.6
	c11.8-0.1,23.6-4.5,35.4-13.3l1.9-1.4l1.9,1.5c9.2,7.5,18,11.2,26.5,11s16.8-4.2,25-12c1.2-1.2,3.2-1.1,4.4,0.1s1.1,3.2-0.1,4.4
	c-9.3,8.9-19.1,13.5-29.1,13.7c-9.4,0.2-19-3.5-28.7-10.9c-12.3,8.6-24.7,13-37.1,13.1c-13.1,0.1-26.2-4.4-39.2-13.7l0,0L31.3,353.6
	z"/>
<path id="path274" class="st1" d="M27.5,454.6c-1.1-1-1.3-3-0.4-4.3c0.8-1.4,2.4-1.6,3.5-0.6c15.1,14.6,29.8,14.6,44.3,0l1.6-1.7
	l1.6,1.8c15.5,17.6,30.1,17.2,43.9-0.9c0.9-1.2,2.5-1.3,3.5-0.1c1,1.2,1,3.1,0,4.4c-15.5,20.5-31.9,21.5-49.2,3
	c-15.9,15-32.2,14.5-48.7-1.6l0,0L27.5,454.6z"/>
<path id="path275" class="st1" d="M44.6,406.9c-1.1-1-1.3-2.9-0.6-4.3s2.2-1.7,3.3-0.8c9.6,8.9,19.4,13.3,29.3,13.3
	s20.1-4.5,30.5-13.4c1.1-0.9,2.6-0.5,3.3,0.9c0.7,1.4,0.4,3.4-0.7,4.3c-11.2,9.6-22.2,14.4-33,14.4s-21.6-4.8-32-14.5l0,0
	L44.6,406.9z"/>
<path id="path276" class="st1" d="M116,406.9c-1.1-1-1.4-3-0.5-4.3c0.8-1.4,2.4-1.6,3.6-0.6c16.3,14.9,32.5,14.7,48.5-0.7l1.5-1.5
	l1.6,1.4c9.5,8.4,18.4,12.5,26.9,12.2c8.4-0.2,16.4-4.7,24.1-13.5c1-1.2,2.6-1.1,3.6,0.1s0.9,3.2-0.1,4.4
	c-8.7,9.8-17.8,14.9-27.5,15.1c-9.1,0.2-18.6-3.8-28.5-12.1c-17.5,15.9-35.3,15.7-53.2-0.6l0,0L116,406.9z"/>
<path id="path277" class="st1" d="M173.5,350.6c-1.4-1-1.6-3-0.6-4.3c1-1.4,3-1.6,4.3-0.6c11.2,8.6,21.4,12.7,30.3,12.5
	c8.8-0.2,16.6-4.8,23.7-13.6c1.1-1.3,3-1.6,4.4-0.5c1.3,1.1,1.6,3,0.5,4.4c-8.2,10.3-17.7,15.6-28.3,15.9
	C197.4,364.7,185.9,360.1,173.5,350.6L173.5,350.6z"/>
<path id="path278" class="st1" d="M134.9,453.6c-1.1-1-1.4-3-0.5-4.3c0.8-1.4,2.4-1.6,3.6-0.6c16.3,14.9,32.5,14.7,48.5-0.7l1.5-1.5
	l1.6,1.4c9.5,8.4,18.4,12.5,26.9,12.2c8.4-0.2,16.4-4.7,24.1-13.5c1-1.2,2.6-1.1,3.6,0.1s0.9,3.2-0.1,4.4
	c-8.7,9.8-17.8,14.9-27.5,15.1c-9.1,0.2-18.6-3.8-28.5-12.1c-17.5,15.9-35.3,15.7-53.2-0.6l0,0L134.9,453.6z"/>
<path id="path2" sodipodi:nodetypes="ccccc" class="st0" d="M233.3,413.2v-56.7h8.4v56.7H233.3z"/>
<path id="path1" sodipodi:nodetypes="ccccc" class="st0" d="M32.8,356.5v56.7h-8.4v-56.7H32.8z"/>
<path id="path279" class="st0" d="M263.7,333.5H2.9v158.6h9.9c0,3.9,3.2,7.1,7.1,7.1s7.1-3.1,7.1-7c0,3.9,3.2,7,7.1,7
	s7.1-3.2,7.1-7.1c0,3.9,3.2,7.1,7.1,7.1s7.1-3.2,7.1-7.1c0,3.9,3.2,7.1,7.1,7.1s7.1-3.2,7.1-7.1c0,3.9,3.2,7.1,7.1,7.1
	s7.1-3.2,7.1-7.1c0,3.9,3.2,7.1,7.1,7.1s7.1-3.2,7.1-7.1c0,3.9,3.2,7.1,7.1,7.1s7.1-3.1,7.1-7c0,3.9,3.2,7,7.1,7s7.1-3.2,7.1-7.1
	c0,3.9,3.2,7.1,7.1,7.1s7.1-3.2,7.1-7.1c0,3.9,3.2,7.1,7.1,7.1s7.1-3.1,7.1-7c0,3.9,3.2,7,7.1,7s7.1-3.2,7.1-7.1
	c0,3.9,3.2,7.1,7.1,7.1s7.1-3.2,7.1-7.1c0,3.9,3.2,7.1,7.1,7.1s7.1-3.2,7.1-7.1c0,3.9,3.2,7.1,7.1,7.1s7.1-3.2,7.1-7.1
	c0,3.9,3.2,7.1,7.1,7.1s7.1-3.2,7.1-7.1c0,3.9,3.2,7.1,7.1,7.1s7.1-3.1,7.1-7c0,3.9,3.2,7,7.1,7s7.1-3.2,7.1-7.1h9.9V333.5H263.7z"
	/>
<path id="path280" class="st1" d="M296.4,353.6c-1.4-1-1.7-2.9-0.7-4.3s2.9-1.7,4.3-0.7c11.9,8.5,23.8,12.7,35.5,12.6
	c11.8-0.1,23.6-4.5,35.4-13.3l1.9-1.4l1.9,1.5c9.2,7.5,18,11.2,26.5,11s16.8-4.2,25-12c1.2-1.2,3.2-1.1,4.4,0.1
	c1.2,1.2,1.1,3.2-0.1,4.4c-9.3,8.9-19.1,13.5-29.1,13.7c-9.4,0.2-19-3.5-28.7-10.9c-12.3,8.6-24.7,13-37.1,13.1
	c-13.1,0.1-26.2-4.4-39.2-13.7l0,0L296.4,353.6z"/>
<path id="path281" class="st1" d="M292.6,454.6c-1.1-1-1.3-3-0.4-4.3s2.4-1.6,3.5-0.6c15.1,14.6,29.8,14.6,44.3,0l1.6-1.7l1.6,1.8
	c15.5,17.6,30.1,17.2,43.9-0.9c0.9-1.2,2.5-1.3,3.5-0.1c1,1.2,1,3.1,0,4.4c-15.5,20.5-31.9,21.5-49.2,3
	C325.5,471.2,309.2,470.7,292.6,454.6L292.6,454.6L292.6,454.6z"/>
<path id="path282" class="st1" d="M309.6,406.9c-1.1-1-1.3-2.9-0.6-4.3c0.7-1.4,2.2-1.7,3.3-0.8c9.6,8.9,19.4,13.3,29.3,13.3
	s20.1-4.5,30.5-13.4c1.1-0.9,2.6-0.5,3.3,0.9c0.7,1.4,0.4,3.4-0.7,4.3c-11.2,9.6-22.2,14.4-33,14.4s-21.6-4.8-32-14.5l0,0
	L309.6,406.9z"/>
<path id="path283" class="st1" d="M381,406.9c-1.1-1-1.4-3-0.5-4.3c0.8-1.4,2.4-1.6,3.6-0.6c16.3,14.9,32.5,14.7,48.5-0.7l1.5-1.5
	l1.6,1.4c9.5,8.4,18.4,12.5,26.9,12.2c8.4-0.2,16.4-4.7,24.1-13.5c1-1.2,2.6-1.1,3.6,0.1s0.9,3.2-0.1,4.4
	c-8.7,9.8-17.8,14.9-27.5,15.1c-9.1,0.2-18.6-3.8-28.5-12.1c-17.5,15.9-35.3,15.7-53.2-0.6l0,0V406.9z"/>
<path id="path284" class="st1" d="M438.6,350.6c-1.4-1-1.6-3-0.6-4.3s3-1.6,4.3-0.6c11.2,8.6,21.4,12.7,30.3,12.5
	c8.8-0.2,16.6-4.8,23.7-13.6c1.1-1.3,3-1.6,4.4-0.5c1.3,1.1,1.6,3,0.5,4.4c-8.2,10.3-17.7,15.6-28.3,15.9
	C462.5,364.7,451,360.1,438.6,350.6L438.6,350.6z"/>
<path id="path285" class="st1" d="M399.9,453.6c-1.1-1-1.4-3-0.5-4.3c0.8-1.4,2.4-1.6,3.6-0.6c16.3,14.9,32.5,14.7,48.5-0.7l1.5-1.5
	l1.6,1.4c9.5,8.4,18.4,12.5,26.9,12.2c8.4-0.2,16.4-4.7,24.1-13.5c1-1.2,2.6-1.1,3.6,0.1s0.9,3.2-0.1,4.4
	c-8.7,9.8-17.8,14.9-27.5,15.1c-9.1,0.2-18.6-3.8-28.5-12.1c-17.5,15.9-35.3,15.7-53.2-0.6l0,0V453.6z"/>
<path id="path4" sodipodi:nodetypes="ccccc" class="st0" d="M498.4,413.2v-56.7h8.4v56.7H498.4z"/>
<path id="path3" sodipodi:nodetypes="ccccc" class="st0" d="M297.2,356.5l0.3,56.7h-8.4v-56.7H297.2z"/>
<path id="path286" class="st0" d="M528.7,333.5H267.9v158.6h9.9c0,3.9,3.2,7.1,7.1,7.1s7.1-3.1,7.1-7c0,3.9,3.2,7,7.1,7
	s7.1-3.2,7.1-7.1c0,3.9,3.2,7.1,7.1,7.1s7.1-3.2,7.1-7.1c0,3.9,3.2,7.1,7.1,7.1s7.1-3.2,7.1-7.1c0,3.9,3.2,7.1,7.1,7.1
	s7.1-3.2,7.1-7.1c0,3.9,3.2,7.1,7.1,7.1s7.1-3.2,7.1-7.1c0,3.9,3.2,7.1,7.1,7.1s7.1-3.1,7.1-7c0,3.9,3.2,7,7.1,7s7.1-3.2,7.1-7.1
	c0,3.9,3.2,7.1,7.1,7.1s7.1-3.2,7.1-7.1c0,3.9,3.2,7.1,7.1,7.1s7.1-3.1,7.1-7c0,3.9,3.2,7,7.1,7s7.1-3.2,7.1-7.1
	c0,3.9,3.2,7.1,7.1,7.1s7.1-3.2,7.1-7.1c0,3.9,3.2,7.1,7.1,7.1s7.1-3.2,7.1-7.1c0,3.9,3.2,7.1,7.1,7.1s7.1-3.2,7.1-7.1
	c0,3.9,3.2,7.1,7.1,7.1s7.1-3.2,7.1-7.1c0,3.9,3.2,7.1,7.1,7.1s7.1-3.1,7.1-7c0,3.9,3.2,7,7.1,7c3.9,0,7.1-3.2,7.1-7.1h9.9V333.5
	H528.7z"/>
<path id="path263" sodipodi:nodetypes="ccccsscscscscscscscscscscsccccccscscscscscscscscscsccccccccscscccccccccccccccccccccccccscccccccccccccccccccccccccccccccccccscccccc" class="st0" d="
	M296.2,176v78h-8.4v-78h-12.7c-3.9,0-7.2,3.2-7.2,7.1s3.2,7.1,7,7.1c-3.9,0-7,3.2-7,7.1s3.2,7.1,7.1,7.1c-3.9,0-7.1,3.2-7.1,7.1
	s3.2,7.1,7.1,7.1c-3.9,0-7.1,3.2-7.1,7.1s3.2,7.1,7.1,7.1c-3.9,0-7.1,3.2-7.1,7.1s3.2,7.1,7.1,7.1c-3.9,0-7.1,3.2-7.1,7.1
	c0,3.9,3.2,7.1,7.1,7.1c-3.9,0-7.1,3.2-7.1,7.1s3.2,7.1,7,7.1c-3.9,0-7,3.2-7,7.1s3.2,7.1,7.1,7.1c-3.9,0-7.1,3.2-7.1,7.1
	s3.2,7.1,7,7.1c-3.9,0-7,3.2-7,7.1s3.2,7.1,7.1,7.1c-3.9,0-7.1,3.2-7.1,7.1s3.2,7.1,7.1,7.1h93.6v-8.5h56.7v8.5h93.6
	c3.9,0,7.1-3.2,7.1-7.1s-3.2-7.1-7.1-7.1c3.9,0,7.1-3.2,7.1-7.1s-3.1-7.1-7-7.1c3.9,0,7-3.2,7-7.1s-3.2-7.1-7.1-7.1
	c3.9,0,7.1-3.2,7.1-7.1s-3.1-7.1-7-7.1c3.9,0,7-3.2,7-7.1s-3.2-7.1-7.1-7.1c3.9,0,7.1-3.2,7.1-7.1s-3.2-7.1-7.1-7.1
	c3.9,0,7.1-3.2,7.1-7.1s-3.2-7.1-7.1-7.1c3.9,0,7.1-3.2,7.1-7.1s-3.2-7.1-7.1-7.1c3.9,0,7.1-3.2,7.1-7.1s-3.2-7.1-7.1-7.1
	c3.9,0,7.1-3.2,7.1-7.1s-3.1-7.1-7-7.1h-13.5V254h-8.4v-78L296.2,176L296.2,176z M458.5,267.3c0.4-1.8,1.5-3.2,2.9-4.2
	c1.3-0.9,2.9-1.3,4.6-1.2c1.7,0.1,3.2,0.8,4.4,1.8c1.3,1.1,2.2,2.6,2.5,4.3c0.3,2-0.2,3.9-1.4,5.4c-1.3,1.6-3.4,2.7-5.8,2.6
	c-2.5,0-4.6-1.2-5.9-3C458.6,271.4,458.1,269.3,458.5,267.3L458.5,267.3L458.5,267.3z M439.7,268.7c-0.1-2.2,0.7-4.1,2.2-5.4
	s3.7-1.8,5.9-1.3c2.2,0.5,3.9,1.9,4.9,3.7c1,1.6,1.3,3.5,1,5.3c-0.3,1.7-1.3,3-2.5,3.9s-2.8,1.3-4.4,1.1c-1.7-0.2-3.4-1-4.6-2.2
	c-1.3-1.3-2.3-3.1-2.4-5.1l0,0H439.7z M458.9,245.7c0.6-2.6,2.1-4.6,4-5.8c1.7-1.1,3.8-1.6,5.7-1.2c1.9,0.4,3.4,1.4,4.4,2.9
	c1,1.4,1.6,3.3,1.5,5.4c-0.1,2.2-1,4.2-2.3,5.8c-1.4,1.7-3.5,2.9-5.8,3.1c-2.5,0.2-4.6-0.9-6.1-2.8c-1.4-1.9-2-4.5-1.4-7.2l0,0
	L458.9,245.7z M438.1,245.5c0.4-2.2,1.5-4,3-5.3c1.5-1.2,3.4-1.9,5.4-1.9c2.1,0,4,0.9,5.4,2.2c1.5,1.4,2.6,3.5,2.8,5.8
	c0.2,2.5-0.7,4.9-2.3,6.6c-1.7,1.8-4.1,2.8-6.7,2.6s-4.8-1.6-6.1-3.6C438.3,250.1,437.7,247.7,438.1,245.5L438.1,245.5L438.1,245.5z
	 M338.8,267.3c0.4-1.8,1.5-3.2,2.9-4.2c1.3-0.9,2.9-1.3,4.6-1.2c1.7,0.1,3.2,0.8,4.4,1.8c1.3,1.1,2.2,2.6,2.5,4.3
	c0.3,2-0.2,3.9-1.4,5.4c-1.3,1.6-3.4,2.7-5.8,2.6c-2.5,0-4.6-1.2-5.9-3C338.9,271.4,338.4,269.3,338.8,267.3L338.8,267.3
	L338.8,267.3z M320,268.7c-0.1-2.2,0.7-4.1,2.2-5.4s3.7-1.8,5.9-1.3c2.2,0.5,3.9,1.9,4.9,3.7c1,1.6,1.3,3.5,1,5.3
	c-0.3,1.7-1.3,3-2.5,3.9s-2.8,1.3-4.4,1.1c-1.7-0.2-3.4-1-4.6-2.2c-1.3-1.3-2.3-3.1-2.4-5.1H320z M339.2,245.7
	c0.6-2.6,2.1-4.6,4-5.8c1.7-1.1,3.8-1.6,5.7-1.2c1.9,0.4,3.4,1.4,4.4,2.9c1,1.4,1.6,3.3,1.5,5.4c-0.1,2.2-1,4.2-2.3,5.8
	c-1.4,1.7-3.5,2.9-5.8,3.1c-2.5,0.2-4.6-0.9-6.1-2.8c-1.4-1.9-2-4.5-1.4-7.2l0,0L339.2,245.7z M318.4,245.5c0.4-2.2,1.5-4,3-5.3
	c1.5-1.2,3.4-1.9,5.4-1.9c2.1,0,4,0.9,5.4,2.2c1.5,1.4,2.6,3.5,2.8,5.8c0.2,2.5-0.7,4.9-2.3,6.6c-1.7,1.8-4.1,2.8-6.7,2.6
	s-4.8-1.6-6.1-3.6C318.6,250.1,318,247.7,318.4,245.5L318.4,245.5L318.4,245.5z"/>
<path id="path264" class="st1" d="M315.8,242.5v27.7c0,5.9,3,8.9,8.9,8.9h25.9c5.9,0,8.9-3,8.9-8.9v-27.7c0-5.9-3-8.9-8.9-8.9h-25.9
	C318.8,233.6,315.8,236.6,315.8,242.5L315.8,242.5z"/>
<path id="path265" class="st1" d="M307.3,235v42.7c0,6.8,3.4,10.2,10.2,10.2h40.1c6.8,0,10.2-3.4,10.2-10.2V235
	c0-6.8-3.4-10.2-10.2-10.2h-40.1C310.7,224.8,307.3,228.2,307.3,235L307.3,235L307.3,235z"/>
<path id="path266" class="st1" d="M435.5,242.5v27.7c0,5.9,3,8.9,8.9,8.9h25.9c5.9,0,8.9-3,8.9-8.9v-27.7c0-5.9-3-8.9-8.9-8.9h-25.9
	C438.5,233.6,435.5,236.6,435.5,242.5L435.5,242.5z"/>
<path id="path267" class="st1" d="M427,235v42.7c0,6.8,3.4,10.2,10.2,10.2h40.1c6.8,0,10.2-3.4,10.2-10.2V235
	c0-6.8-3.4-10.2-10.2-10.2h-40.1C430.4,224.8,427,228.2,427,235L427,235z"/>
<path class="st0" d="M291.8,214.4"/>
</svg>
