<?xml version="1.0" encoding="UTF-8"?>
<svg xmlns="http://www.w3.org/2000/svg" version="1.1" xmlns:inkscape="http://www.inkscape.org/namespaces/inkscape" xmlns:sodipodi="http://sodipodi.sourceforge.net/DTD/sodipodi-0.dtd" xmlns:svg="http://www.w3.org/2000/svg" viewBox="0 0 1311.3 263.6">
  <defs>
    <style>
      .cls-1 {
        stroke-linecap: round;
        stroke-linejoin: round;
      }

      .cls-1, .cls-2 {
        fill: none;
        stroke: red;
        stroke-width: 0px;
      }

      .cls-2 {
        stroke-miterlimit: 14;
      }
    </style>
  </defs>
  <!-- Generator: Adobe Illustrator 28.6.0, SVG Export Plug-In . SVG Version: 1.2.0 Build 709)  -->
  <g>
    <g id="Remade_Finals">
      <sodipodi:namedview id="namedview2201" bordercolor="#000000" borderopacity="0.25" inkscape:current-layer="Remade_Finals" inkscape:cx="963.60098" inkscape:cy="54.583062" inkscape:deskcolor="#d1d1d1" inkscape:pagecheckerboard="0" inkscape:pageopacity="0.0" inkscape:showpageshadow="2" inkscape:window-height="1017" inkscape:window-maximized="1" inkscape:window-width="1920" inkscape:window-x="-8" inkscape:window-y="-8" inkscape:zoom="0.47633825" pagecolor="#ffffff" showgrid="false"/>
      <g id="g2772">
        <path id="path2140" class="cls-1" d="M1154.5,194c0,4.8-3.9,8.8-8.8,8.8s-8.8-3.9-8.8-8.8,3.9-8.8,8.8-8.8,8.8,3.9,8.8,8.8ZM1163.2,212c0-6.2,0-14.8,0-18,0-9.7-7.8-17.5-17.5-17.5s-17.5,7.8-17.5,17.5,0,11.8,0,18h-9.8l9.8,11.9h34.9s9.5-11.9,9.5-11.9h-9.5Z"/>
        <path id="path2142" class="cls-2" d="M1141.4,146.8c.8-3.8,1.3-7.8,1.5-11.8h-15.9c0-1.4.2-2.8.2-4.1s0-2.8-.2-4.2h15.9c-.2-4-.7-8-1.5-11.8l-15.3,4.1c-.5-2.7-1.3-5.4-2.2-8l15.3-4.1c-1.2-3.8-2.8-7.5-4.6-11l-13.7,7.9c-1.2-2.5-2.6-4.9-4.2-7.2l13.7-7.9c-2.2-3.3-4.6-6.5-7.3-9.5l-11.2,11.2c-1.8-2.1-3.8-4-5.9-5.9l11.2-11.2c-3-2.7-6.1-5.1-9.5-7.2l-7.9,13.7c-2.3-1.5-4.7-2.9-7.2-4.2l7.9-13.7c-3.5-1.8-7.2-3.3-11-4.6l-4.1,15.3c-2.6-.9-5.3-1.6-8-2.2l4.1-15.3c-3.8-.8-7.8-1.3-11.8-1.5v15.9c-1.4,0-2.8-.2-4.2-.2s-2.8,0-4.2.2v-15.9c-4,.2-8,.7-11.8,1.5l4.1,15.3c-2.7.5-5.4,1.3-8,2.2l-4.1-15.3c-3.8,1.2-7.5,2.8-11,4.6l7.9,13.7c-2.5,1.2-4.9,2.6-7.2,4.2l-7.9-13.7c-3.3,2.2-6.5,4.6-9.5,7.3l11.2,11.2c-2.1,1.8-4,3.8-5.9,5.9l-11.2-11.2c-2.7,3-5.1,6.1-7.2,9.5l13.7,7.9c-1.5,2.3-2.9,4.7-4.2,7.2l-13.7-7.9c-1.8,3.5-3.3,7.2-4.6,11l15.3,4.1c-.9,2.6-1.6,5.3-2.2,8l-15.3-4.1c-.8,3.8-1.3,7.8-1.5,11.8h15.8c0,1.4-.2,2.8-.2,4.2s0,2.8.2,4.1h-15.8c.2,4,.7,8,1.5,11.8l15.3-4.1c.5,2.7,1.3,5.4,2.2,8l-15.3,4.1c1.2,3.8,2.8,7.5,4.6,11l13.7-7.9c1.2,2.5,2.6,4.9,4.2,7.2l-13.7,7.9c2.2,3.3,4.6,6.5,7.2,9.5l11.2-11.2c1.8,2.1,3.8,4,5.9,5.9l-11.2,11.2c3,2.7,6.1,5.1,9.5,7.3l7.9-13.7c2.3,1.5,4.7,2.9,7.2,4.2l-7.9,13.7c3.5,1.8,7.2,3.3,11,4.6l4.1-15.3c2.6.9,5.3,1.6,8,2.2l-4.1,15.3c3.8.8,7.8,1.3,11.8,1.5v-15.9c1.4,0,2.8.2,4.2.2s2.8,0,4.2-.2v15.9c4-.2,8-.7,11.8-1.5l-4.1-15.3c2.7-.5,5.4-1.3,8-2.2l4.1,15.3c3.8-1.2,7.5-2.8,11-4.6l-7.9-13.7c2.5-1.2,4.9-2.6,7.2-4.2l7.9,13.7c3.3-2.2,6.5-4.6,9.5-7.3l-11.2-11.2c2.1-1.8,4-3.8,5.9-5.9l11.2,11.2c2.7-3,5.1-6.1,7.3-9.5l-13.7-7.9c1.5-2.3,2.9-4.7,4.2-7.2l13.7,7.9c1.8-3.5,3.3-7.2,4.6-11l-15.3-4.1c.9-2.6,1.6-5.3,2.2-8l15.3,4.1Z"/>
        <path id="path2144" class="cls-2" d="M19.3,130.9c0,28.8,10.1,56.2,28.7,77.8,9.9,11.5,30.2,13,39,13v3.9h-8.7v8.3h10.7s6.8,9.3,16.1,12.1v9.1c-54.5-15-94.5-64.9-94.5-124.2S50.6,21.7,105.1,6.7v9.1c-9.3,2.8-16.1,12.1-16.1,12.1h-10.7v8.3h8.7v3.9c-8.8,0-29.1,1.5-39,13-18.6,21.6-28.7,49-28.7,77.8Z"/>
        <path id="path2146" class="cls-2" d="M61.1,130.9c0,28.8,10.1,56.2,28.7,77.8,9.9,11.5,30.2,13,39,13v3.9h-8.7v8.3h10.7s6.8,9.3,16.1,12.1v9.1c-54.5-15-94.5-64.9-94.5-124.2S92.4,21.7,146.9,6.7v9.1c-9.3,2.8-16.1,12.1-16.1,12.1h-10.7v8.3h8.7v3.9c-8.8,0-29.1,1.5-39,13-18.6,21.6-28.7,49-28.7,77.8h0Z"/>
        <path id="path2148" class="cls-2" d="M102.9,130.9c0,28.8,10.1,56.2,28.7,77.8,9.9,11.5,30.2,13,39,13v3.9h-8.7v8.3h10.7s6.8,9.3,16.1,12.1v9.1c-54.5-15-94.5-64.9-94.5-124.2S134.2,21.7,188.7,6.7v9.1c-9.3,2.8-16.1,12.1-16.1,12.1h-10.7v8.3h8.7v3.9c-8.8,0-29.1,1.5-39,13-18.6,21.6-28.7,49-28.7,77.8h0Z"/>
        <path id="path2150" class="cls-2" d="M144.7,130.9c0,28.8,10.1,56.2,28.7,77.8,9.9,11.5,30.2,13,39,13v3.9h-8.7v8.3h10.7s6.8,9.3,16.1,12.1v9.1c-54.5-15-94.5-64.9-94.5-124.2S176,21.7,230.5,6.7v9.1c-9.3,2.8-16.1,12.1-16.1,12.1h-10.7v8.3h8.7v3.9c-8.8,0-29.1,1.5-39,13-18.6,21.6-28.7,49-28.7,77.8h0Z"/>
        <path id="path2152" class="cls-2" d="M186.5,130.9c0,28.8,10.1,56.2,28.7,77.8,9.9,11.5,30.2,13,39,13v3.9h-8.7v8.3h10.7s6.8,9.3,16.1,12.1v9.1c-54.5-15-94.5-64.9-94.5-124.2S217.8,21.7,272.3,6.7v9.1c-9.3,2.8-16.1,12.1-16.1,12.1h-10.7v8.3h8.7v3.9c-8.8,0-29.1,1.5-39,13-18.6,21.6-28.7,49-28.7,77.8h0Z"/>
        <path id="path2154" class="cls-2" d="M228.3,130.9c0,28.8,10.1,56.2,28.7,77.8,9.9,11.5,30.2,13,39,13v3.9h-8.7v8.3h10.7s6.8,9.3,16.1,12.1v9.1c-54.5-15-94.5-64.9-94.5-124.2S259.6,21.7,314,6.7v9.1c-9.3,2.8-16.1,12.1-16.1,12.1h-10.7v8.3h8.7v3.9c-8.8,0-29.1,1.5-39,13-18.6,21.6-28.7,49-28.7,77.8h0Z"/>
        <path id="path2156" class="cls-2" d="M270.1,130.9c0,28.8,10.1,56.2,28.7,77.8,9.9,11.5,30.2,13,39,13v3.9h-8.7v8.3h10.7s6.8,9.3,16.1,12.1v9.1c-54.5-15-94.5-64.9-94.5-124.2S301.3,21.7,355.8,6.7v9.1c-9.3,2.8-16.1,12.1-16.1,12.1h-10.7v8.3h8.7v3.9c-8.8,0-29.1,1.5-39,13-18.6,21.6-28.7,49-28.7,77.8h0Z"/>
        <path id="path2158" class="cls-2" d="M311.8,130.9c0,28.8,10.1,56.2,28.7,77.8,9.9,11.5,30.2,13,39,13v3.9h-8.7v8.3h10.7s6.8,9.3,16.1,12.1v9.1c-54.5-15-94.5-64.9-94.5-124.2S343.1,21.7,397.6,6.7v9.1c-9.3,2.8-16.1,12.1-16.1,12.1h-10.7v8.3h8.7v3.9c-8.8,0-29.1,1.5-39,13-18.6,21.6-28.7,49-28.7,77.8h0Z"/>
        <path id="path2160" class="cls-2" d="M353.6,130.9c0,28.8,10.1,56.2,28.7,77.8,9.9,11.5,30.2,13,39,13v3.9h-8.7v8.3h10.7s6.8,9.3,16.1,12.1v9.1c-54.5-15-94.5-64.9-94.5-124.2S384.9,21.7,439.4,6.7v9.1c-9.3,2.8-16.1,12.1-16.1,12.1h-10.7v8.3h8.7v3.9c-8.8,0-29.1,1.5-39,13-18.6,21.6-28.7,49-28.7,77.8h0Z"/>
        <path id="path2162" class="cls-2" d="M395.4,130.9c0,28.8,10.1,56.2,28.7,77.8,9.9,11.5,30.2,13,39,13v3.9h-8.7v8.3h10.7s6.8,9.3,16.1,12.1v9.1c-54.5-15-94.5-64.9-94.5-124.2S426.7,21.7,481.2,6.7v9.1c-9.3,2.8-16.1,12.1-16.1,12.1h-10.7v8.3h8.7v3.9c-8.8,0-29.1,1.5-39,13-18.6,21.6-28.7,49-28.7,77.8h0Z"/>
        <path id="path2164" class="cls-2" d="M437.2,130.9c0,28.8,10.1,56.2,28.7,77.8,9.9,11.5,30.2,13,39,13v3.9h-8.7v8.3h10.7s6.8,9.3,16.1,12.1v9.1c-54.5-15-94.5-64.9-94.5-124.2s40-109.2,94.5-124.2v9.1c-9.3,2.8-16.1,12.1-16.1,12.1h-10.7v8.3h8.7v3.9c-8.8,0-29.1,1.5-39,13-18.6,21.6-28.7,49-28.7,77.8h0Z"/>
        <path id="path2166" class="cls-2" d="M479,130.9c0,28.8,10.1,56.2,28.7,77.8,9.9,11.5,30.2,13,39,13v3.9h-8.7v8.3h10.7s6.8,9.3,16.1,12.1v9.1c-54.5-15-94.5-64.9-94.5-124.2s40-109.2,94.5-124.2v9.1c-9.3,2.8-16.1,12.1-16.1,12.1h-10.7v8.3h8.7v3.9c-8.8,0-29.1,1.5-39,13-18.6,21.6-28.7,49-28.7,77.8h0Z"/>
        <path id="path2168" class="cls-2" d="M520.8,130.9c0,28.8,10.1,56.2,28.7,77.8,9.9,11.5,30.2,13,39,13v3.9h-8.7v8.3h10.7s6.8,9.3,16.1,12.1v9.1c-54.5-15-94.5-64.9-94.5-124.2s40-109.2,94.5-124.2v9.1c-9.3,2.8-16.1,12.1-16.1,12.1h-10.7v8.3h8.7v3.9c-8.8,0-29.1,1.5-39,13-18.6,21.6-28.7,49-28.7,77.8h0Z"/>
        <path id="path2170" class="cls-2" d="M562.6,130.9c0,28.8,10.1,56.2,28.7,77.8,9.9,11.5,30.2,13,39,13v3.9h-8.7v8.3h10.7s6.8,9.3,16.1,12.1v9.1c-54.5-15-94.5-64.9-94.5-124.2s40-109.2,94.5-124.2v9.1c-9.3,2.8-16.1,12.1-16.1,12.1h-10.7v8.3h8.7v3.9c-8.8,0-29.1,1.5-39,13-18.6,21.6-28.7,49-28.7,77.8h0Z"/>
        <path id="path2172" class="cls-2" d="M604.3,130.9c0,28.8,10.1,56.2,28.7,77.8,9.9,11.5,30.2,13,39,13v3.9h-8.7v8.3h10.7s6.8,9.3,16.1,12.1v9.1c-54.5-15-94.5-64.9-94.5-124.2s40-109.2,94.5-124.2v9.1c-9.3,2.8-16.1,12.1-16.1,12.1h-10.7v8.3h8.7v3.9c-8.8,0-29.1,1.5-39,13-18.6,21.6-28.7,49-28.7,77.8h0Z"/>
        <path id="path2174" class="cls-2" d="M646.1,130.9c0,28.8,10.1,56.2,28.7,77.8,9.9,11.5,30.2,13,39,13v3.9h-8.7v8.3h10.7s6.8,9.3,16.1,12.1v9.1c-54.5-15-94.5-64.9-94.5-124.2s40-109.2,94.5-124.2v9.1c-9.3,2.8-16.1,12.1-16.1,12.1h-10.7v8.3h8.7v3.9c-8.8,0-29.1,1.5-39,13-18.6,21.6-28.7,49-28.7,77.8h0Z"/>
        <path id="path2176" class="cls-2" d="M687.9,130.9c0,28.8,10.1,56.2,28.7,77.8,9.9,11.5,30.2,13,39,13v3.9h-8.7v8.3h10.7s6.8,9.3,16.1,12.1v9.1c-54.5-15-94.5-64.9-94.5-124.2s40-109.2,94.5-124.2v9.1c-9.3,2.8-16.1,12.1-16.1,12.1h-10.7v8.3h8.7v3.9c-8.8,0-29.1,1.5-39,13-18.6,21.6-28.7,49-28.7,77.8h0Z"/>
        <path id="path2178" class="cls-2" d="M729.7,130.9c0,28.8,10.1,56.2,28.7,77.8,9.9,11.5,30.2,13,39,13v3.9h-8.7v8.3h10.7s6.8,9.3,16.1,12.1v9.1c-54.5-15-94.5-64.9-94.5-124.2s40-109.2,94.5-124.2v9.1c-9.3,2.8-16.1,12.1-16.1,12.1h-10.7v8.3h8.7v3.9c-8.8,0-29.1,1.5-39,13-18.6,21.6-28.7,49-28.7,77.8h0Z"/>
        <path id="path2180" class="cls-2" d="M771.5,130.9c0,28.8,10.1,56.2,28.7,77.8,9.9,11.5,30.2,13,39,13v3.9h-8.7v8.3h10.7s6.8,9.3,16.1,12.1v9.1c-54.5-15-94.5-64.9-94.5-124.2s40-109.2,94.5-124.2v9.1c-9.3,2.8-16.1,12.1-16.1,12.1h-10.7v8.3h8.7v3.9c-8.8,0-29.1,1.5-39,13-18.6,21.6-28.7,49-28.7,77.8h0Z"/>
        <path id="path2182" class="cls-2" d="M813.3,130.9c0,28.8,10.1,56.2,28.7,77.8,9.9,11.5,30.2,13,39,13v3.9h-8.7v8.3h10.7s6.8,9.3,16.1,12.1v9.1c-54.5-15-94.5-64.9-94.5-124.2s40-109.2,94.5-124.2v9.1c-9.3,2.8-16.1,12.1-16.1,12.1h-10.7v8.3h8.7v3.9c-8.8,0-29.1,1.5-39,13-18.6,21.6-28.7,49-28.7,77.8h0Z"/>
        <path id="path2184" class="cls-2" d="M855,130.9c0,28.8,10.1,56.2,28.7,77.8,9.9,11.5,30.2,13,39,13v3.9h-8.7v8.3h10.7s6.8,9.3,16.1,12.1v9.1c-54.5-15-94.5-64.9-94.5-124.2s40-109.2,94.5-124.2v9.1c-9.3,2.8-16.1,12.1-16.1,12.1h-10.7v8.3h8.7v3.9c-8.8,0-29.1,1.5-39,13-18.6,21.6-28.7,49-28.7,77.8h0Z"/>
        <path id="path2186" class="cls-2" d="M896.8,130.9c0,28.8,10.1,56.2,28.7,77.8,9.9,11.5,30.2,13,39,13v3.9h-8.7v8.3h10.7s6.8,9.3,16.1,12.1v9.1c-54.5-15-94.5-64.9-94.5-124.2s40-109.2,94.5-124.2v9.1c-9.3,2.8-16.1,12.1-16.1,12.1h-10.7v8.3h8.7v3.9c-8.8,0-29.1,1.5-39,13-18.6,21.6-28.7,49-28.7,77.8h0Z"/>
        <path id="path2188" class="cls-2" d="M938.6,130.9c0,28.8,10.1,56.2,28.7,77.8,9.9,11.5,30.2,13,39,13v3.9h-8.7v8.3h10.7s6.8,9.3,16.1,12.1v9.1c-54.5-15-94.5-64.9-94.5-124.2s40-109.2,94.5-124.2v9.1c-9.3,2.8-16.1,12.1-16.1,12.1h-10.7v8.3h8.7v3.9c-8.8,0-29.1,1.5-39,13-18.6,21.6-28.7,49-28.7,77.8h0Z"/>
        <path id="path2190" class="cls-2" d="M980.4,130.9c0,28.8,10.1,56.2,28.7,77.8,9.9,11.5,30.2,13,39,13v3.9h-8.7v8.3h10.7s6.8,9.3,16.1,12.1v9.1c-54.5-15-94.5-64.9-94.5-124.2s40-109.2,94.5-124.2v9.1c-9.3,2.8-16.1,12.1-16.1,12.1h-10.7v8.3h8.7v3.9c-8.8,0-29.1,1.5-39,13-18.6,21.6-28.7,49-28.7,77.8h0Z"/>
        <g id="g2198">
          <g id="g2194">
            <rect id="rect2192" class="cls-2" x="1208.1" y="126.7" width="34.1" height="8.3"/>
          </g>
          <path id="path2196" class="cls-2" d="M1300.8,146.8c.8-3.8,1.3-7.8,1.5-11.8h-15.9c0-1.4.2-2.8.2-4.1s0-2.8-.2-4.2h15.9c-.2-4-.7-8-1.5-11.8l-15.3,4.1c-.5-2.7-1.3-5.4-2.2-8l15.3-4.1c-1.2-3.8-2.8-7.5-4.6-11l-13.7,7.9c-1.2-2.5-2.6-4.9-4.2-7.2l13.7-7.9c-2.2-3.3-4.6-6.5-7.3-9.5l-11.2,11.2c-1.8-2.1-3.8-4.1-5.9-5.9l11.2-11.2c-3-2.7-6.1-5.1-9.5-7.2l-7.9,13.7c-2.3-1.5-4.7-2.9-7.2-4.2l7.9-13.7c-3.5-1.8-7.2-3.3-11-4.6l-4.1,15.3c-2.6-.9-5.3-1.6-8-2.2l4.1-15.3c-3.8-.8-7.8-1.3-11.8-1.5v15.9c-1.4,0-2.8-.2-4.2-.2s-2.8,0-4.2.2v-15.9c-4,.2-8,.7-11.8,1.5l4.1,15.3c-2.7.5-5.4,1.3-8,2.2l-4.1-15.3c-3.8,1.2-7.5,2.8-11,4.6l7.9,13.7c-2.5,1.2-4.9,2.6-7.2,4.2l-7.9-13.7c-3.3,2.2-6.5,4.6-9.5,7.2l11.2,11.2c-2.1,1.8-4,3.8-5.9,5.9l-11.2-11.2c-2.7,3-5.1,6.1-7.2,9.5l13.7,7.9c-1.5,2.3-2.9,4.7-4.2,7.2l-13.7-7.9c-1.8,3.5-3.3,7.2-4.6,11l15.3,4.1c-.9,2.6-1.6,5.3-2.2,8l-15.3-4.1c-.8,3.8-1.3,7.8-1.5,11.8h15.8c0,1.4-.2,2.8-.2,4.2s0,2.8.2,4.1h-15.8c.2,4,.7,8,1.5,11.8l15.3-4.1c.5,2.7,1.3,5.4,2.2,8l-15.3,4.1c1.2,3.8,2.8,7.5,4.6,11l13.7-7.9c1.2,2.5,2.6,4.9,4.2,7.2l-13.7,7.9c2.2,3.3,4.6,6.5,7.2,9.5l11.2-11.2c1.8,2.1,3.8,4,5.9,5.9l-11.2,11.2c3,2.7,6.1,5.1,9.5,7.2l7.9-13.7c2.3,1.5,4.7,2.9,7.2,4.2l-7.9,13.7c3.5,1.8,7.2,3.3,11,4.6l4.1-15.3c2.6.9,5.3,1.6,8,2.2l-4.1,15.3c3.8.8,7.8,1.3,11.8,1.5v-15.9c1.4,0,2.8.2,4.2.2s2.8,0,4.2-.2v15.9c4-.2,8-.7,11.8-1.5l-4.1-15.3c2.7-.5,5.4-1.3,8-2.2l4.1,15.3c3.8-1.2,7.5-2.8,11-4.6l-7.9-13.7c2.5-1.2,4.9-2.6,7.2-4.2l7.9,13.7c3.3-2.2,6.5-4.6,9.5-7.3l-11.2-11.2c2.1-1.8,4-3.8,5.9-5.9l11.2,11.2c2.7-3,5.1-6.1,7.3-9.5l-13.7-7.9c1.5-2.3,2.9-4.7,4.2-7.2l13.7,7.9c1.8-3.5,3.3-7.2,4.6-11l-15.3-4.1c.9-2.6,1.6-5.3,2.2-8l15.3,4.1Z"/>
        </g>
      </g>
    </g>
  </g>
</svg>