<?xml version="1.0" encoding="UTF-8"?>
<svg xmlns="http://www.w3.org/2000/svg" version="1.1" xmlns:cc="http://creativecommons.org/ns#" xmlns:dc="http://purl.org/dc/elements/1.1/" xmlns:inkscape="http://www.inkscape.org/namespaces/inkscape" xmlns:rdf="http://www.w3.org/1999/02/22-rdf-syntax-ns#" xmlns:sodipodi="http://sodipodi.sourceforge.net/DTD/sodipodi-0.dtd" xmlns:svg="http://www.w3.org/2000/svg" viewBox="0 0 744.1 1052.4">
  <defs>
    <style>
      .cls-1 {
        stroke: red;
      }

      .cls-1, .cls-2 {
        fill: none;
        stroke-width: 0px;
      }

      .cls-2 {
        stroke: #000;
      }
    </style>
  </defs>
  <!-- Generator: Adobe Illustrator 28.6.0, SVG Export Plug-In . SVG Version: 1.2.0 Build 709)  -->
  <g>
    <g id="svg3078">
      <sodipodi:namedview id="base" bordercolor="#666666" borderopacity="1.0" inkscape:current-layer="layer1" inkscape:cx="229.85959" inkscape:cy="642.16241" inkscape:document-units="px" inkscape:pageopacity="0.0" inkscape:pageshadow="2" inkscape:window-height="1005" inkscape:window-maximized="1" inkscape:window-width="1920" inkscape:window-x="-9" inkscape:window-y="-9" inkscape:zoom="0.7" pagecolor="#ffffff" showgrid="false"/>
      <path id="path3781" class="cls-1" d="M165.6,5l-12,24.3-26.8,3.9,19.3,18.9-4.6,26.7,13.2-6.9c-10,21.1-54,113.4-56.2,118.6-2.4,5.8-2.6,8.9-.5,11.6s9.1,2,9.1,2c0,0-35.5,72.9-38.9,79.8s1.2,10,3.8,10.9,12.4.7,12.4.7c0,0-32.2,68.6-33.3,71.7-1.1,3.1,0,6.2,1.6,7.9,1.6,1.7,7,1.7,7,1.7h85.5v41.4c12.6-.2,20.9,1.5,41.8-2.4v-39h84.5s5.5,0,7-1.7c1.6-1.7,2.7-4.7,1.6-7.9-1.1-3.1-33.3-71.7-33.3-71.7,0,0,9.9.2,12.4-.7s7.1-4,3.8-10.9-38.9-79.8-38.9-79.8c0,0,7,.8,9.1-2s1.9-5.9-.5-11.6c-2.2-5.1-46.1-97.3-56.2-118.5l13,6.8-4.6-26.7,19.3-18.9-26.8-3.9-12-24.3h0ZM165.6,38.2c5.7,0,10.3,4.6,10.3,10.3s-4.6,10.3-10.3,10.3-10.3-4.6-10.3-10.3,4.6-10.3,10.3-10.3Z" inkscape:connector-curvature="0"/>
      <path id="path6457" class="cls-2" d="M110.6,165l-14.2,7.1,14.2,7.1M50.7,165l14.2,7.1-14.2,7.1M64.9,172.1h31.6" inkscape:connector-curvature="0"/>
      <path id="path6459" class="cls-2" d="M110.6,186.3l-14.2,7.1,14.2,7.1M50.7,186.3l14.2,7.1-14.2,7.1M64.9,193.4h31.6" inkscape:connector-curvature="0"/>
      <path id="path6469" class="cls-2" d="M153.7,111.9l-14.2,7.1,14.2,7.1M93.7,111.9l14.2,7.1-14.2,7.1M107.9,119h31.6" inkscape:connector-curvature="0"/>
      <path id="path6471" class="cls-2" d="M153.7,133.1l-14.2,7.1,14.2,7.1M93.7,133.1l14.2,7.1-14.2,7.1M107.9,140.2h31.6" inkscape:connector-curvature="0"/>
      <path id="path6473" class="cls-2" d="M195.7,122.5l-14.2,7.1,14.2,7.1M135.7,122.5l14.2,7.1-14.2,7.1M149.9,129.6h31.6" inkscape:connector-curvature="0"/>
      <path id="path6475" class="cls-2" d="M195.7,143.8l-14.2,7.1,14.2,7.1M135.7,143.8l14.2,7.1-14.2,7.1M149.9,150.9h31.6" inkscape:connector-curvature="0"/>
      <path id="path6477" class="cls-2" d="M153.7,154.4l-14.2,7.1,14.2,7.1M93.7,154.4l14.2,7.1-14.2,7.1M107.9,161.5h31.6" inkscape:connector-curvature="0"/>
      <path id="path6479" class="cls-2" d="M153.7,175.7l-14.2,7.1,14.2,7.1M93.7,175.7l14.2,7.1-14.2,7.1M107.9,182.7h31.6" inkscape:connector-curvature="0"/>
      <path id="path6481" class="cls-2" d="M195.7,165l-14.2,7.1,14.2,7.1M135.7,165l14.2,7.1-14.2,7.1M149.9,172.1h31.6" inkscape:connector-curvature="0"/>
      <path id="path6483" class="cls-2" d="M195.7,186.3l-14.2,7.1,14.2,7.1M135.7,186.3l14.2,7.1-14.2,7.1M149.9,193.4h31.6" inkscape:connector-curvature="0"/>
      <path id="path6493" class="cls-2" d="M238.7,111.9l-14.2,7.1,14.2,7.1M178.8,111.9l14.2,7.1-14.2,7.1M192.9,119h31.6" inkscape:connector-curvature="0"/>
      <path id="path6495" class="cls-2" d="M238.7,133.1l-14.2,7.1,14.2,7.1M178.8,133.1l14.2,7.1-14.2,7.1M192.9,140.2h31.6" inkscape:connector-curvature="0"/>
      <path id="path6501" class="cls-2" d="M238.7,154.4l-14.2,7.1,14.2,7.1M178.8,154.4l14.2,7.1-14.2,7.1M192.9,161.5h31.6" inkscape:connector-curvature="0"/>
      <path id="path6503" class="cls-2" d="M238.7,175.7l-14.2,7.1,14.2,7.1M178.8,175.7l14.2,7.1-14.2,7.1M192.9,182.7h31.6" inkscape:connector-curvature="0"/>
      <path id="path6505" class="cls-2" d="M280.7,165l-14.2,7.1,14.2,7.1M220.8,165l14.2,7.1-14.2,7.1M234.9,172.1h31.6" inkscape:connector-curvature="0"/>
      <path id="path6507" class="cls-2" d="M280.7,186.3l-14.2,7.1,14.2,7.1M220.8,186.3l14.2,7.1-14.2,7.1M234.9,193.4h31.6" inkscape:connector-curvature="0"/>
      <path id="path6585" class="cls-2" d="M110.6,207.5l-14.2,7.1,14.2,7.1M50.7,207.5l14.2,7.1-14.2,7.1M64.9,214.6h31.6" inkscape:connector-curvature="0"/>
      <path id="path6587" class="cls-2" d="M110.6,228.8l-14.2,7.1,14.2,7.1M50.7,228.8l14.2,7.1-14.2,7.1M64.9,235.9h31.6" inkscape:connector-curvature="0"/>
      <path id="path6593" class="cls-2" d="M110.6,250.1l-14.2,7.1,14.2,7.1M50.7,250.1l14.2,7.1-14.2,7.1M64.9,257.2h31.6" inkscape:connector-curvature="0"/>
      <path id="path6595" class="cls-2" d="M110.6,271.3l-14.2,7.1,14.2,7.1M50.7,271.3l14.2,7.1-14.2,7.1M64.9,278.4h31.6" inkscape:connector-curvature="0"/>
      <path id="path6601" class="cls-2" d="M110.6,292.6l-14.2,7.1,14.2,7.1M50.7,292.6l14.2,7.1-14.2,7.1M64.9,299.7h31.6" inkscape:connector-curvature="0"/>
      <path id="path6603" class="cls-2" d="M110.6,313.8l-14.2,7.1,14.2,7.1M50.7,313.8l14.2,7.1-14.2,7.1M64.9,320.9h31.6" inkscape:connector-curvature="0"/>
      <path id="path6605" class="cls-2" d="M153.7,196.9l-14.2,7.1,14.2,7.1M93.7,196.9l14.2,7.1-14.2,7.1M107.9,204h31.6" inkscape:connector-curvature="0"/>
      <path id="path6607" class="cls-2" d="M153.7,218.2l-14.2,7.1,14.2,7.1M93.7,218.2l14.2,7.1-14.2,7.1M107.9,225.3h31.6" inkscape:connector-curvature="0"/>
      <path id="path6609" class="cls-2" d="M195.7,207.5l-14.2,7.1,14.2,7.1M135.7,207.5l14.2,7.1-14.2,7.1M149.9,214.6h31.6" inkscape:connector-curvature="0"/>
      <path id="path6611" class="cls-2" d="M195.7,228.8l-14.2,7.1,14.2,7.1M135.7,228.8l14.2,7.1-14.2,7.1M149.9,235.9h31.6" inkscape:connector-curvature="0"/>
      <path id="path6613" class="cls-2" d="M153.7,239.4l-14.2,7.1,14.2,7.1M93.7,239.4l14.2,7.1-14.2,7.1M107.9,246.5h31.6" inkscape:connector-curvature="0"/>
      <path id="path6615" class="cls-2" d="M153.7,260.7l-14.2,7.1,14.2,7.1M93.7,260.7l14.2,7.1-14.2,7.1M107.9,267.8h31.6" inkscape:connector-curvature="0"/>
      <path id="path6617" class="cls-2" d="M195.7,250.1l-14.2,7.1,14.2,7.1M135.7,250.1l14.2,7.1-14.2,7.1M149.9,257.2h31.6" inkscape:connector-curvature="0"/>
      <path id="path6619" class="cls-2" d="M195.7,271.3l-14.2,7.1,14.2,7.1M135.7,271.3l14.2,7.1-14.2,7.1M149.9,278.4h31.6" inkscape:connector-curvature="0"/>
      <path id="path6621" class="cls-2" d="M153.7,282l-14.2,7.1,14.2,7.1M93.7,282l14.2,7.1-14.2,7.1M107.9,289h31.6" inkscape:connector-curvature="0"/>
      <path id="path6623" class="cls-2" d="M153.7,303.2l-14.2,7.1,14.2,7.1M93.7,303.2l14.2,7.1-14.2,7.1M107.9,310.3h31.6" inkscape:connector-curvature="0"/>
      <path id="path6625" class="cls-2" d="M195.7,292.6l-14.2,7.1,14.2,7.1M135.7,292.6l14.2,7.1-14.2,7.1M149.9,299.7h31.6" inkscape:connector-curvature="0"/>
      <path id="path6627" class="cls-2" d="M195.7,313.8l-14.2,7.1,14.2,7.1M135.7,313.8l14.2,7.1-14.2,7.1M149.9,320.9h31.6" inkscape:connector-curvature="0"/>
      <path id="path6629" class="cls-2" d="M238.7,196.9l-14.2,7.1,14.2,7.1M178.8,196.9l14.2,7.1-14.2,7.1M192.9,204h31.6" inkscape:connector-curvature="0"/>
      <path id="path6631" class="cls-2" d="M238.7,218.2l-14.2,7.1,14.2,7.1M178.8,218.2l14.2,7.1-14.2,7.1M192.9,225.3h31.6" inkscape:connector-curvature="0"/>
      <path id="path6633" class="cls-2" d="M280.7,207.5l-14.2,7.1,14.2,7.1M220.8,207.5l14.2,7.1-14.2,7.1M234.9,214.6h31.6" inkscape:connector-curvature="0"/>
      <path id="path6635" class="cls-2" d="M280.7,228.8l-14.2,7.1,14.2,7.1M220.8,228.8l14.2,7.1-14.2,7.1M234.9,235.9h31.6" inkscape:connector-curvature="0"/>
      <path id="path6637" class="cls-2" d="M238.7,239.4l-14.2,7.1,14.2,7.1M178.8,239.4l14.2,7.1-14.2,7.1M192.9,246.5h31.6" inkscape:connector-curvature="0"/>
      <path id="path6639" class="cls-2" d="M238.7,260.7l-14.2,7.1,14.2,7.1M178.8,260.7l14.2,7.1-14.2,7.1M192.9,267.8h31.6" inkscape:connector-curvature="0"/>
      <path id="path6641" class="cls-2" d="M280.7,250.1l-14.2,7.1,14.2,7.1M220.8,250.1l14.2,7.1-14.2,7.1M234.9,257.2h31.6" inkscape:connector-curvature="0"/>
      <path id="path6643" class="cls-2" d="M280.7,271.3l-14.2,7.1,14.2,7.1M220.8,271.3l14.2,7.1-14.2,7.1M234.9,278.4h31.6" inkscape:connector-curvature="0"/>
      <path id="path6645" class="cls-2" d="M238.7,282l-14.2,7.1,14.2,7.1M178.8,282l14.2,7.1-14.2,7.1M192.9,289h31.6" inkscape:connector-curvature="0"/>
      <path id="path6647" class="cls-2" d="M238.7,303.2l-14.2,7.1,14.2,7.1M178.8,303.2l14.2,7.1-14.2,7.1M192.9,310.3h31.6" inkscape:connector-curvature="0"/>
      <path id="path6649" class="cls-2" d="M280.7,292.6l-14.2,7.1,14.2,7.1M220.8,292.6l14.2,7.1-14.2,7.1M234.9,299.7h31.6" inkscape:connector-curvature="0"/>
      <path id="path6651" class="cls-2" d="M280.7,313.8l-14.2,7.1,14.2,7.1M220.8,313.8l14.2,7.1-14.2,7.1M234.9,320.9h31.6" inkscape:connector-curvature="0"/>
      <path id="path10050" class="cls-2" d="M110.6,335.1l-14.2,7.1,14.2,7.1M50.7,335.1l14.2,7.1-14.2,7.1M64.9,342.2h31.6" inkscape:connector-curvature="0"/>
      <path id="path10052" class="cls-2" d="M68.6,345.7l-14.2,7.1,14.2,7.1M8.7,345.7l14.2,7.1-14.2,7.1M22.9,352.8h31.6" inkscape:connector-curvature="0"/>
      <path id="path10056" class="cls-2" d="M110.6,356.4l-14.2,7.1,14.2,7.1M50.7,356.4l14.2,7.1-14.2,7.1M64.9,363.5h31.6" inkscape:connector-curvature="0"/>
      <path id="path10068" class="cls-2" d="M153.7,324.5l-14.2,7.1,14.2,7.1M93.7,324.5l14.2,7.1-14.2,7.1M107.9,331.6h31.6" inkscape:connector-curvature="0"/>
      <path id="path10070" class="cls-2" d="M195.7,335.1l-14.2,7.1,14.2,7.1M135.7,335.1l14.2,7.1-14.2,7.1M149.9,342.2h31.6" inkscape:connector-curvature="0"/>
      <path id="path10072" class="cls-2" d="M153.7,345.7l-14.2,7.1,14.2,7.1M93.7,345.7l14.2,7.1-14.2,7.1M107.9,352.8h31.6" inkscape:connector-curvature="0"/>
      <path id="path10076" class="cls-2" d="M195.7,356.4l-14.2,7.1,14.2,7.1M135.7,356.4l14.2,7.1-14.2,7.1M149.9,363.5h31.6" inkscape:connector-curvature="0"/>
      <path id="path10088" class="cls-2" d="M238.7,324.5l-14.2,7.1,14.2,7.1M178.8,324.5l14.2,7.1-14.2,7.1M192.9,331.6h31.6" inkscape:connector-curvature="0"/>
      <path id="path10090" class="cls-2" d="M280.7,335.1l-14.2,7.1,14.2,7.1M220.8,335.1l14.2,7.1-14.2,7.1M234.9,342.2h31.6" inkscape:connector-curvature="0"/>
      <path id="path10092" class="cls-2" d="M238.7,345.7l-14.2,7.1,14.2,7.1M178.8,345.7l14.2,7.1-14.2,7.1M192.9,352.8h31.6" inkscape:connector-curvature="0"/>
      <path id="path10096" class="cls-2" d="M280.7,356.4l-14.2,7.1,14.2,7.1M220.8,356.4l14.2,7.1-14.2,7.1M234.9,363.5h31.6" inkscape:connector-curvature="0"/>
      <path id="path10112" class="cls-2" d="M323.8,345.7l-14.2,7.1,14.2,7.1M263.8,345.7l14.2,7.1-14.2,7.1M278,352.8h31.6" inkscape:connector-curvature="0"/>
      <path id="path3933" class="cls-1" d="M376.2,10.8c-1.5,0-2.9,0-4.3,0-20,.8-35.1,8.2-35.9,20.2-1,13.6,21.9,27.3,32,29.8,4.6,1.1,13.4,2.5,22.1,3.5-46,18.1-78.6,63-78.6,115.4s55.5,124,124,124,124-55.5,124-124-32.5-97.3-78.5-115.4c8.7-1,17.5-2.4,22.1-3.5,10.1-2.5,33-16.2,32-29.8-.9-11.9-15.9-19.3-35.9-20.2-2.9-.1-5.8,0-8.8,0-19.3,1-28.4,17.7-33,29.2-4.9-6.8-12.8-11.2-21.8-11.2s-16.9,4.4-21.8,11.2c-4.6-11.6-13.6-28.2-33-29.2-1.5,0-3-.1-4.5-.2h0ZM376.1,25.1c1.3,0,2.5,0,3.8.1,7.1.4,10.8,3.6,14.7,9.2,3.6,5.2,6,11.6,7.9,16.8-2.6-.2-5.1-.4-8.2-.8-9.1-1-19.7-2.7-22.9-3.5-1.6-.4-9.6-4-14.8-8.1s-6.5-5.5-6.3-6.6c0-.2.3-1.7,3.2-2.9,3.8-1.6,10.6-3.8,18.9-4.2,1.2,0,2.4,0,3.7,0h0ZM494.9,25.1c1.3,0,2.5,0,3.7,0,8.4.3,15.1,2.6,18.9,4.2,2.9,1.2,3.2,2.7,3.2,2.9.1,1.1-1.1,2.5-6.3,6.6s-13.1,7.7-14.8,8.1c-3.2.8-13.8,2.4-22.9,3.5-3.1.3-5.6.5-8.2.8,1.9-5.2,4.3-11.6,7.9-16.8,3.9-5.6,7.6-8.8,14.7-9.2,1.3,0,2.6-.1,3.8-.1h0ZM435.5,41.7c7.8,0,14.2,6.3,14.2,14.2s0,.5,0,.8c-4.6-.5-9.3-.8-14.1-.8s-9.5.3-14.1.8c0-.3,0-.5,0-.8,0-7.8,6.4-14.2,14.2-14.2h0Z" inkscape:connector-curvature="0"/>
      <path id="path6427" class="cls-2" d="M337.6,106.4l-14.2,7.1,14.2,7.1M277.7,106.4l14.2,7.1-14.2,7.1M291.9,113.5h31.6" inkscape:connector-curvature="0"/>
      <path id="path6433" class="cls-2" d="M337.6,127.7l-14.2,7.1,14.2,7.1M277.7,127.7l14.2,7.1-14.2,7.1M291.9,134.8h31.6" inkscape:connector-curvature="0"/>
      <path id="path6435" class="cls-2" d="M337.6,149l-14.2,7.1,14.2,7.1M277.7,149l14.2,7.1-14.2,7.1M291.9,156h31.6" inkscape:connector-curvature="0"/>
      <path id="path6445" class="cls-2" d="M380.7,74.5l-14.2,7.1,14.2,7.1M320.7,74.5l14.2,7.1-14.2,7.1M334.9,81.6h31.6" inkscape:connector-curvature="0"/>
      <path id="path6447" class="cls-2" d="M380.7,95.8l-14.2,7.1,14.2,7.1M320.7,95.8l14.2,7.1-14.2,7.1M334.9,102.9h31.6" inkscape:connector-curvature="0"/>
      <path id="path6449" class="cls-2" d="M422.7,85.2l-14.2,7.1,14.2,7.1M362.7,85.2l14.2,7.1-14.2,7.1M376.9,92.3h31.6" inkscape:connector-curvature="0"/>
      <path id="path6451" class="cls-2" d="M422.7,106.4l-14.2,7.1,14.2,7.1M362.7,106.4l14.2,7.1-14.2,7.1M376.9,113.5h31.6" inkscape:connector-curvature="0"/>
      <path id="path6453" class="cls-2" d="M380.7,117.1l-14.2,7.1,14.2,7.1M320.7,117.1l14.2,7.1-14.2,7.1M334.9,124.2h31.6" inkscape:connector-curvature="0"/>
      <path id="path6455" class="cls-2" d="M380.7,138.3l-14.2,7.1,14.2,7.1M320.7,138.3l14.2,7.1-14.2,7.1M334.9,145.4h31.6" inkscape:connector-curvature="0"/>
      <path id="path6457-1" class="cls-2" d="M422.7,127.7l-14.2,7.1,14.2,7.1M362.7,127.7l14.2,7.1-14.2,7.1M376.9,134.8h31.6" inkscape:connector-curvature="0"/>
      <path id="path6459-7" class="cls-2" d="M422.7,149l-14.2,7.1,14.2,7.1M362.7,149l14.2,7.1-14.2,7.1M376.9,156h31.6" inkscape:connector-curvature="0"/>
      <path id="path6469-4" class="cls-2" d="M465.7,74.5l-14.2,7.1,14.2,7.1M405.8,74.5l14.2,7.1-14.2,7.1M419.9,81.6h31.6" inkscape:connector-curvature="0"/>
      <path id="path6471-0" class="cls-2" d="M465.7,95.8l-14.2,7.1,14.2,7.1M405.8,95.8l14.2,7.1-14.2,7.1M419.9,102.9h31.6" inkscape:connector-curvature="0"/>
      <path id="path6473-9" class="cls-2" d="M507.7,85.2l-14.2,7.1,14.2,7.1M447.8,85.2l14.2,7.1-14.2,7.1M461.9,92.3h31.6" inkscape:connector-curvature="0"/>
      <path id="path6475-4" class="cls-2" d="M507.7,106.4l-14.2,7.1,14.2,7.1M447.8,106.4l14.2,7.1-14.2,7.1M461.9,113.5h31.6" inkscape:connector-curvature="0"/>
      <path id="path6477-8" class="cls-2" d="M465.7,117.1l-14.2,7.1,14.2,7.1M405.8,117.1l14.2,7.1-14.2,7.1M419.9,124.2h31.6" inkscape:connector-curvature="0"/>
      <path id="path6479-8" class="cls-2" d="M465.7,138.3l-14.2,7.1,14.2,7.1M405.8,138.3l14.2,7.1-14.2,7.1M419.9,145.4h31.6" inkscape:connector-curvature="0"/>
      <path id="path6481-2" class="cls-2" d="M507.7,127.7l-14.2,7.1,14.2,7.1M447.8,127.7l14.2,7.1-14.2,7.1M461.9,134.8h31.6" inkscape:connector-curvature="0"/>
      <path id="path6483-4" class="cls-2" d="M507.7,149l-14.2,7.1,14.2,7.1M447.8,149l14.2,7.1-14.2,7.1M461.9,156h31.6" inkscape:connector-curvature="0"/>
      <path id="path6493-5" class="cls-2" d="M550.8,74.5l-14.2,7.1,14.2,7.1M490.8,74.5l14.2,7.1-14.2,7.1M505,81.6h31.6" inkscape:connector-curvature="0"/>
      <path id="path6495-5" class="cls-2" d="M550.8,95.8l-14.2,7.1,14.2,7.1M490.8,95.8l14.2,7.1-14.2,7.1M505,102.9h31.6" inkscape:connector-curvature="0"/>
      <path id="path6499" class="cls-2" d="M592.8,106.4l-14.2,7.1,14.2,7.1M532.8,106.4l14.2,7.1-14.2,7.1M547,113.5h31.6" inkscape:connector-curvature="0"/>
      <path id="path6501-1" class="cls-2" d="M550.8,117.1l-14.2,7.1,14.2,7.1M490.8,117.1l14.2,7.1-14.2,7.1M505,124.2h31.6" inkscape:connector-curvature="0"/>
      <path id="path6503-7" class="cls-2" d="M550.8,138.3l-14.2,7.1,14.2,7.1M490.8,138.3l14.2,7.1-14.2,7.1M505,145.4h31.6" inkscape:connector-curvature="0"/>
      <path id="path6505-1" class="cls-2" d="M592.8,127.7l-14.2,7.1,14.2,7.1M532.8,127.7l14.2,7.1-14.2,7.1M547,134.8h31.6" inkscape:connector-curvature="0"/>
      <path id="path6507-1" class="cls-2" d="M592.8,149l-14.2,7.1,14.2,7.1M532.8,149l14.2,7.1-14.2,7.1M547,156h31.6" inkscape:connector-curvature="0"/>
      <path id="path6561" class="cls-2" d="M337.6,170.2l-14.2,7.1,14.2,7.1M277.7,170.2l14.2,7.1-14.2,7.1M291.9,177.3h31.6" inkscape:connector-curvature="0"/>
      <path id="path6563" class="cls-2" d="M337.6,191.5l-14.2,7.1,14.2,7.1M277.7,191.5l14.2,7.1-14.2,7.1M291.9,198.6h31.6" inkscape:connector-curvature="0"/>
      <path id="path6569" class="cls-2" d="M337.6,212.7l-14.2,7.1,14.2,7.1M277.7,212.7l14.2,7.1-14.2,7.1M291.9,219.8h31.6" inkscape:connector-curvature="0"/>
      <path id="path6571" class="cls-2" d="M337.6,234l-14.2,7.1,14.2,7.1M277.7,234l14.2,7.1-14.2,7.1M291.9,241.1h31.6" inkscape:connector-curvature="0"/>
      <path id="path6581" class="cls-2" d="M380.7,159.6l-14.2,7.1,14.2,7.1M320.7,159.6l14.2,7.1-14.2,7.1M334.9,166.7h31.6" inkscape:connector-curvature="0"/>
      <path id="path6583" class="cls-2" d="M380.7,180.8l-14.2,7.1,14.2,7.1M320.7,180.8l14.2,7.1-14.2,7.1M334.9,187.9h31.6" inkscape:connector-curvature="0"/>
      <path id="path6585-5" class="cls-2" d="M422.7,170.2l-14.2,7.1,14.2,7.1M362.7,170.2l14.2,7.1-14.2,7.1M376.9,177.3h31.6" inkscape:connector-curvature="0"/>
      <path id="path6587-2" class="cls-2" d="M422.7,191.5l-14.2,7.1,14.2,7.1M362.7,191.5l14.2,7.1-14.2,7.1M376.9,198.6h31.6" inkscape:connector-curvature="0"/>
      <path id="path6589" class="cls-2" d="M380.7,202.1l-14.2,7.1,14.2,7.1M320.7,202.1l14.2,7.1-14.2,7.1M334.9,209.2h31.6" inkscape:connector-curvature="0"/>
      <path id="path6591" class="cls-2" d="M380.7,223.4l-14.2,7.1,14.2,7.1M320.7,223.4l14.2,7.1-14.2,7.1M334.9,230.5h31.6" inkscape:connector-curvature="0"/>
      <path id="path6593-7" class="cls-2" d="M422.7,212.7l-14.2,7.1,14.2,7.1M362.7,212.7l14.2,7.1-14.2,7.1M376.9,219.8h31.6" inkscape:connector-curvature="0"/>
      <path id="path6595-6" class="cls-2" d="M422.7,234l-14.2,7.1,14.2,7.1M362.7,234l14.2,7.1-14.2,7.1M376.9,241.1h31.6" inkscape:connector-curvature="0"/>
      <path id="path6597" class="cls-2" d="M380.7,244.6l-14.2,7.1,14.2,7.1M320.7,244.6l14.2,7.1-14.2,7.1M334.9,251.7h31.6" inkscape:connector-curvature="0"/>
      <path id="path6599" class="cls-2" d="M380.7,265.9l-14.2,7.1,14.2,7.1M320.7,265.9l14.2,7.1-14.2,7.1M334.9,273h31.6" inkscape:connector-curvature="0"/>
      <path id="path6601-1" class="cls-2" d="M422.7,255.3l-14.2,7.1,14.2,7.1M362.7,255.3l14.2,7.1-14.2,7.1M376.9,262.3h31.6" inkscape:connector-curvature="0"/>
      <path id="path6603-4" class="cls-2" d="M422.7,276.5l-14.2,7.1,14.2,7.1M362.7,276.5l14.2,7.1-14.2,7.1M376.9,283.6h31.6" inkscape:connector-curvature="0"/>
      <path id="path6605-2" class="cls-2" d="M465.7,159.6l-14.2,7.1,14.2,7.1M405.8,159.6l14.2,7.1-14.2,7.1M419.9,166.7h31.6" inkscape:connector-curvature="0"/>
      <path id="path6607-3" class="cls-2" d="M465.7,180.8l-14.2,7.1,14.2,7.1M405.8,180.8l14.2,7.1-14.2,7.1M419.9,187.9h31.6" inkscape:connector-curvature="0"/>
      <path id="path6609-2" class="cls-2" d="M507.7,170.2l-14.2,7.1,14.2,7.1M447.8,170.2l14.2,7.1-14.2,7.1M461.9,177.3h31.6" inkscape:connector-curvature="0"/>
      <path id="path6611-2" class="cls-2" d="M507.7,191.5l-14.2,7.1,14.2,7.1M447.8,191.5l14.2,7.1-14.2,7.1M461.9,198.6h31.6" inkscape:connector-curvature="0"/>
      <path id="path6613-1" class="cls-2" d="M465.7,202.1l-14.2,7.1,14.2,7.1M405.8,202.1l14.2,7.1-14.2,7.1M419.9,209.2h31.6" inkscape:connector-curvature="0"/>
      <path id="path6615-6" class="cls-2" d="M465.7,223.4l-14.2,7.1,14.2,7.1M405.8,223.4l14.2,7.1-14.2,7.1M419.9,230.5h31.6" inkscape:connector-curvature="0"/>
      <path id="path6617-8" class="cls-2" d="M507.7,212.7l-14.2,7.1,14.2,7.1M447.8,212.7l14.2,7.1-14.2,7.1M461.9,219.8h31.6" inkscape:connector-curvature="0"/>
      <path id="path6619-5" class="cls-2" d="M507.7,234l-14.2,7.1,14.2,7.1M447.8,234l14.2,7.1-14.2,7.1M461.9,241.1h31.6" inkscape:connector-curvature="0"/>
      <path id="path6621-7" class="cls-2" d="M465.7,244.6l-14.2,7.1,14.2,7.1M405.8,244.6l14.2,7.1-14.2,7.1M419.9,251.7h31.6" inkscape:connector-curvature="0"/>
      <path id="path6623-6" class="cls-2" d="M465.7,265.9l-14.2,7.1,14.2,7.1M405.8,265.9l14.2,7.1-14.2,7.1M419.9,273h31.6" inkscape:connector-curvature="0"/>
      <path id="path6625-1" class="cls-2" d="M507.7,255.3l-14.2,7.1,14.2,7.1M447.8,255.3l14.2,7.1-14.2,7.1M461.9,262.3h31.6" inkscape:connector-curvature="0"/>
      <path id="path6627-8" class="cls-2" d="M507.7,276.5l-14.2,7.1,14.2,7.1M447.8,276.5l14.2,7.1-14.2,7.1M461.9,283.6h31.6" inkscape:connector-curvature="0"/>
      <path id="path6629-9" class="cls-2" d="M550.8,159.6l-14.2,7.1,14.2,7.1M490.8,159.6l14.2,7.1-14.2,7.1M505,166.7h31.6" inkscape:connector-curvature="0"/>
      <path id="path6631-2" class="cls-2" d="M550.8,180.8l-14.2,7.1,14.2,7.1M490.8,180.8l14.2,7.1-14.2,7.1M505,187.9h31.6" inkscape:connector-curvature="0"/>
      <path id="path6633-7" class="cls-2" d="M592.8,170.2l-14.2,7.1,14.2,7.1M532.8,170.2l14.2,7.1-14.2,7.1M547,177.3h31.6" inkscape:connector-curvature="0"/>
      <path id="path6635-9" class="cls-2" d="M592.8,191.5l-14.2,7.1,14.2,7.1M532.8,191.5l14.2,7.1-14.2,7.1M547,198.6h31.6" inkscape:connector-curvature="0"/>
      <path id="path6637-5" class="cls-2" d="M550.8,202.1l-14.2,7.1,14.2,7.1M490.8,202.1l14.2,7.1-14.2,7.1M505,209.2h31.6" inkscape:connector-curvature="0"/>
      <path id="path6639-4" class="cls-2" d="M550.8,223.4l-14.2,7.1,14.2,7.1M490.8,223.4l14.2,7.1-14.2,7.1M505,230.5h31.6" inkscape:connector-curvature="0"/>
      <path id="path6641-3" class="cls-2" d="M592.8,212.7l-14.2,7.1,14.2,7.1M532.8,212.7l14.2,7.1-14.2,7.1M547,219.8h31.6" inkscape:connector-curvature="0"/>
      <path id="path6643-1" class="cls-2" d="M592.8,234l-14.2,7.1,14.2,7.1M532.8,234l14.2,7.1-14.2,7.1M547,241.1h31.6" inkscape:connector-curvature="0"/>
      <path id="path6645-2" class="cls-2" d="M550.8,244.6l-14.2,7.1,14.2,7.1M490.8,244.6l14.2,7.1-14.2,7.1M505,251.7h31.6" inkscape:connector-curvature="0"/>
      <path id="path6647-3" class="cls-2" d="M550.8,265.9l-14.2,7.1,14.2,7.1M490.8,265.9l14.2,7.1-14.2,7.1M505,273h31.6" inkscape:connector-curvature="0"/>
      <path id="path10048" class="cls-2" d="M380.7,287.1l-14.2,7.1,14.2,7.1M320.7,287.1l14.2,7.1-14.2,7.1M334.9,294.2h31.6" inkscape:connector-curvature="0"/>
      <path id="path10050-3" class="cls-2" d="M422.7,297.8l-14.2,7.1,14.2,7.1M362.7,297.8l14.2,7.1-14.2,7.1M376.9,304.9h31.6" inkscape:connector-curvature="0"/>
      <path id="path10068-4" class="cls-2" d="M465.7,287.1l-14.2,7.1,14.2,7.1M405.8,287.1l14.2,7.1-14.2,7.1M419.9,294.2h31.6" inkscape:connector-curvature="0"/>
      <path id="path10070-1" class="cls-2" d="M507.7,297.8l-14.2,7.1,14.2,7.1M447.8,297.8l14.2,7.1-14.2,7.1M461.9,304.9h31.6" inkscape:connector-curvature="0"/>
      <path id="path10088-1" class="cls-2" d="M550.8,287.1l-14.2,7.1,14.2,7.1M490.8,287.1l14.2,7.1-14.2,7.1M505,294.2h31.6" inkscape:connector-curvature="0"/>
      <path id="path3933-3" class="cls-1" d="M100.7,408.7c-1.5,0-2.9,0-4.3,0-20,.8-35.1,8.2-35.9,20.2-1,13.6,21.9,27.3,32,29.8,4.6,1.1,13.4,2.5,22.1,3.5-46,18.1-78.6,63-78.6,115.4s55.5,124,124,124,124-55.5,124-124-32.5-97.3-78.5-115.4c8.7-1,17.5-2.4,22.1-3.5,10.1-2.5,33-16.2,32-29.8-.9-11.9-15.9-19.3-35.9-20.2-2.9-.1-5.8,0-8.8,0-19.3,1-28.4,17.7-33,29.2-4.9-6.8-12.8-11.2-21.8-11.2s-16.9,4.4-21.8,11.2c-4.6-11.6-13.6-28.2-33-29.2-1.5,0-3-.1-4.5-.2h0ZM100.6,423.1c1.3,0,2.5,0,3.8.1,7.1.4,10.8,3.6,14.7,9.2,3.6,5.2,6,11.6,7.9,16.8-2.6-.2-5.1-.4-8.2-.8-9.1-1-19.7-2.7-22.9-3.5-1.6-.4-9.6-4-14.8-8.1-5.2-4.1-6.5-5.5-6.3-6.6,0-.2.3-1.7,3.2-2.9,3.8-1.6,10.6-3.8,18.9-4.2,1.2,0,2.4,0,3.7,0h0ZM219.4,423.1c1.3,0,2.5,0,3.7,0,8.4.3,15.1,2.6,18.9,4.2,2.9,1.2,3.2,2.7,3.2,2.9.1,1.1-1.1,2.5-6.3,6.6s-13.1,7.7-14.8,8.1c-3.2.8-13.8,2.4-22.9,3.5-3.1.3-5.6.5-8.2.8,1.9-5.2,4.3-11.6,7.9-16.8,3.9-5.6,7.6-8.8,14.7-9.2,1.3,0,2.6-.1,3.8-.1h0ZM160,439.6c7.8,0,14.2,6.3,14.2,14.2s0,.5,0,.8c-4.6-.5-9.3-.8-14.1-.8s-9.5.3-14.1.8c0-.3,0-.5,0-.8,0-7.8,6.4-14.2,14.2-14.2h0Z" inkscape:connector-curvature="0"/>
      <path id="path3976" class="cls-2" d="M42.9,478.5h70.9" inkscape:connector-curvature="0"/>
      <path id="path3988" class="cls-2" d="M42.9,496.2h70.9" inkscape:connector-curvature="0"/>
      <path id="path3990" class="cls-2" d="M83.6,487.4h70.9" inkscape:connector-curvature="0"/>
      <path id="path3992" class="cls-2" d="M124.4,496.2h70.9" inkscape:connector-curvature="0"/>
      <path id="path3998" class="cls-2" d="M2.1,505.1h70.9" inkscape:connector-curvature="0"/>
      <path id="path4000" class="cls-2" d="M42.9,513.9h70.9" inkscape:connector-curvature="0"/>
      <path id="path4002" class="cls-2" d="M83.6,505.1h70.9" inkscape:connector-curvature="0"/>
      <path id="path4004" class="cls-2" d="M124.4,513.9h70.9" inkscape:connector-curvature="0"/>
      <path id="path4010" class="cls-2" d="M2.1,522.8h70.9" inkscape:connector-curvature="0"/>
      <path id="path4012" class="cls-2" d="M42.9,531.6h70.9" inkscape:connector-curvature="0"/>
      <path id="path4014" class="cls-2" d="M83.6,522.8h70.9" inkscape:connector-curvature="0"/>
      <path id="path4016" class="cls-2" d="M124.4,531.6h70.9" inkscape:connector-curvature="0"/>
      <path id="path4022" class="cls-2" d="M2.1,540.5h70.9" inkscape:connector-curvature="0"/>
      <path id="path4024" class="cls-2" d="M42.9,549.4h70.9" inkscape:connector-curvature="0"/>
      <path id="path4026" class="cls-2" d="M83.6,540.5h70.9" inkscape:connector-curvature="0"/>
      <path id="path4028" class="cls-2" d="M124.4,549.4h70.9" inkscape:connector-curvature="0"/>
      <path id="path4034" class="cls-2" d="M2.1,558.2h70.9" inkscape:connector-curvature="0"/>
      <path id="path4036" class="cls-2" d="M42.9,567.1h70.9" inkscape:connector-curvature="0"/>
      <path id="path4038" class="cls-2" d="M83.6,558.2h70.9" inkscape:connector-curvature="0"/>
      <path id="path4040" class="cls-2" d="M124.4,567.1h70.9" inkscape:connector-curvature="0"/>
      <path id="path4046" class="cls-2" d="M2.1,575.9h70.9" inkscape:connector-curvature="0"/>
      <path id="path4048" class="cls-2" d="M42.9,584.8h70.9" inkscape:connector-curvature="0"/>
      <path id="path4050" class="cls-2" d="M83.6,575.9h70.9" inkscape:connector-curvature="0"/>
      <path id="path4052" class="cls-2" d="M124.4,584.8h70.9" inkscape:connector-curvature="0"/>
      <path id="path4058" class="cls-2" d="M2.1,593.7h70.9" inkscape:connector-curvature="0"/>
      <path id="path4060" class="cls-2" d="M42.9,602.5h70.9" inkscape:connector-curvature="0"/>
      <path id="path4062" class="cls-2" d="M83.6,593.7h70.9" inkscape:connector-curvature="0"/>
      <path id="path4064" class="cls-2" d="M124.4,602.5h70.9" inkscape:connector-curvature="0"/>
      <path id="path4070" class="cls-2" d="M2.1,611.4h70.9" inkscape:connector-curvature="0"/>
      <path id="path4072" class="cls-2" d="M42.9,620.2h70.9" inkscape:connector-curvature="0"/>
      <path id="path4074" class="cls-2" d="M83.6,611.4h70.9" inkscape:connector-curvature="0"/>
      <path id="path4076" class="cls-2" d="M124.4,620.2h70.9" inkscape:connector-curvature="0"/>
      <path id="path4082" class="cls-2" d="M2.1,629.1h70.9" inkscape:connector-curvature="0"/>
      <path id="path4084" class="cls-2" d="M42.9,637.9h70.9" inkscape:connector-curvature="0"/>
      <path id="path4086" class="cls-2" d="M83.6,629.1h70.9" inkscape:connector-curvature="0"/>
      <path id="path4088" class="cls-2" d="M124.4,637.9h70.9" inkscape:connector-curvature="0"/>
      <path id="path4092" class="cls-2" d="M205.9,478.5h70.9" inkscape:connector-curvature="0"/>
      <path id="path4102" class="cls-2" d="M165.1,487.4h70.9" inkscape:connector-curvature="0"/>
      <path id="path4104" class="cls-2" d="M205.9,496.2h70.9" inkscape:connector-curvature="0"/>
      <path id="path4114" class="cls-2" d="M165.1,505.1h70.9" inkscape:connector-curvature="0"/>
      <path id="path4116" class="cls-2" d="M205.9,513.9h70.9" inkscape:connector-curvature="0"/>
      <path id="path4118" class="cls-2" d="M246.6,505.1h70.9" inkscape:connector-curvature="0"/>
      <path id="path4126" class="cls-2" d="M165.1,522.8h70.9" inkscape:connector-curvature="0"/>
      <path id="path4128" class="cls-2" d="M205.9,531.6h70.9" inkscape:connector-curvature="0"/>
      <path id="path4130" class="cls-2" d="M246.6,522.8h70.9" inkscape:connector-curvature="0"/>
      <path id="path4138" class="cls-2" d="M165.1,540.5h70.9" inkscape:connector-curvature="0"/>
      <path id="path4140" class="cls-2" d="M205.9,549.4h70.9" inkscape:connector-curvature="0"/>
      <path id="path4142" class="cls-2" d="M246.6,540.5h70.9" inkscape:connector-curvature="0"/>
      <path id="path4150" class="cls-2" d="M165.1,558.2h70.9" inkscape:connector-curvature="0"/>
      <path id="path4152" class="cls-2" d="M205.9,567.1h70.9" inkscape:connector-curvature="0"/>
      <path id="path4154" class="cls-2" d="M246.6,558.2h70.9" inkscape:connector-curvature="0"/>
      <path id="path4162" class="cls-2" d="M165.1,575.9h70.9" inkscape:connector-curvature="0"/>
      <path id="path4164" class="cls-2" d="M205.9,584.8h70.9" inkscape:connector-curvature="0"/>
      <path id="path4166" class="cls-2" d="M246.6,575.9h70.9" inkscape:connector-curvature="0"/>
      <path id="path4174" class="cls-2" d="M165.1,593.7h70.9" inkscape:connector-curvature="0"/>
      <path id="path4176" class="cls-2" d="M205.9,602.5h70.9" inkscape:connector-curvature="0"/>
      <path id="path4178" class="cls-2" d="M246.6,593.7h70.9" inkscape:connector-curvature="0"/>
      <path id="path4186" class="cls-2" d="M165.1,611.4h70.9" inkscape:connector-curvature="0"/>
      <path id="path4188" class="cls-2" d="M205.9,620.2h70.9" inkscape:connector-curvature="0"/>
      <path id="path4190" class="cls-2" d="M246.6,611.4h70.9" inkscape:connector-curvature="0"/>
      <path id="path4198" class="cls-2" d="M165.1,629.1h70.9" inkscape:connector-curvature="0"/>
      <path id="path4200" class="cls-2" d="M205.9,637.9h70.9" inkscape:connector-curvature="0"/>
      <path id="path4202" class="cls-2" d="M246.6,629.1h70.9" inkscape:connector-curvature="0"/>
      <path id="path4214" class="cls-2" d="M2.1,646.8h70.9" inkscape:connector-curvature="0"/>
      <path id="path4216" class="cls-2" d="M42.9,655.7h70.9" inkscape:connector-curvature="0"/>
      <path id="path4218" class="cls-2" d="M83.6,646.8h70.9" inkscape:connector-curvature="0"/>
      <path id="path4220" class="cls-2" d="M124.4,655.7h70.9" inkscape:connector-curvature="0"/>
      <path id="path4228" class="cls-2" d="M42.9,673.4h70.9" inkscape:connector-curvature="0"/>
      <path id="path4230" class="cls-2" d="M83.6,664.5h70.9" inkscape:connector-curvature="0"/>
      <path id="path4232" class="cls-2" d="M124.4,673.4h70.9" inkscape:connector-curvature="0"/>
      <path id="path4240" class="cls-2" d="M42.9,691.1h70.9" inkscape:connector-curvature="0"/>
      <path id="path4242" class="cls-2" d="M83.6,682.2h70.9" inkscape:connector-curvature="0"/>
      <path id="path4244" class="cls-2" d="M124.4,691.1h70.9" inkscape:connector-curvature="0"/>
      <path id="path4330" class="cls-2" d="M165.1,646.8h70.9" inkscape:connector-curvature="0"/>
      <path id="path4332" class="cls-2" d="M205.9,655.7h70.9" inkscape:connector-curvature="0"/>
      <path id="path4334" class="cls-2" d="M246.6,646.8h70.9" inkscape:connector-curvature="0"/>
      <path id="path4342" class="cls-2" d="M165.1,664.5h70.9" inkscape:connector-curvature="0"/>
      <path id="path4344" class="cls-2" d="M205.9,673.4h70.9" inkscape:connector-curvature="0"/>
      <path id="path4354" class="cls-2" d="M165.1,682.2h70.9" inkscape:connector-curvature="0"/>
      <path id="path4356" class="cls-2" d="M205.9,691.1h70.9" inkscape:connector-curvature="0"/>
      <path id="path3935" class="cls-1" d="M460.4,317.8c-1.5,0-2.9,0-4.3,0-20,.8-35.1,8.2-35.9,20.2-1,13.6,21.9,27.3,32,29.8,6.3,1.6,20.7,3.5,31.6,4.5-7.3.8-15.3,2.1-23.4,4.4-30.8,8.9-85,28.4-87.1,93.6-2.2,65.1,29.2,83.9,35.2,88.7,17.1,13.7,67.3,31.2,111.1,73.6,43.8-42.4,94-59.9,111.1-73.6,6-4.8,37.4-23.5,35.2-88.7-2.2-65.1-55.8-86.8-87.1-93.6-9.9-2.2-18.6-3.4-26.1-4.2,11.1-.9,27.8-3,34.8-4.8,10.1-2.5,33-16.2,32-29.8-.9-11.9-15.9-19.3-35.9-20.2-2.9-.1-5.8,0-8.8,0-19.3,1-28.4,17.7-33,29.2-4.9-6.8-12.8-11.2-21.8-11.2s-16.9,4.4-21.8,11.2c-4.6-11.6-13.6-28.2-33-29.2-1.5,0-3-.1-4.5-.2h0ZM460.3,332.1c1.3,0,2.5,0,3.8.1,7.1.4,10.8,3.6,14.7,9.2,3.6,5.2,6,11.6,7.9,16.8-2.6-.2-5.1-.4-8.2-.8-9.1-1-19.7-2.7-22.9-3.5-1.6-.4-9.6-4-14.8-8.1s-6.5-5.5-6.3-6.6c0-.2.3-1.7,3.2-2.9,3.8-1.6,10.6-3.8,18.9-4.2,1.2,0,2.4,0,3.7,0h0ZM579.1,332.1c1.3,0,2.5,0,3.7,0,8.4.3,15.1,2.6,18.9,4.2,2.9,1.2,3.2,2.7,3.2,2.9.1,1.1-1.1,2.5-6.3,6.6s-13.1,7.7-14.8,8.1c-3.2.8-13.8,2.4-22.9,3.5-3.1.3-5.6.5-8.2.8,1.9-5.2,4.3-11.6,7.9-16.8,3.9-5.6,7.6-8.8,14.7-9.2,1.3,0,2.6-.1,3.8-.1h0ZM519.7,348.7c7.8,0,14.2,6.3,14.2,14.2s0,.5,0,.8c-4.6-.5-9.3-.8-14.1-.8s-9.5.3-14.1.8c0-.3,0-.5,0-.8,0-7.8,6.4-14.2,14.2-14.2h0Z" inkscape:connector-curvature="0"/>
      <path id="path6145" class="cls-2" d="M379.9,460.3l-14.2,7.1,14.2,7.1M320,460.3l14.2,7.1-14.2,7.1M334.1,467.4h31.6" inkscape:connector-curvature="0"/>
      <path id="path6147" class="cls-2" d="M379.9,481.6l-14.2,7.1,14.2,7.1M320,481.6l14.2,7.1-14.2,7.1M334.1,488.7h31.6" inkscape:connector-curvature="0"/>
      <path id="path6155" class="cls-2" d="M465,396.5l-14.2,7.1,14.2,7.1M405,396.5l14.2,7.1-14.2,7.1M419.2,403.6h31.6" inkscape:connector-curvature="0"/>
      <path id="path6157" class="cls-2" d="M423,407.2l-14.2,7.1,14.2,7.1M363,407.2l14.2,7.1-14.2,7.1M377.2,414.3h31.6" inkscape:connector-curvature="0"/>
      <path id="path6159" class="cls-2" d="M423,428.4l-14.2,7.1,14.2,7.1M363,428.4l14.2,7.1-14.2,7.1M377.2,435.5h31.6" inkscape:connector-curvature="0"/>
      <path id="path6161" class="cls-2" d="M465,417.8l-14.2,7.1,14.2,7.1M405,417.8l14.2,7.1-14.2,7.1M419.2,424.9h31.6" inkscape:connector-curvature="0"/>
      <path id="path6163" class="cls-2" d="M465,439.1l-14.2,7.1,14.2,7.1M405,439.1l14.2,7.1-14.2,7.1M419.2,446.2h31.6" inkscape:connector-curvature="0"/>
      <path id="path6165" class="cls-2" d="M423,449.7l-14.2,7.1,14.2,7.1M363,449.7l14.2,7.1-14.2,7.1M377.2,456.8h31.6" inkscape:connector-curvature="0"/>
      <path id="path6167" class="cls-2" d="M423,471l-14.2,7.1,14.2,7.1M363,471l14.2,7.1-14.2,7.1M377.2,478h31.6" inkscape:connector-curvature="0"/>
      <path id="path6169" class="cls-2" d="M465,460.3l-14.2,7.1,14.2,7.1M405,460.3l14.2,7.1-14.2,7.1M419.2,467.4h31.6" inkscape:connector-curvature="0"/>
      <path id="path6171" class="cls-2" d="M465,481.6l-14.2,7.1,14.2,7.1M405,481.6l14.2,7.1-14.2,7.1M419.2,488.7h31.6" inkscape:connector-curvature="0"/>
      <path id="path6175" class="cls-2" d="M508,385.9l-14.2,7.1,14.2,7.1M448.1,385.9l14.2,7.1-14.2,7.1M462.2,393h31.6" inkscape:connector-curvature="0"/>
      <path id="path6179" class="cls-2" d="M550,396.5l-14.2,7.1,14.2,7.1M490.1,396.5l14.2,7.1-14.2,7.1M504.2,403.6h31.6" inkscape:connector-curvature="0"/>
      <path id="path6181" class="cls-2" d="M508,407.2l-14.2,7.1,14.2,7.1M448.1,407.2l14.2,7.1-14.2,7.1M462.2,414.3h31.6" inkscape:connector-curvature="0"/>
      <path id="path6183" class="cls-2" d="M508,428.4l-14.2,7.1,14.2,7.1M448.1,428.4l14.2,7.1-14.2,7.1M462.2,435.5h31.6" inkscape:connector-curvature="0"/>
      <path id="path6185" class="cls-2" d="M550,417.8l-14.2,7.1,14.2,7.1M490.1,417.8l14.2,7.1-14.2,7.1M504.2,424.9h31.6" inkscape:connector-curvature="0"/>
      <path id="path6187" class="cls-2" d="M550,439.1l-14.2,7.1,14.2,7.1M490.1,439.1l14.2,7.1-14.2,7.1M504.2,446.2h31.6" inkscape:connector-curvature="0"/>
      <path id="path6189" class="cls-2" d="M508,449.7l-14.2,7.1,14.2,7.1M448.1,449.7l14.2,7.1-14.2,7.1M462.2,456.8h31.6" inkscape:connector-curvature="0"/>
      <path id="path6191" class="cls-2" d="M508,471l-14.2,7.1,14.2,7.1M448.1,471l14.2,7.1-14.2,7.1M462.2,478h31.6" inkscape:connector-curvature="0"/>
      <path id="path6193" class="cls-2" d="M550,460.3l-14.2,7.1,14.2,7.1M490.1,460.3l14.2,7.1-14.2,7.1M504.2,467.4h31.6" inkscape:connector-curvature="0"/>
      <path id="path6195" class="cls-2" d="M550,481.6l-14.2,7.1,14.2,7.1M490.1,481.6l14.2,7.1-14.2,7.1M504.2,488.7h31.6" inkscape:connector-curvature="0"/>
      <path id="path6199" class="cls-2" d="M593,385.9l-14.2,7.1,14.2,7.1M533.1,385.9l14.2,7.1-14.2,7.1M547.3,393h31.6" inkscape:connector-curvature="0"/>
      <path id="path6203" class="cls-2" d="M635,396.5l-14.2,7.1,14.2,7.1M575.1,396.5l14.2,7.1-14.2,7.1M589.3,403.6h31.6" inkscape:connector-curvature="0"/>
      <path id="path6205" class="cls-2" d="M593,407.2l-14.2,7.1,14.2,7.1M533.1,407.2l14.2,7.1-14.2,7.1M547.3,414.3h31.6" inkscape:connector-curvature="0"/>
      <path id="path6207" class="cls-2" d="M593,428.4l-14.2,7.1,14.2,7.1M533.1,428.4l14.2,7.1-14.2,7.1M547.3,435.5h31.6" inkscape:connector-curvature="0"/>
      <path id="path6209" class="cls-2" d="M635,417.8l-14.2,7.1,14.2,7.1M575.1,417.8l14.2,7.1-14.2,7.1M589.3,424.9h31.6" inkscape:connector-curvature="0"/>
      <path id="path6211" class="cls-2" d="M635,439.1l-14.2,7.1,14.2,7.1M575.1,439.1l14.2,7.1-14.2,7.1M589.3,446.2h31.6" inkscape:connector-curvature="0"/>
      <path id="path6213" class="cls-2" d="M593,449.7l-14.2,7.1,14.2,7.1M533.1,449.7l14.2,7.1-14.2,7.1M547.3,456.8h31.6" inkscape:connector-curvature="0"/>
      <path id="path6215" class="cls-2" d="M593,471l-14.2,7.1,14.2,7.1M533.1,471l14.2,7.1-14.2,7.1M547.3,478h31.6" inkscape:connector-curvature="0"/>
      <path id="path6217" class="cls-2" d="M635,460.3l-14.2,7.1,14.2,7.1M575.1,460.3l14.2,7.1-14.2,7.1M589.3,467.4h31.6" inkscape:connector-curvature="0"/>
      <path id="path6219" class="cls-2" d="M635,481.6l-14.2,7.1,14.2,7.1M575.1,481.6l14.2,7.1-14.2,7.1M589.3,488.7h31.6" inkscape:connector-curvature="0"/>
      <path id="path6229" class="cls-2" d="M678.1,407.2l-14.2,7.1,14.2,7.1M618.1,407.2l14.2,7.1-14.2,7.1M632.3,414.3h31.6" inkscape:connector-curvature="0"/>
      <path id="path6231" class="cls-2" d="M678.1,428.4l-14.2,7.1,14.2,7.1M618.1,428.4l14.2,7.1-14.2,7.1M632.3,435.5h31.6" inkscape:connector-curvature="0"/>
      <path id="path6237" class="cls-2" d="M678.1,449.7l-14.2,7.1,14.2,7.1M618.1,449.7l14.2,7.1-14.2,7.1M632.3,456.8h31.6" inkscape:connector-curvature="0"/>
      <path id="path6239" class="cls-2" d="M678.1,471l-14.2,7.1,14.2,7.1M618.1,471l14.2,7.1-14.2,7.1M632.3,478h31.6" inkscape:connector-curvature="0"/>
      <path id="path6241" class="cls-2" d="M720.1,460.3l-14.2,7.1,14.2,7.1M660.1,460.3l14.2,7.1-14.2,7.1M674.3,467.4h31.6" inkscape:connector-curvature="0"/>
      <path id="path6243" class="cls-2" d="M720.1,481.6l-14.2,7.1,14.2,7.1M660.1,481.6l14.2,7.1-14.2,7.1M674.3,488.7h31.6" inkscape:connector-curvature="0"/>
      <path id="path6273" class="cls-2" d="M379.9,502.8l-14.2,7.1,14.2,7.1M320,502.8l14.2,7.1-14.2,7.1M334.1,509.9h31.6" inkscape:connector-curvature="0"/>
      <path id="path6293" class="cls-2" d="M423,492.2l-14.2,7.1,14.2,7.1M363,492.2l14.2,7.1-14.2,7.1M377.2,499.3h31.6" inkscape:connector-curvature="0"/>
      <path id="path6295" class="cls-2" d="M423,513.5l-14.2,7.1,14.2,7.1M363,513.5l14.2,7.1-14.2,7.1M377.2,520.6h31.6" inkscape:connector-curvature="0"/>
      <path id="path6297" class="cls-2" d="M465,502.8l-14.2,7.1,14.2,7.1M405,502.8l14.2,7.1-14.2,7.1M419.2,509.9h31.6" inkscape:connector-curvature="0"/>
      <path id="path6299" class="cls-2" d="M465,524.1l-14.2,7.1,14.2,7.1M405,524.1l14.2,7.1-14.2,7.1M419.2,531.2h31.6" inkscape:connector-curvature="0"/>
      <path id="path6301" class="cls-2" d="M423,534.7l-14.2,7.1,14.2,7.1M363,534.7l14.2,7.1-14.2,7.1M377.2,541.8h31.6" inkscape:connector-curvature="0"/>
      <path id="path6303" class="cls-2" d="M423,556l-14.2,7.1,14.2,7.1M363,556l14.2,7.1-14.2,7.1M377.2,563.1h31.6" inkscape:connector-curvature="0"/>
      <path id="path6305" class="cls-2" d="M465,545.4l-14.2,7.1,14.2,7.1M405,545.4l14.2,7.1-14.2,7.1M419.2,552.5h31.6" inkscape:connector-curvature="0"/>
      <path id="path6307" class="cls-2" d="M465,566.6l-14.2,7.1,14.2,7.1M405,566.6l14.2,7.1-14.2,7.1M419.2,573.7h31.6" inkscape:connector-curvature="0"/>
      <path id="path6313" class="cls-2" d="M465,587.9l-14.2,7.1,14.2,7.1M405,587.9l14.2,7.1-14.2,7.1M419.2,595h31.6" inkscape:connector-curvature="0"/>
      <path id="path6317" class="cls-2" d="M508,492.2l-14.2,7.1,14.2,7.1M448.1,492.2l14.2,7.1-14.2,7.1M462.2,499.3h31.6" inkscape:connector-curvature="0"/>
      <path id="path6319" class="cls-2" d="M508,513.5l-14.2,7.1,14.2,7.1M448.1,513.5l14.2,7.1-14.2,7.1M462.2,520.6h31.6" inkscape:connector-curvature="0"/>
      <path id="path6321" class="cls-2" d="M550,502.8l-14.2,7.1,14.2,7.1M490.1,502.8l14.2,7.1-14.2,7.1M504.2,509.9h31.6" inkscape:connector-curvature="0"/>
      <path id="path6323" class="cls-2" d="M550,524.1l-14.2,7.1,14.2,7.1M490.1,524.1l14.2,7.1-14.2,7.1M504.2,531.2h31.6" inkscape:connector-curvature="0"/>
      <path id="path6325" class="cls-2" d="M508,534.7l-14.2,7.1,14.2,7.1M448.1,534.7l14.2,7.1-14.2,7.1M462.2,541.8h31.6" inkscape:connector-curvature="0"/>
      <path id="path6327" class="cls-2" d="M508,556l-14.2,7.1,14.2,7.1M448.1,556l14.2,7.1-14.2,7.1M462.2,563.1h31.6" inkscape:connector-curvature="0"/>
      <path id="path6329" class="cls-2" d="M550,545.4l-14.2,7.1,14.2,7.1M490.1,545.4l14.2,7.1-14.2,7.1M504.2,552.5h31.6" inkscape:connector-curvature="0"/>
      <path id="path6331" class="cls-2" d="M550,566.6l-14.2,7.1,14.2,7.1M490.1,566.6l14.2,7.1-14.2,7.1M504.2,573.7h31.6" inkscape:connector-curvature="0"/>
      <path id="path6333" class="cls-2" d="M508,577.3l-14.2,7.1,14.2,7.1M448.1,577.3l14.2,7.1-14.2,7.1M462.2,584.3h31.6" inkscape:connector-curvature="0"/>
      <path id="path6335" class="cls-2" d="M508,598.5l-14.2,7.1,14.2,7.1M448.1,598.5l14.2,7.1-14.2,7.1M462.2,605.6h31.6" inkscape:connector-curvature="0"/>
      <path id="path6337" class="cls-2" d="M550,587.9l-14.2,7.1,14.2,7.1M490.1,587.9l14.2,7.1-14.2,7.1M504.2,595h31.6" inkscape:connector-curvature="0"/>
      <path id="path6341" class="cls-2" d="M593,492.2l-14.2,7.1,14.2,7.1M533.1,492.2l14.2,7.1-14.2,7.1M547.3,499.3h31.6" inkscape:connector-curvature="0"/>
      <path id="path6343" class="cls-2" d="M593,513.5l-14.2,7.1,14.2,7.1M533.1,513.5l14.2,7.1-14.2,7.1M547.3,520.6h31.6" inkscape:connector-curvature="0"/>
      <path id="path6345" class="cls-2" d="M635,502.8l-14.2,7.1,14.2,7.1M575.1,502.8l14.2,7.1-14.2,7.1M589.3,509.9h31.6" inkscape:connector-curvature="0"/>
      <path id="path6347" class="cls-2" d="M635,524.1l-14.2,7.1,14.2,7.1M575.1,524.1l14.2,7.1-14.2,7.1M589.3,531.2h31.6" inkscape:connector-curvature="0"/>
      <path id="path6349" class="cls-2" d="M593,534.7l-14.2,7.1,14.2,7.1M533.1,534.7l14.2,7.1-14.2,7.1M547.3,541.8h31.6" inkscape:connector-curvature="0"/>
      <path id="path6351" class="cls-2" d="M593,556l-14.2,7.1,14.2,7.1M533.1,556l14.2,7.1-14.2,7.1M547.3,563.1h31.6" inkscape:connector-curvature="0"/>
      <path id="path6353" class="cls-2" d="M635,545.4l-14.2,7.1,14.2,7.1M575.1,545.4l14.2,7.1-14.2,7.1M589.3,552.5h31.6" inkscape:connector-curvature="0"/>
      <path id="path6355" class="cls-2" d="M635,566.6l-14.2,7.1,14.2,7.1M575.1,566.6l14.2,7.1-14.2,7.1M589.3,573.7h31.6" inkscape:connector-curvature="0"/>
      <path id="path6357" class="cls-2" d="M593,577.3l-14.2,7.1,14.2,7.1M533.1,577.3l14.2,7.1-14.2,7.1M547.3,584.3h31.6" inkscape:connector-curvature="0"/>
      <path id="path6359" class="cls-2" d="M593,598.5l-14.2,7.1,14.2,7.1M533.1,598.5l14.2,7.1-14.2,7.1M547.3,605.6h31.6" inkscape:connector-curvature="0"/>
      <path id="path6361" class="cls-2" d="M635,587.9l-14.2,7.1,14.2,7.1M575.1,587.9l14.2,7.1-14.2,7.1M589.3,595h31.6" inkscape:connector-curvature="0"/>
      <path id="path6365" class="cls-2" d="M678.1,492.2l-14.2,7.1,14.2,7.1M618.1,492.2l14.2,7.1-14.2,7.1M632.3,499.3h31.6" inkscape:connector-curvature="0"/>
      <path id="path6367" class="cls-2" d="M678.1,513.5l-14.2,7.1,14.2,7.1M618.1,513.5l14.2,7.1-14.2,7.1M632.3,520.6h31.6" inkscape:connector-curvature="0"/>
      <path id="path6369" class="cls-2" d="M720.1,502.8l-14.2,7.1,14.2,7.1M660.1,502.8l14.2,7.1-14.2,7.1M674.3,509.9h31.6" inkscape:connector-curvature="0"/>
      <path id="path6373" class="cls-2" d="M678.1,534.7l-14.2,7.1,14.2,7.1M618.1,534.7l14.2,7.1-14.2,7.1M632.3,541.8h31.6" inkscape:connector-curvature="0"/>
      <path id="path6375" class="cls-2" d="M678.1,556l-14.2,7.1,14.2,7.1M618.1,556l14.2,7.1-14.2,7.1M632.3,563.1h31.6" inkscape:connector-curvature="0"/>
      <path id="path3935-8" class="cls-1" d="M399.8,639.9c-1.5,0-2.9,0-4.3,0-20,.8-35.1,8.2-35.9,20.2-1,13.6,21.9,27.3,32,29.8,6.3,1.6,20.7,3.5,31.6,4.5-7.3.8-15.3,2.1-23.4,4.4-30.8,8.9-85,28.4-87.1,93.6-2.2,65.1,29.2,83.9,35.2,88.7,17.1,13.7,67.3,31.2,111.1,73.6,43.8-42.4,94-59.9,111.1-73.6,6-4.8,37.4-23.5,35.2-88.7-2.2-65.1-55.8-86.8-87.1-93.6-9.9-2.2-18.6-3.4-26.1-4.2,11.1-.9,27.8-3,34.8-4.8,10.1-2.5,33-16.2,32-29.8-.9-11.9-15.9-19.3-35.9-20.2-2.9-.1-5.8,0-8.8,0-19.3,1-28.4,17.7-33,29.2-4.9-6.8-12.8-11.2-21.8-11.2s-16.9,4.4-21.8,11.2c-4.6-11.6-13.6-28.2-33-29.2-1.5,0-3-.1-4.5-.2h0ZM399.7,654.2c1.3,0,2.5,0,3.8.1,7.1.4,10.8,3.6,14.7,9.2,3.6,5.2,6,11.6,7.9,16.8-2.6-.2-5.1-.4-8.2-.8-9.1-1-19.7-2.7-22.9-3.5-1.6-.4-9.6-4-14.8-8.1s-6.5-5.5-6.3-6.6c0-.2.3-1.7,3.2-2.9,3.8-1.6,10.6-3.8,18.9-4.2,1.2,0,2.4,0,3.7,0h0ZM518.5,654.2c1.3,0,2.5,0,3.7,0,8.4.3,15.1,2.6,18.9,4.2,2.9,1.2,3.2,2.7,3.2,2.9.1,1.1-1.1,2.5-6.3,6.6s-13.1,7.7-14.8,8.1c-3.2.8-13.8,2.4-22.9,3.5-3.1.3-5.6.5-8.2.8,1.9-5.2,4.3-11.6,7.9-16.8,3.9-5.6,7.6-8.8,14.7-9.2,1.3,0,2.6-.1,3.8-.1h0ZM459.1,670.7c7.8,0,14.2,6.3,14.2,14.2s0,.5,0,.8c-4.6-.5-9.3-.8-14.1-.8s-9.5.3-14.1.8c0-.3,0-.5,0-.8,0-7.8,6.4-14.2,14.2-14.2h0Z" inkscape:connector-curvature="0"/>
      <path id="path5223" class="cls-2" d="M301.4,723.1h70.9" inkscape:connector-curvature="0"/>
      <path id="path5225" class="cls-2" d="M342.1,714.3h70.9" inkscape:connector-curvature="0"/>
      <path id="path5227" class="cls-2" d="M382.8,723.1h70.9" inkscape:connector-curvature="0"/>
      <path id="path5235" class="cls-2" d="M301.4,740.8h70.9" inkscape:connector-curvature="0"/>
      <path id="path5237" class="cls-2" d="M342.1,732h70.9" inkscape:connector-curvature="0"/>
      <path id="path5239" class="cls-2" d="M382.8,740.8h70.9" inkscape:connector-curvature="0"/>
      <path id="path5245" class="cls-2" d="M260.6,749.7h70.9" inkscape:connector-curvature="0"/>
      <path id="path5247" class="cls-2" d="M301.4,758.6h70.9" inkscape:connector-curvature="0"/>
      <path id="path5249" class="cls-2" d="M342.1,749.7h70.9" inkscape:connector-curvature="0"/>
      <path id="path5251" class="cls-2" d="M382.8,758.6h70.9" inkscape:connector-curvature="0"/>
      <path id="path5257" class="cls-2" d="M260.6,767.4h70.9" inkscape:connector-curvature="0"/>
      <path id="path5259" class="cls-2" d="M301.4,776.3h70.9" inkscape:connector-curvature="0"/>
      <path id="path5261" class="cls-2" d="M342.1,767.4h70.9" inkscape:connector-curvature="0"/>
      <path id="path5263" class="cls-2" d="M382.8,776.3h70.9" inkscape:connector-curvature="0"/>
      <path id="path5269" class="cls-2" d="M260.6,785.1h70.9" inkscape:connector-curvature="0"/>
      <path id="path5271" class="cls-2" d="M301.4,794h70.9" inkscape:connector-curvature="0"/>
      <path id="path5273" class="cls-2" d="M342.1,785.1h70.9" inkscape:connector-curvature="0"/>
      <path id="path5275" class="cls-2" d="M382.8,794h70.9" inkscape:connector-curvature="0"/>
      <path id="path5281" class="cls-2" d="M260.6,802.9h70.9" inkscape:connector-curvature="0"/>
      <path id="path5283" class="cls-2" d="M301.4,811.7h70.9" inkscape:connector-curvature="0"/>
      <path id="path5285" class="cls-2" d="M342.1,802.9h70.9" inkscape:connector-curvature="0"/>
      <path id="path5287" class="cls-2" d="M382.8,811.7h70.9" inkscape:connector-curvature="0"/>
      <path id="path5293" class="cls-2" d="M260.6,820.6h70.9" inkscape:connector-curvature="0"/>
      <path id="path5295" class="cls-2" d="M301.4,829.4h70.9" inkscape:connector-curvature="0"/>
      <path id="path5297" class="cls-2" d="M342.1,820.6h70.9" inkscape:connector-curvature="0"/>
      <path id="path5299" class="cls-2" d="M382.8,829.4h70.9" inkscape:connector-curvature="0"/>
      <path id="path5313" class="cls-2" d="M423.6,714.3h70.9" inkscape:connector-curvature="0"/>
      <path id="path5315" class="cls-2" d="M464.3,723.1h70.9" inkscape:connector-curvature="0"/>
      <path id="path5317" class="cls-2" d="M505.1,714.3h70.9" inkscape:connector-curvature="0"/>
      <path id="path5319" class="cls-2" d="M545.8,723.1h70.9" inkscape:connector-curvature="0"/>
      <path id="path5325" class="cls-2" d="M423.6,732h70.9" inkscape:connector-curvature="0"/>
      <path id="path5327" class="cls-2" d="M464.3,740.8h70.9" inkscape:connector-curvature="0"/>
      <path id="path5329" class="cls-2" d="M505.1,732h70.9" inkscape:connector-curvature="0"/>
      <path id="path5331" class="cls-2" d="M545.8,740.8h70.9" inkscape:connector-curvature="0"/>
      <path id="path5333" class="cls-2" d="M586.6,732h70.9" inkscape:connector-curvature="0"/>
      <path id="path5337" class="cls-2" d="M423.6,749.7h70.9" inkscape:connector-curvature="0"/>
      <path id="path5339" class="cls-2" d="M464.3,758.6h70.9" inkscape:connector-curvature="0"/>
      <path id="path5341" class="cls-2" d="M505.1,749.7h70.9" inkscape:connector-curvature="0"/>
      <path id="path5343" class="cls-2" d="M545.8,758.6h70.9" inkscape:connector-curvature="0"/>
      <path id="path5345" class="cls-2" d="M586.6,749.7h70.9" inkscape:connector-curvature="0"/>
      <path id="path5349" class="cls-2" d="M423.6,767.4h70.9" inkscape:connector-curvature="0"/>
      <path id="path5351" class="cls-2" d="M464.3,776.3h70.9" inkscape:connector-curvature="0"/>
      <path id="path5353" class="cls-2" d="M505.1,767.4h70.9" inkscape:connector-curvature="0"/>
      <path id="path5355" class="cls-2" d="M545.8,776.3h70.9" inkscape:connector-curvature="0"/>
      <path id="path5357" class="cls-2" d="M586.6,767.4h70.9" inkscape:connector-curvature="0"/>
      <path id="path5361" class="cls-2" d="M423.6,785.1h70.9" inkscape:connector-curvature="0"/>
      <path id="path5363" class="cls-2" d="M464.3,794h70.9" inkscape:connector-curvature="0"/>
      <path id="path5365" class="cls-2" d="M505.1,785.1h70.9" inkscape:connector-curvature="0"/>
      <path id="path5367" class="cls-2" d="M545.8,794h70.9" inkscape:connector-curvature="0"/>
      <path id="path5369" class="cls-2" d="M586.6,785.1h70.9" inkscape:connector-curvature="0"/>
      <path id="path5373" class="cls-2" d="M423.6,802.9h70.9" inkscape:connector-curvature="0"/>
      <path id="path5375" class="cls-2" d="M464.3,811.7h70.9" inkscape:connector-curvature="0"/>
      <path id="path5377" class="cls-2" d="M505.1,802.9h70.9" inkscape:connector-curvature="0"/>
      <path id="path5379" class="cls-2" d="M545.8,811.7h70.9" inkscape:connector-curvature="0"/>
      <path id="path5381" class="cls-2" d="M586.6,802.9h70.9" inkscape:connector-curvature="0"/>
      <path id="path5385" class="cls-2" d="M423.6,820.6h70.9" inkscape:connector-curvature="0"/>
      <path id="path5387" class="cls-2" d="M464.3,829.4h70.9" inkscape:connector-curvature="0"/>
      <path id="path5389" class="cls-2" d="M505.1,820.6h70.9" inkscape:connector-curvature="0"/>
      <path id="path5391" class="cls-2" d="M545.8,829.4h70.9" inkscape:connector-curvature="0"/>
      <path id="path5393" class="cls-2" d="M586.6,820.6h70.9" inkscape:connector-curvature="0"/>
      <path id="path5401" class="cls-2" d="M260.6,838.3h70.9" inkscape:connector-curvature="0"/>
      <path id="path5403" class="cls-2" d="M301.4,847.1h70.9" inkscape:connector-curvature="0"/>
      <path id="path5405" class="cls-2" d="M342.1,838.3h70.9" inkscape:connector-curvature="0"/>
      <path id="path5407" class="cls-2" d="M382.8,847.1h70.9" inkscape:connector-curvature="0"/>
      <path id="path5413" class="cls-2" d="M260.6,856h70.9" inkscape:connector-curvature="0"/>
      <path id="path5415" class="cls-2" d="M301.4,864.9h70.9" inkscape:connector-curvature="0"/>
      <path id="path5417" class="cls-2" d="M342.1,856h70.9" inkscape:connector-curvature="0"/>
      <path id="path5419" class="cls-2" d="M382.8,864.9h70.9" inkscape:connector-curvature="0"/>
      <path id="path5427" class="cls-2" d="M301.4,882.6h70.9" inkscape:connector-curvature="0"/>
      <path id="path5429" class="cls-2" d="M342.1,873.7h70.9" inkscape:connector-curvature="0"/>
      <path id="path5431" class="cls-2" d="M382.8,882.6h70.9" inkscape:connector-curvature="0"/>
      <path id="path5441" class="cls-2" d="M342.1,891.4h70.9" inkscape:connector-curvature="0"/>
      <path id="path5443" class="cls-2" d="M382.8,900.3h70.9" inkscape:connector-curvature="0"/>
      <path id="path5453" class="cls-2" d="M342.1,909.2h70.9" inkscape:connector-curvature="0"/>
      <path id="path5455" class="cls-2" d="M382.8,918h70.9" inkscape:connector-curvature="0"/>
      <path id="path5493" class="cls-2" d="M423.6,838.3h70.9" inkscape:connector-curvature="0"/>
      <path id="path5495" class="cls-2" d="M464.3,847.1h70.9" inkscape:connector-curvature="0"/>
      <path id="path5497" class="cls-2" d="M505.1,838.3h70.9" inkscape:connector-curvature="0"/>
      <path id="path5499" class="cls-2" d="M545.8,847.1h70.9" inkscape:connector-curvature="0"/>
      <path id="path5501" class="cls-2" d="M586.6,838.3h70.9" inkscape:connector-curvature="0"/>
      <path id="path5505" class="cls-2" d="M423.6,856h70.9" inkscape:connector-curvature="0"/>
      <path id="path5507" class="cls-2" d="M464.3,864.9h70.9" inkscape:connector-curvature="0"/>
      <path id="path5509" class="cls-2" d="M505.1,856h70.9" inkscape:connector-curvature="0"/>
      <path id="path5511" class="cls-2" d="M545.8,864.9h70.9" inkscape:connector-curvature="0"/>
      <path id="path5513" class="cls-2" d="M586.6,856h70.9" inkscape:connector-curvature="0"/>
      <path id="path5517" class="cls-2" d="M423.6,873.7h70.9" inkscape:connector-curvature="0"/>
      <path id="path5519" class="cls-2" d="M464.3,882.6h70.9" inkscape:connector-curvature="0"/>
      <path id="path5521" class="cls-2" d="M505.1,873.7h70.9" inkscape:connector-curvature="0"/>
      <path id="path5523" class="cls-2" d="M545.8,882.6h70.9" inkscape:connector-curvature="0"/>
      <path id="path5529" class="cls-2" d="M423.6,891.4h70.9" inkscape:connector-curvature="0"/>
      <path id="path5531" class="cls-2" d="M464.3,900.3h70.9" inkscape:connector-curvature="0"/>
      <path id="path5533" class="cls-2" d="M505.1,891.4h70.9" inkscape:connector-curvature="0"/>
      <path id="path5541" class="cls-2" d="M423.6,909.2h70.9" inkscape:connector-curvature="0"/>
      <path id="path5543" class="cls-2" d="M464.3,918h70.9" inkscape:connector-curvature="0"/>
      <path id="path5545" class="cls-2" d="M505.1,909.2h70.9" inkscape:connector-curvature="0"/>
    </g>
  </g>
</svg>