<?xml version="1.0" encoding="utf-8"?>
<!-- Generator: Adobe Illustrator 28.6.0, SVG Export Plug-In . SVG Version: 9.03 Build 54939)  -->
<svg version="1.0"
	 id="Layer_1" xmlns:sodipodi="http://sodipodi.sourceforge.net/DTD/sodipodi-0.dtd" xmlns:inkscape="http://www.inkscape.org/namespaces/inkscape" xmlns:svg="http://www.w3.org/2000/svg" xmlns:rdf="http://www.w3.org/1999/02/22-rdf-syntax-ns#" xmlns:dc="http://purl.org/dc/elements/1.1/" xmlns:cc="http://creativecommons.org/ns#"
	 xmlns="http://www.w3.org/2000/svg" xmlns:xlink="http://www.w3.org/1999/xlink" x="0px" y="0px" viewBox="0 0 744.1 1052.4"
	 style="enable-background:new 0 0 744.1 1052.4;" xml:space="preserve">
<style type="text/css">
	.st0{fill:none;stroke:#0000FF;stroke-width:2.834646e-02;stroke-miterlimit:10;}
	.st1{fill:none;stroke:#FF0000;stroke-width:2.834646e-02;stroke-miterlimit:10;}
</style>
<sodipodi:namedview  bordercolor="#666666" borderopacity="1.0" id="base" inkscape:current-layer="layer1" inkscape:cx="229.85959" inkscape:cy="642.16241" inkscape:document-units="px" inkscape:pageopacity="0.0" inkscape:pageshadow="2" inkscape:window-height="1005" inkscape:window-maximized="1" inkscape:window-width="1920" inkscape:window-x="-9" inkscape:window-y="-9" inkscape:zoom="0.7" pagecolor="#ffffff" showgrid="false">
	</sodipodi:namedview>
<path id="path3781" inkscape:connector-curvature="0" class="st0" d="M165.6,5l-12,24.3l-26.8,3.9l19.3,18.9l-4.6,26.7l13.2-6.9
	c-10,21.1-54,113.4-56.2,118.6c-2.4,5.8-2.6,8.9-0.5,11.6s9.1,2,9.1,2S71.6,277,68.2,283.9s1.2,10,3.8,10.9s12.4,0.7,12.4,0.7
	s-32.2,68.6-33.3,71.7s0,6.2,1.6,7.9c1.6,1.7,7,1.7,7,1.7h85.5v41.4c12.6-0.2,20.9,1.5,41.8-2.4v-39h84.5c0,0,5.5,0,7-1.7
	c1.6-1.7,2.7-4.7,1.6-7.9c-1.1-3.1-33.3-71.7-33.3-71.7s9.9,0.2,12.4-0.7s7.1-4,3.8-10.9s-38.9-79.8-38.9-79.8s7,0.8,9.1-2
	s1.9-5.9-0.5-11.6c-2.2-5.1-46.1-97.3-56.2-118.5l13,6.8l-4.6-26.7l19.3-18.9l-26.8-3.9L165.4,5H165.6z M165.6,38.2
	c5.7,0,10.3,4.6,10.3,10.3s-4.6,10.3-10.3,10.3s-10.3-4.6-10.3-10.3S159.9,38.2,165.6,38.2z"/>
<path id="path6457" inkscape:connector-curvature="0" class="st1" d="M110.6,165l-14.2,7.1l14.2,7.1 M50.7,165l14.2,7.1l-14.2,7.1
	 M64.9,172.1h31.6"/>
<path id="path6459" inkscape:connector-curvature="0" class="st1" d="M110.6,186.3l-14.2,7.1l14.2,7.1 M50.7,186.3l14.2,7.1
	l-14.2,7.1 M64.9,193.4h31.6"/>
<path id="path6469" inkscape:connector-curvature="0" class="st1" d="M153.7,111.9l-14.2,7.1l14.2,7.1 M93.7,111.9l14.2,7.1
	l-14.2,7.1 M107.9,119h31.6"/>
<path id="path6471" inkscape:connector-curvature="0" class="st1" d="M153.7,133.1l-14.2,7.1l14.2,7.1 M93.7,133.1l14.2,7.1
	l-14.2,7.1 M107.9,140.2h31.6"/>
<path id="path6473" inkscape:connector-curvature="0" class="st1" d="M195.7,122.5l-14.2,7.1l14.2,7.1 M135.7,122.5l14.2,7.1
	l-14.2,7.1 M149.9,129.6h31.6"/>
<path id="path6475" inkscape:connector-curvature="0" class="st1" d="M195.7,143.8l-14.2,7.1l14.2,7.1 M135.7,143.8l14.2,7.1
	l-14.2,7.1 M149.9,150.9h31.6"/>
<path id="path6477" inkscape:connector-curvature="0" class="st1" d="M153.7,154.4l-14.2,7.1l14.2,7.1 M93.7,154.4l14.2,7.1
	l-14.2,7.1 M107.9,161.5h31.6"/>
<path id="path6479" inkscape:connector-curvature="0" class="st1" d="M153.7,175.7l-14.2,7.1l14.2,7.1 M93.7,175.7l14.2,7.1
	l-14.2,7.1 M107.9,182.7h31.6"/>
<path id="path6481" inkscape:connector-curvature="0" class="st1" d="M195.7,165l-14.2,7.1l14.2,7.1 M135.7,165l14.2,7.1l-14.2,7.1
	 M149.9,172.1h31.6"/>
<path id="path6483" inkscape:connector-curvature="0" class="st1" d="M195.7,186.3l-14.2,7.1l14.2,7.1 M135.7,186.3l14.2,7.1
	l-14.2,7.1 M149.9,193.4h31.6"/>
<path id="path6493" inkscape:connector-curvature="0" class="st1" d="M238.7,111.9l-14.2,7.1l14.2,7.1 M178.8,111.9L193,119
	l-14.2,7.1 M192.9,119h31.6"/>
<path id="path6495" inkscape:connector-curvature="0" class="st1" d="M238.7,133.1l-14.2,7.1l14.2,7.1 M178.8,133.1l14.2,7.1
	l-14.2,7.1 M192.9,140.2h31.6"/>
<path id="path6501" inkscape:connector-curvature="0" class="st1" d="M238.7,154.4l-14.2,7.1l14.2,7.1 M178.8,154.4l14.2,7.1
	l-14.2,7.1 M192.9,161.5h31.6"/>
<path id="path6503" inkscape:connector-curvature="0" class="st1" d="M238.7,175.7l-14.2,7.1l14.2,7.1 M178.8,175.7l14.2,7.1
	l-14.2,7.1 M192.9,182.7h31.6"/>
<path id="path6505" inkscape:connector-curvature="0" class="st1" d="M280.7,165l-14.2,7.1l14.2,7.1 M220.8,165l14.2,7.1l-14.2,7.1
	 M234.9,172.1h31.6"/>
<path id="path6507" inkscape:connector-curvature="0" class="st1" d="M280.7,186.3l-14.2,7.1l14.2,7.1 M220.8,186.3l14.2,7.1
	l-14.2,7.1 M234.9,193.4h31.6"/>
<path id="path6585" inkscape:connector-curvature="0" class="st1" d="M110.6,207.5l-14.2,7.1l14.2,7.1 M50.7,207.5l14.2,7.1
	l-14.2,7.1 M64.9,214.6h31.6"/>
<path id="path6587" inkscape:connector-curvature="0" class="st1" d="M110.6,228.8l-14.2,7.1l14.2,7.1 M50.7,228.8l14.2,7.1
	L50.7,243 M64.9,235.9h31.6"/>
<path id="path6593" inkscape:connector-curvature="0" class="st1" d="M110.6,250.1l-14.2,7.1l14.2,7.1 M50.7,250.1l14.2,7.1
	l-14.2,7.1 M64.9,257.2h31.6"/>
<path id="path6595" inkscape:connector-curvature="0" class="st1" d="M110.6,271.3l-14.2,7.1l14.2,7.1 M50.7,271.3l14.2,7.1
	l-14.2,7.1 M64.9,278.4h31.6"/>
<path id="path6601" inkscape:connector-curvature="0" class="st1" d="M110.6,292.6l-14.2,7.1l14.2,7.1 M50.7,292.6l14.2,7.1
	l-14.2,7.1 M64.9,299.7h31.6"/>
<path id="path6603" inkscape:connector-curvature="0" class="st1" d="M110.6,313.8l-14.2,7.1l14.2,7.1 M50.7,313.8l14.2,7.1
	L50.7,328 M64.9,320.9h31.6"/>
<path id="path6605" inkscape:connector-curvature="0" class="st1" d="M153.7,196.9l-14.2,7.1l14.2,7.1 M93.7,196.9l14.2,7.1
	l-14.2,7.1 M107.9,204h31.6"/>
<path id="path6607" inkscape:connector-curvature="0" class="st1" d="M153.7,218.2l-14.2,7.1l14.2,7.1 M93.7,218.2l14.2,7.1
	l-14.2,7.1 M107.9,225.3h31.6"/>
<path id="path6609" inkscape:connector-curvature="0" class="st1" d="M195.7,207.5l-14.2,7.1l14.2,7.1 M135.7,207.5l14.2,7.1
	l-14.2,7.1 M149.9,214.6h31.6"/>
<path id="path6611" inkscape:connector-curvature="0" class="st1" d="M195.7,228.8l-14.2,7.1l14.2,7.1 M135.7,228.8l14.2,7.1
	l-14.2,7.1 M149.9,235.9h31.6"/>
<path id="path6613" inkscape:connector-curvature="0" class="st1" d="M153.7,239.4l-14.2,7.1l14.2,7.1 M93.7,239.4l14.2,7.1
	l-14.2,7.1 M107.9,246.5h31.6"/>
<path id="path6615" inkscape:connector-curvature="0" class="st1" d="M153.7,260.7l-14.2,7.1l14.2,7.1 M93.7,260.7l14.2,7.1
	l-14.2,7.1 M107.9,267.8h31.6"/>
<path id="path6617" inkscape:connector-curvature="0" class="st1" d="M195.7,250.1l-14.2,7.1l14.2,7.1 M135.7,250.1l14.2,7.1
	l-14.2,7.1 M149.9,257.2h31.6"/>
<path id="path6619" inkscape:connector-curvature="0" class="st1" d="M195.7,271.3l-14.2,7.1l14.2,7.1 M135.7,271.3l14.2,7.1
	l-14.2,7.1 M149.9,278.4h31.6"/>
<path id="path6621" inkscape:connector-curvature="0" class="st1" d="M153.7,282l-14.2,7.1l14.2,7.1 M93.7,282l14.2,7.1l-14.2,7.1
	 M107.9,289h31.6"/>
<path id="path6623" inkscape:connector-curvature="0" class="st1" d="M153.7,303.2l-14.2,7.1l14.2,7.1 M93.7,303.2l14.2,7.1
	l-14.2,7.1 M107.9,310.3h31.6"/>
<path id="path6625" inkscape:connector-curvature="0" class="st1" d="M195.7,292.6l-14.2,7.1l14.2,7.1 M135.7,292.6l14.2,7.1
	l-14.2,7.1 M149.9,299.7h31.6"/>
<path id="path6627" inkscape:connector-curvature="0" class="st1" d="M195.7,313.8l-14.2,7.1l14.2,7.1 M135.7,313.8l14.2,7.1
	l-14.2,7.1 M149.9,320.9h31.6"/>
<path id="path6629" inkscape:connector-curvature="0" class="st1" d="M238.7,196.9l-14.2,7.1l14.2,7.1 M178.8,196.9L193,204
	l-14.2,7.1 M192.9,204h31.6"/>
<path id="path6631" inkscape:connector-curvature="0" class="st1" d="M238.7,218.2l-14.2,7.1l14.2,7.1 M178.8,218.2l14.2,7.1
	l-14.2,7.1 M192.9,225.3h31.6"/>
<path id="path6633" inkscape:connector-curvature="0" class="st1" d="M280.7,207.5l-14.2,7.1l14.2,7.1 M220.8,207.5l14.2,7.1
	l-14.2,7.1 M234.9,214.6h31.6"/>
<path id="path6635" inkscape:connector-curvature="0" class="st1" d="M280.7,228.8l-14.2,7.1l14.2,7.1 M220.8,228.8l14.2,7.1
	l-14.2,7.1 M234.9,235.9h31.6"/>
<path id="path6637" inkscape:connector-curvature="0" class="st1" d="M238.7,239.4l-14.2,7.1l14.2,7.1 M178.8,239.4l14.2,7.1
	l-14.2,7.1 M192.9,246.5h31.6"/>
<path id="path6639" inkscape:connector-curvature="0" class="st1" d="M238.7,260.7l-14.2,7.1l14.2,7.1 M178.8,260.7l14.2,7.1
	l-14.2,7.1 M192.9,267.8h31.6"/>
<path id="path6641" inkscape:connector-curvature="0" class="st1" d="M280.7,250.1l-14.2,7.1l14.2,7.1 M220.8,250.1l14.2,7.1
	l-14.2,7.1 M234.9,257.2h31.6"/>
<path id="path6643" inkscape:connector-curvature="0" class="st1" d="M280.7,271.3l-14.2,7.1l14.2,7.1 M220.8,271.3l14.2,7.1
	l-14.2,7.1 M234.9,278.4h31.6"/>
<path id="path6645" inkscape:connector-curvature="0" class="st1" d="M238.7,282l-14.2,7.1l14.2,7.1 M178.8,282l14.2,7.1l-14.2,7.1
	 M192.9,289h31.6"/>
<path id="path6647" inkscape:connector-curvature="0" class="st1" d="M238.7,303.2l-14.2,7.1l14.2,7.1 M178.8,303.2l14.2,7.1
	l-14.2,7.1 M192.9,310.3h31.6"/>
<path id="path6649" inkscape:connector-curvature="0" class="st1" d="M280.7,292.6l-14.2,7.1l14.2,7.1 M220.8,292.6l14.2,7.1
	l-14.2,7.1 M234.9,299.7h31.6"/>
<path id="path6651" inkscape:connector-curvature="0" class="st1" d="M280.7,313.8l-14.2,7.1l14.2,7.1 M220.8,313.8l14.2,7.1
	l-14.2,7.1 M234.9,320.9h31.6"/>
<path id="path10050" inkscape:connector-curvature="0" class="st1" d="M110.6,335.1l-14.2,7.1l14.2,7.1 M50.7,335.1l14.2,7.1
	l-14.2,7.1 M64.9,342.2h31.6"/>
<path id="path10052" inkscape:connector-curvature="0" class="st1" d="M68.6,345.7l-14.2,7.1l14.2,7.1 M8.7,345.7l14.2,7.1
	l-14.2,7.1 M22.9,352.8h31.6"/>
<path id="path10056" inkscape:connector-curvature="0" class="st1" d="M110.6,356.4l-14.2,7.1l14.2,7.1 M50.7,356.4l14.2,7.1
	l-14.2,7.1 M64.9,363.5h31.6"/>
<path id="path10068" inkscape:connector-curvature="0" class="st1" d="M153.7,324.5l-14.2,7.1l14.2,7.1 M93.7,324.5l14.2,7.1
	l-14.2,7.1 M107.9,331.6h31.6"/>
<path id="path10070" inkscape:connector-curvature="0" class="st1" d="M195.7,335.1l-14.2,7.1l14.2,7.1 M135.7,335.1l14.2,7.1
	l-14.2,7.1 M149.9,342.2h31.6"/>
<path id="path10072" inkscape:connector-curvature="0" class="st1" d="M153.7,345.7l-14.2,7.1l14.2,7.1 M93.7,345.7l14.2,7.1
	l-14.2,7.1 M107.9,352.8h31.6"/>
<path id="path10076" inkscape:connector-curvature="0" class="st1" d="M195.7,356.4l-14.2,7.1l14.2,7.1 M135.7,356.4l14.2,7.1
	l-14.2,7.1 M149.9,363.5h31.6"/>
<path id="path10088" inkscape:connector-curvature="0" class="st1" d="M238.7,324.5l-14.2,7.1l14.2,7.1 M178.8,324.5l14.2,7.1
	l-14.2,7.1 M192.9,331.6h31.6"/>
<path id="path10090" inkscape:connector-curvature="0" class="st1" d="M280.7,335.1l-14.2,7.1l14.2,7.1 M220.8,335.1l14.2,7.1
	l-14.2,7.1 M234.9,342.2h31.6"/>
<path id="path10092" inkscape:connector-curvature="0" class="st1" d="M238.7,345.7l-14.2,7.1l14.2,7.1 M178.8,345.7l14.2,7.1
	l-14.2,7.1 M192.9,352.8h31.6"/>
<path id="path10096" inkscape:connector-curvature="0" class="st1" d="M280.7,356.4l-14.2,7.1l14.2,7.1 M220.8,356.4l14.2,7.1
	l-14.2,7.1 M234.9,363.5h31.6"/>
<path id="path10112" inkscape:connector-curvature="0" class="st1" d="M323.8,345.7l-14.2,7.1l14.2,7.1 M263.8,345.7l14.2,7.1
	l-14.2,7.1 M278,352.8h31.6"/>
<path id="path3933" inkscape:connector-curvature="0" class="st0" d="M376.2,10.8h-4.3c-20,0.8-35.1,8.2-35.9,20.2
	c-1,13.6,21.9,27.3,32,29.8c4.6,1.1,13.4,2.5,22.1,3.5c-46,18.1-78.6,63-78.6,115.4s55.5,124,124,124s124-55.5,124-124
	S527,82.4,481,64.3c8.7-1,17.5-2.4,22.1-3.5c10.1-2.5,33-16.2,32-29.8c-0.9-11.9-15.9-19.3-35.9-20.2c-2.9-0.1-5.8,0-8.8,0
	c-19.3,1-28.4,17.7-33,29.2c-4.9-6.8-12.8-11.2-21.8-11.2s-16.9,4.4-21.8,11.2c-4.6-11.6-13.6-28.2-33-29.2c-1.5,0-3-0.1-4.5-0.2
	l0,0v0.2L376.2,10.8L376.2,10.8z M376.1,25.1c1.3,0,2.5,0,3.8,0.1c7.1,0.4,10.8,3.6,14.7,9.2c3.6,5.2,6,11.6,7.9,16.8
	c-2.6-0.2-5.1-0.4-8.2-0.8c-9.1-1-19.7-2.7-22.9-3.5c-1.6-0.4-9.6-4-14.8-8.1s-6.5-5.5-6.3-6.6c0-0.2,0.3-1.7,3.2-2.9
	c3.8-1.6,10.6-3.8,18.9-4.2L376.1,25.1L376.1,25.1L376.1,25.1z M494.9,25.1h3.7c8.4,0.3,15.1,2.6,18.9,4.2c2.9,1.2,3.2,2.7,3.2,2.9
	c0,1.1-1.1,2.5-6.3,6.6s-13.1,7.7-14.8,8.1c-3.2,0.8-13.8,2.4-22.9,3.5c-3.1,0.3-5.6,0.5-8.2,0.8c1.9-5.2,4.3-11.6,7.9-16.8
	c3.9-5.6,7.6-8.8,14.7-9.2C492.4,25.2,493.7,25.1,494.9,25.1L494.9,25.1L494.9,25.1z M435.5,41.7c7.8,0,14.2,6.3,14.2,14.2
	s0,0.5,0,0.8c-4.6-0.5-9.3-0.8-14.1-0.8s-9.5,0.3-14.1,0.8v-0.8c0-7.8,6.4-14.2,14.2-14.2H435.5z"/>
<path id="path6427" inkscape:connector-curvature="0" class="st1" d="M337.6,106.4l-14.2,7.1l14.2,7.1 M277.7,106.4l14.2,7.1
	l-14.2,7.1 M291.9,113.5h31.6"/>
<path id="path6433" inkscape:connector-curvature="0" class="st1" d="M337.6,127.7l-14.2,7.1l14.2,7.1 M277.7,127.7l14.2,7.1
	l-14.2,7.1 M291.9,134.8h31.6"/>
<path id="path6435" inkscape:connector-curvature="0" class="st1" d="M337.6,149l-14.2,7.1l14.2,7.1 M277.7,149l14.2,7.1l-14.2,7.1
	 M291.9,156h31.6"/>
<path id="path6445" inkscape:connector-curvature="0" class="st1" d="M380.7,74.5l-14.2,7.1l14.2,7.1 M320.7,74.5l14.2,7.1
	l-14.2,7.1 M334.9,81.6h31.6"/>
<path id="path6447" inkscape:connector-curvature="0" class="st1" d="M380.7,95.8l-14.2,7.1l14.2,7.1 M320.7,95.8l14.2,7.1
	l-14.2,7.1 M334.9,102.9h31.6"/>
<path id="path6449" inkscape:connector-curvature="0" class="st1" d="M422.7,85.2l-14.2,7.1l14.2,7.1 M362.7,85.2l14.2,7.1
	l-14.2,7.1 M376.9,92.3h31.6"/>
<path id="path6451" inkscape:connector-curvature="0" class="st1" d="M422.7,106.4l-14.2,7.1l14.2,7.1 M362.7,106.4l14.2,7.1
	l-14.2,7.1 M376.9,113.5h31.6"/>
<path id="path6453" inkscape:connector-curvature="0" class="st1" d="M380.7,117.1l-14.2,7.1l14.2,7.1 M320.7,117.1l14.2,7.1
	l-14.2,7.1 M334.9,124.2h31.6"/>
<path id="path6455" inkscape:connector-curvature="0" class="st1" d="M380.7,138.3l-14.2,7.1l14.2,7.1 M320.7,138.3l14.2,7.1
	l-14.2,7.1 M334.9,145.4h31.6"/>
<path id="path6457-1" inkscape:connector-curvature="0" class="st1" d="M422.7,127.7l-14.2,7.1l14.2,7.1 M362.7,127.7l14.2,7.1
	l-14.2,7.1 M376.9,134.8h31.6"/>
<path id="path6459-7" inkscape:connector-curvature="0" class="st1" d="M422.7,149l-14.2,7.1l14.2,7.1 M362.7,149l14.2,7.1
	l-14.2,7.1 M376.9,156h31.6"/>
<path id="path6469-4" inkscape:connector-curvature="0" class="st1" d="M465.7,74.5l-14.2,7.1l14.2,7.1 M405.8,74.5l14.2,7.1
	l-14.2,7.1 M419.9,81.6h31.6"/>
<path id="path6471-0" inkscape:connector-curvature="0" class="st1" d="M465.7,95.8l-14.2,7.1l14.2,7.1 M405.8,95.8l14.2,7.1
	l-14.2,7.1 M419.9,102.9h31.6"/>
<path id="path6473-9" inkscape:connector-curvature="0" class="st1" d="M507.7,85.2l-14.2,7.1l14.2,7.1 M447.8,85.2l14.2,7.1
	l-14.2,7.1 M461.9,92.3h31.6"/>
<path id="path6475-4" inkscape:connector-curvature="0" class="st1" d="M507.7,106.4l-14.2,7.1l14.2,7.1 M447.8,106.4l14.2,7.1
	l-14.2,7.1 M461.9,113.5h31.6"/>
<path id="path6477-8" inkscape:connector-curvature="0" class="st1" d="M465.7,117.1l-14.2,7.1l14.2,7.1 M405.8,117.1l14.2,7.1
	l-14.2,7.1 M419.9,124.2h31.6"/>
<path id="path6479-8" inkscape:connector-curvature="0" class="st1" d="M465.7,138.3l-14.2,7.1l14.2,7.1 M405.8,138.3l14.2,7.1
	l-14.2,7.1 M419.9,145.4h31.6"/>
<path id="path6481-2" inkscape:connector-curvature="0" class="st1" d="M507.7,127.7l-14.2,7.1l14.2,7.1 M447.8,127.7l14.2,7.1
	l-14.2,7.1 M461.9,134.8h31.6"/>
<path id="path6483-4" inkscape:connector-curvature="0" class="st1" d="M507.7,149l-14.2,7.1l14.2,7.1 M447.8,149l14.2,7.1
	l-14.2,7.1 M461.9,156h31.6"/>
<path id="path6493-5" inkscape:connector-curvature="0" class="st1" d="M550.8,74.5l-14.2,7.1l14.2,7.1 M490.8,74.5l14.2,7.1
	l-14.2,7.1 M505,81.6h31.6"/>
<path id="path6495-5" inkscape:connector-curvature="0" class="st1" d="M550.8,95.8l-14.2,7.1l14.2,7.1 M490.8,95.8l14.2,7.1
	l-14.2,7.1 M505,102.9h31.6"/>
<path id="path6499" inkscape:connector-curvature="0" class="st1" d="M592.8,106.4l-14.2,7.1l14.2,7.1 M532.8,106.4l14.2,7.1
	l-14.2,7.1 M547,113.5h31.6"/>
<path id="path6501-1" inkscape:connector-curvature="0" class="st1" d="M550.8,117.1l-14.2,7.1l14.2,7.1 M490.8,117.1l14.2,7.1
	l-14.2,7.1 M505,124.2h31.6"/>
<path id="path6503-7" inkscape:connector-curvature="0" class="st1" d="M550.8,138.3l-14.2,7.1l14.2,7.1 M490.8,138.3l14.2,7.1
	l-14.2,7.1 M505,145.4h31.6"/>
<path id="path6505-1" inkscape:connector-curvature="0" class="st1" d="M592.8,127.7l-14.2,7.1l14.2,7.1 M532.8,127.7l14.2,7.1
	l-14.2,7.1 M547,134.8h31.6"/>
<path id="path6507-1" inkscape:connector-curvature="0" class="st1" d="M592.8,149l-14.2,7.1l14.2,7.1 M532.8,149l14.2,7.1
	l-14.2,7.1 M547,156h31.6"/>
<path id="path6561" inkscape:connector-curvature="0" class="st1" d="M337.6,170.2l-14.2,7.1l14.2,7.1 M277.7,170.2l14.2,7.1
	l-14.2,7.1 M291.9,177.3h31.6"/>
<path id="path6563" inkscape:connector-curvature="0" class="st1" d="M337.6,191.5l-14.2,7.1l14.2,7.1 M277.7,191.5l14.2,7.1
	l-14.2,7.1 M291.9,198.6h31.6"/>
<path id="path6569" inkscape:connector-curvature="0" class="st1" d="M337.6,212.7l-14.2,7.1l14.2,7.1 M277.7,212.7l14.2,7.1
	l-14.2,7.1 M291.9,219.8h31.6"/>
<path id="path6571" inkscape:connector-curvature="0" class="st1" d="M337.6,234l-14.2,7.1l14.2,7.1 M277.7,234l14.2,7.1l-14.2,7.1
	 M291.9,241.1h31.6"/>
<path id="path6581" inkscape:connector-curvature="0" class="st1" d="M380.7,159.6l-14.2,7.1l14.2,7.1 M320.7,159.6l14.2,7.1
	l-14.2,7.1 M334.9,166.7h31.6"/>
<path id="path6583" inkscape:connector-curvature="0" class="st1" d="M380.7,180.8l-14.2,7.1l14.2,7.1 M320.7,180.8l14.2,7.1
	l-14.2,7.1 M334.9,187.9h31.6"/>
<path id="path6585-5" inkscape:connector-curvature="0" class="st1" d="M422.7,170.2l-14.2,7.1l14.2,7.1 M362.7,170.2l14.2,7.1
	l-14.2,7.1 M376.9,177.3h31.6"/>
<path id="path6587-2" inkscape:connector-curvature="0" class="st1" d="M422.7,191.5l-14.2,7.1l14.2,7.1 M362.7,191.5l14.2,7.1
	l-14.2,7.1 M376.9,198.6h31.6"/>
<path id="path6589" inkscape:connector-curvature="0" class="st1" d="M380.7,202.1l-14.2,7.1l14.2,7.1 M320.7,202.1l14.2,7.1
	l-14.2,7.1 M334.9,209.2h31.6"/>
<path id="path6591" inkscape:connector-curvature="0" class="st1" d="M380.7,223.4l-14.2,7.1l14.2,7.1 M320.7,223.4l14.2,7.1
	l-14.2,7.1 M334.9,230.5h31.6"/>
<path id="path6593-7" inkscape:connector-curvature="0" class="st1" d="M422.7,212.7l-14.2,7.1l14.2,7.1 M362.7,212.7l14.2,7.1
	l-14.2,7.1 M376.9,219.8h31.6"/>
<path id="path6595-6" inkscape:connector-curvature="0" class="st1" d="M422.7,234l-14.2,7.1l14.2,7.1 M362.7,234l14.2,7.1
	l-14.2,7.1 M376.9,241.1h31.6"/>
<path id="path6597" inkscape:connector-curvature="0" class="st1" d="M380.7,244.6l-14.2,7.1l14.2,7.1 M320.7,244.6l14.2,7.1
	l-14.2,7.1 M334.9,251.7h31.6"/>
<path id="path6599" inkscape:connector-curvature="0" class="st1" d="M380.7,265.9l-14.2,7.1l14.2,7.1 M320.7,265.9l14.2,7.1
	l-14.2,7.1 M334.9,273h31.6"/>
<path id="path6601-1" inkscape:connector-curvature="0" class="st1" d="M422.7,255.3l-14.2,7.1l14.2,7.1 M362.7,255.3l14.2,7.1
	l-14.2,7.1 M376.9,262.3h31.6"/>
<path id="path6603-4" inkscape:connector-curvature="0" class="st1" d="M422.7,276.5l-14.2,7.1l14.2,7.1 M362.7,276.5l14.2,7.1
	l-14.2,7.1 M376.9,283.6h31.6"/>
<path id="path6605-2" inkscape:connector-curvature="0" class="st1" d="M465.7,159.6l-14.2,7.1l14.2,7.1 M405.8,159.6l14.2,7.1
	l-14.2,7.1 M419.9,166.7h31.6"/>
<path id="path6607-3" inkscape:connector-curvature="0" class="st1" d="M465.7,180.8l-14.2,7.1l14.2,7.1 M405.8,180.8l14.2,7.1
	l-14.2,7.1 M419.9,187.9h31.6"/>
<path id="path6609-2" inkscape:connector-curvature="0" class="st1" d="M507.7,170.2l-14.2,7.1l14.2,7.1 M447.8,170.2l14.2,7.1
	l-14.2,7.1 M461.9,177.3h31.6"/>
<path id="path6611-2" inkscape:connector-curvature="0" class="st1" d="M507.7,191.5l-14.2,7.1l14.2,7.1 M447.8,191.5l14.2,7.1
	l-14.2,7.1 M461.9,198.6h31.6"/>
<path id="path6613-1" inkscape:connector-curvature="0" class="st1" d="M465.7,202.1l-14.2,7.1l14.2,7.1 M405.8,202.1l14.2,7.1
	l-14.2,7.1 M419.9,209.2h31.6"/>
<path id="path6615-6" inkscape:connector-curvature="0" class="st1" d="M465.7,223.4l-14.2,7.1l14.2,7.1 M405.8,223.4l14.2,7.1
	l-14.2,7.1 M419.9,230.5h31.6"/>
<path id="path6617-8" inkscape:connector-curvature="0" class="st1" d="M507.7,212.7l-14.2,7.1l14.2,7.1 M447.8,212.7l14.2,7.1
	l-14.2,7.1 M461.9,219.8h31.6"/>
<path id="path6619-5" inkscape:connector-curvature="0" class="st1" d="M507.7,234l-14.2,7.1l14.2,7.1 M447.8,234l14.2,7.1
	l-14.2,7.1 M461.9,241.1h31.6"/>
<path id="path6621-7" inkscape:connector-curvature="0" class="st1" d="M465.7,244.6l-14.2,7.1l14.2,7.1 M405.8,244.6l14.2,7.1
	l-14.2,7.1 M419.9,251.7h31.6"/>
<path id="path6623-6" inkscape:connector-curvature="0" class="st1" d="M465.7,265.9l-14.2,7.1l14.2,7.1 M405.8,265.9L420,273
	l-14.2,7.1 M419.9,273h31.6"/>
<path id="path6625-1" inkscape:connector-curvature="0" class="st1" d="M507.7,255.3l-14.2,7.1l14.2,7.1 M447.8,255.3l14.2,7.1
	l-14.2,7.1 M461.9,262.3h31.6"/>
<path id="path6627-8" inkscape:connector-curvature="0" class="st1" d="M507.7,276.5l-14.2,7.1l14.2,7.1 M447.8,276.5l14.2,7.1
	l-14.2,7.1 M461.9,283.6h31.6"/>
<path id="path6629-9" inkscape:connector-curvature="0" class="st1" d="M550.8,159.6l-14.2,7.1l14.2,7.1 M490.8,159.6l14.2,7.1
	l-14.2,7.1 M505,166.7h31.6"/>
<path id="path6631-2" inkscape:connector-curvature="0" class="st1" d="M550.8,180.8l-14.2,7.1l14.2,7.1 M490.8,180.8l14.2,7.1
	l-14.2,7.1 M505,187.9h31.6"/>
<path id="path6633-7" inkscape:connector-curvature="0" class="st1" d="M592.8,170.2l-14.2,7.1l14.2,7.1 M532.8,170.2l14.2,7.1
	l-14.2,7.1 M547,177.3h31.6"/>
<path id="path6635-9" inkscape:connector-curvature="0" class="st1" d="M592.8,191.5l-14.2,7.1l14.2,7.1 M532.8,191.5l14.2,7.1
	l-14.2,7.1 M547,198.6h31.6"/>
<path id="path6637-5" inkscape:connector-curvature="0" class="st1" d="M550.8,202.1l-14.2,7.1l14.2,7.1 M490.8,202.1l14.2,7.1
	l-14.2,7.1 M505,209.2h31.6"/>
<path id="path6639-4" inkscape:connector-curvature="0" class="st1" d="M550.8,223.4l-14.2,7.1l14.2,7.1 M490.8,223.4l14.2,7.1
	l-14.2,7.1 M505,230.5h31.6"/>
<path id="path6641-3" inkscape:connector-curvature="0" class="st1" d="M592.8,212.7l-14.2,7.1l14.2,7.1 M532.8,212.7l14.2,7.1
	l-14.2,7.1 M547,219.8h31.6"/>
<path id="path6643-1" inkscape:connector-curvature="0" class="st1" d="M592.8,234l-14.2,7.1l14.2,7.1 M532.8,234l14.2,7.1
	l-14.2,7.1 M547,241.1h31.6"/>
<path id="path6645-2" inkscape:connector-curvature="0" class="st1" d="M550.8,244.6l-14.2,7.1l14.2,7.1 M490.8,244.6l14.2,7.1
	l-14.2,7.1 M505,251.7h31.6"/>
<path id="path6647-3" inkscape:connector-curvature="0" class="st1" d="M550.8,265.9l-14.2,7.1l14.2,7.1 M490.8,265.9L505,273
	l-14.2,7.1 M505,273h31.6"/>
<path id="path10048" inkscape:connector-curvature="0" class="st1" d="M380.7,287.1l-14.2,7.1l14.2,7.1 M320.7,287.1l14.2,7.1
	l-14.2,7.1 M334.9,294.2h31.6"/>
<path id="path10050-3" inkscape:connector-curvature="0" class="st1" d="M422.7,297.8l-14.2,7.1l14.2,7.1 M362.7,297.8l14.2,7.1
	l-14.2,7.1 M376.9,304.9h31.6"/>
<path id="path10068-4" inkscape:connector-curvature="0" class="st1" d="M465.7,287.1l-14.2,7.1l14.2,7.1 M405.8,287.1l14.2,7.1
	l-14.2,7.1 M419.9,294.2h31.6"/>
<path id="path10070-1" inkscape:connector-curvature="0" class="st1" d="M507.7,297.8l-14.2,7.1l14.2,7.1 M447.8,297.8l14.2,7.1
	l-14.2,7.1 M461.9,304.9h31.6"/>
<path id="path10088-1" inkscape:connector-curvature="0" class="st1" d="M550.8,287.1l-14.2,7.1l14.2,7.1 M490.8,287.1l14.2,7.1
	l-14.2,7.1 M505,294.2h31.6"/>
<path id="path3933-3" inkscape:connector-curvature="0" class="st0" d="M100.7,408.7h-4.3c-20,0.8-35.1,8.2-35.9,20.2
	c-1,13.6,21.9,27.3,32,29.8c4.6,1.1,13.4,2.5,22.1,3.5c-46,18.1-78.6,63-78.6,115.4s55.5,124,124,124s124-55.5,124-124
	s-32.5-97.3-78.5-115.4c8.7-1,17.5-2.4,22.1-3.5c10.1-2.5,33-16.2,32-29.8c-0.9-11.9-15.9-19.3-35.9-20.2c-2.9-0.1-5.8,0-8.8,0
	c-19.3,1-28.4,17.7-33,29.2c-4.9-6.8-12.8-11.2-21.8-11.2s-16.9,4.4-21.8,11.2c-4.6-11.6-13.6-28.2-33-29.2c-1.5,0-3-0.1-4.5-0.2
	l0,0v0.2L100.7,408.7L100.7,408.7z M100.6,423.1c1.3,0,2.5,0,3.8,0.1c7.1,0.4,10.8,3.6,14.7,9.2c3.6,5.2,6,11.6,7.9,16.8
	c-2.6-0.2-5.1-0.4-8.2-0.8c-9.1-1-19.7-2.7-22.9-3.5c-1.6-0.4-9.6-4-14.8-8.1c-5.2-4.1-6.5-5.5-6.3-6.6c0-0.2,0.3-1.7,3.2-2.9
	c3.8-1.6,10.6-3.8,18.9-4.2C96.9,423.1,100.6,423.1,100.6,423.1z M219.4,423.1h3.7c8.4,0.3,15.1,2.6,18.9,4.2
	c2.9,1.2,3.2,2.7,3.2,2.9c0.1,1.1-1.1,2.5-6.3,6.6s-13.1,7.7-14.8,8.1c-3.2,0.8-13.8,2.4-22.9,3.5c-3.1,0.3-5.6,0.5-8.2,0.8
	c1.9-5.2,4.3-11.6,7.9-16.8c3.9-5.6,7.6-8.8,14.7-9.2C216.9,423.2,218.2,423.1,219.4,423.1L219.4,423.1L219.4,423.1z M160,439.6
	c7.8,0,14.2,6.3,14.2,14.2s0,0.5,0,0.8c-4.6-0.5-9.3-0.8-14.1-0.8s-9.5,0.3-14.1,0.8v-0.8c0-7.8,6.4-14.2,14.2-14.2H160L160,439.6
	L160,439.6z"/>
<path id="path3976" inkscape:connector-curvature="0" class="st1" d="M42.9,478.5h70.9"/>
<path id="path3988" inkscape:connector-curvature="0" class="st1" d="M42.9,496.2h70.9"/>
<path id="path3990" inkscape:connector-curvature="0" class="st1" d="M83.6,487.4h70.9"/>
<path id="path3992" inkscape:connector-curvature="0" class="st1" d="M124.4,496.2h70.9"/>
<path id="path3998" inkscape:connector-curvature="0" class="st1" d="M2.1,505.1H73"/>
<path id="path4000" inkscape:connector-curvature="0" class="st1" d="M42.9,513.9h70.9"/>
<path id="path4002" inkscape:connector-curvature="0" class="st1" d="M83.6,505.1h70.9"/>
<path id="path4004" inkscape:connector-curvature="0" class="st1" d="M124.4,513.9h70.9"/>
<path id="path4010" inkscape:connector-curvature="0" class="st1" d="M2.1,522.8H73"/>
<path id="path4012" inkscape:connector-curvature="0" class="st1" d="M42.9,531.6h70.9"/>
<path id="path4014" inkscape:connector-curvature="0" class="st1" d="M83.6,522.8h70.9"/>
<path id="path4016" inkscape:connector-curvature="0" class="st1" d="M124.4,531.6h70.9"/>
<path id="path4022" inkscape:connector-curvature="0" class="st1" d="M2.1,540.5H73"/>
<path id="path4024" inkscape:connector-curvature="0" class="st1" d="M42.9,549.4h70.9"/>
<path id="path4026" inkscape:connector-curvature="0" class="st1" d="M83.6,540.5h70.9"/>
<path id="path4028" inkscape:connector-curvature="0" class="st1" d="M124.4,549.4h70.9"/>
<path id="path4034" inkscape:connector-curvature="0" class="st1" d="M2.1,558.2H73"/>
<path id="path4036" inkscape:connector-curvature="0" class="st1" d="M42.9,567.1h70.9"/>
<path id="path4038" inkscape:connector-curvature="0" class="st1" d="M83.6,558.2h70.9"/>
<path id="path4040" inkscape:connector-curvature="0" class="st1" d="M124.4,567.1h70.9"/>
<path id="path4046" inkscape:connector-curvature="0" class="st1" d="M2.1,575.9H73"/>
<path id="path4048" inkscape:connector-curvature="0" class="st1" d="M42.9,584.8h70.9"/>
<path id="path4050" inkscape:connector-curvature="0" class="st1" d="M83.6,575.9h70.9"/>
<path id="path4052" inkscape:connector-curvature="0" class="st1" d="M124.4,584.8h70.9"/>
<path id="path4058" inkscape:connector-curvature="0" class="st1" d="M2.1,593.7H73"/>
<path id="path4060" inkscape:connector-curvature="0" class="st1" d="M42.9,602.5h70.9"/>
<path id="path4062" inkscape:connector-curvature="0" class="st1" d="M83.6,593.7h70.9"/>
<path id="path4064" inkscape:connector-curvature="0" class="st1" d="M124.4,602.5h70.9"/>
<path id="path4070" inkscape:connector-curvature="0" class="st1" d="M2.1,611.4H73"/>
<path id="path4072" inkscape:connector-curvature="0" class="st1" d="M42.9,620.2h70.9"/>
<path id="path4074" inkscape:connector-curvature="0" class="st1" d="M83.6,611.4h70.9"/>
<path id="path4076" inkscape:connector-curvature="0" class="st1" d="M124.4,620.2h70.9"/>
<path id="path4082" inkscape:connector-curvature="0" class="st1" d="M2.1,629.1H73"/>
<path id="path4084" inkscape:connector-curvature="0" class="st1" d="M42.9,637.9h70.9"/>
<path id="path4086" inkscape:connector-curvature="0" class="st1" d="M83.6,629.1h70.9"/>
<path id="path4088" inkscape:connector-curvature="0" class="st1" d="M124.4,637.9h70.9"/>
<path id="path4092" inkscape:connector-curvature="0" class="st1" d="M205.9,478.5h70.9"/>
<path id="path4102" inkscape:connector-curvature="0" class="st1" d="M165.1,487.4H236"/>
<path id="path4104" inkscape:connector-curvature="0" class="st1" d="M205.9,496.2h70.9"/>
<path id="path4114" inkscape:connector-curvature="0" class="st1" d="M165.1,505.1H236"/>
<path id="path4116" inkscape:connector-curvature="0" class="st1" d="M205.9,513.9h70.9"/>
<path id="path4118" inkscape:connector-curvature="0" class="st1" d="M246.6,505.1h70.9"/>
<path id="path4126" inkscape:connector-curvature="0" class="st1" d="M165.1,522.8H236"/>
<path id="path4128" inkscape:connector-curvature="0" class="st1" d="M205.9,531.6h70.9"/>
<path id="path4130" inkscape:connector-curvature="0" class="st1" d="M246.6,522.8h70.9"/>
<path id="path4138" inkscape:connector-curvature="0" class="st1" d="M165.1,540.5H236"/>
<path id="path4140" inkscape:connector-curvature="0" class="st1" d="M205.9,549.4h70.9"/>
<path id="path4142" inkscape:connector-curvature="0" class="st1" d="M246.6,540.5h70.9"/>
<path id="path4150" inkscape:connector-curvature="0" class="st1" d="M165.1,558.2H236"/>
<path id="path4152" inkscape:connector-curvature="0" class="st1" d="M205.9,567.1h70.9"/>
<path id="path4154" inkscape:connector-curvature="0" class="st1" d="M246.6,558.2h70.9"/>
<path id="path4162" inkscape:connector-curvature="0" class="st1" d="M165.1,575.9H236"/>
<path id="path4164" inkscape:connector-curvature="0" class="st1" d="M205.9,584.8h70.9"/>
<path id="path4166" inkscape:connector-curvature="0" class="st1" d="M246.6,575.9h70.9"/>
<path id="path4174" inkscape:connector-curvature="0" class="st1" d="M165.1,593.7H236"/>
<path id="path4176" inkscape:connector-curvature="0" class="st1" d="M205.9,602.5h70.9"/>
<path id="path4178" inkscape:connector-curvature="0" class="st1" d="M246.6,593.7h70.9"/>
<path id="path4186" inkscape:connector-curvature="0" class="st1" d="M165.1,611.4H236"/>
<path id="path4188" inkscape:connector-curvature="0" class="st1" d="M205.9,620.2h70.9"/>
<path id="path4190" inkscape:connector-curvature="0" class="st1" d="M246.6,611.4h70.9"/>
<path id="path4198" inkscape:connector-curvature="0" class="st1" d="M165.1,629.1H236"/>
<path id="path4200" inkscape:connector-curvature="0" class="st1" d="M205.9,637.9h70.9"/>
<path id="path4202" inkscape:connector-curvature="0" class="st1" d="M246.6,629.1h70.9"/>
<path id="path4214" inkscape:connector-curvature="0" class="st1" d="M2.1,646.8H73"/>
<path id="path4216" inkscape:connector-curvature="0" class="st1" d="M42.9,655.7h70.9"/>
<path id="path4218" inkscape:connector-curvature="0" class="st1" d="M83.6,646.8h70.9"/>
<path id="path4220" inkscape:connector-curvature="0" class="st1" d="M124.4,655.7h70.9"/>
<path id="path4228" inkscape:connector-curvature="0" class="st1" d="M42.9,673.4h70.9"/>
<path id="path4230" inkscape:connector-curvature="0" class="st1" d="M83.6,664.5h70.9"/>
<path id="path4232" inkscape:connector-curvature="0" class="st1" d="M124.4,673.4h70.9"/>
<path id="path4240" inkscape:connector-curvature="0" class="st1" d="M42.9,691.1h70.9"/>
<path id="path4242" inkscape:connector-curvature="0" class="st1" d="M83.6,682.2h70.9"/>
<path id="path4244" inkscape:connector-curvature="0" class="st1" d="M124.4,691.1h70.9"/>
<path id="path4330" inkscape:connector-curvature="0" class="st1" d="M165.1,646.8H236"/>
<path id="path4332" inkscape:connector-curvature="0" class="st1" d="M205.9,655.7h70.9"/>
<path id="path4334" inkscape:connector-curvature="0" class="st1" d="M246.6,646.8h70.9"/>
<path id="path4342" inkscape:connector-curvature="0" class="st1" d="M165.1,664.5H236"/>
<path id="path4344" inkscape:connector-curvature="0" class="st1" d="M205.9,673.4h70.9"/>
<path id="path4354" inkscape:connector-curvature="0" class="st1" d="M165.1,682.2H236"/>
<path id="path4356" inkscape:connector-curvature="0" class="st1" d="M205.9,691.1h70.9"/>
<path id="path3935" inkscape:connector-curvature="0" class="st0" d="M460.4,317.8h-4.3c-20,0.8-35.1,8.2-35.9,20.2
	c-1,13.6,21.9,27.3,32,29.8c6.3,1.6,20.7,3.5,31.6,4.5c-7.3,0.8-15.3,2.1-23.4,4.4c-30.8,8.9-85,28.4-87.1,93.6
	c-2.2,65.1,29.2,83.9,35.2,88.7c17.1,13.7,67.3,31.2,111.1,73.6c43.8-42.4,94-59.9,111.1-73.6c6-4.8,37.4-23.5,35.2-88.7
	c-2.2-65.1-55.8-86.8-87.1-93.6c-9.9-2.2-18.6-3.4-26.1-4.2c11.1-0.9,27.8-3,34.8-4.8c10.1-2.5,33-16.2,32-29.8
	c-0.9-11.9-15.9-19.3-35.9-20.2c-2.9-0.1-5.8,0-8.8,0c-19.3,1-28.4,17.7-33,29.2c-4.9-6.8-12.8-11.2-21.8-11.2s-16.9,4.4-21.8,11.2
	c-4.6-11.6-13.6-28.2-33-29.2c-1.5,0-3-0.1-4.5-0.2l0,0L460.4,317.8L460.4,317.8L460.4,317.8z M460.3,332.1c1.3,0,2.5,0,3.8,0.1
	c7.1,0.4,10.8,3.6,14.7,9.2c3.6,5.2,6,11.6,7.9,16.8c-2.6-0.2-5.1-0.4-8.2-0.8c-9.1-1-19.7-2.7-22.9-3.5c-1.6-0.4-9.6-4-14.8-8.1
	s-6.5-5.5-6.3-6.6c0-0.2,0.3-1.7,3.2-2.9c3.8-1.6,10.6-3.8,18.9-4.2H460.3L460.3,332.1L460.3,332.1z M579.1,332.1h3.7
	c8.4,0.3,15.1,2.6,18.9,4.2c2.9,1.2,3.2,2.7,3.2,2.9c0,1.1-1.1,2.5-6.3,6.6s-13.1,7.7-14.8,8.1c-3.2,0.8-13.8,2.4-22.9,3.5
	c-3.1,0.3-5.6,0.5-8.2,0.8c1.9-5.2,4.3-11.6,7.9-16.8c3.9-5.6,7.6-8.8,14.7-9.2C576.6,332.2,577.9,332.1,579.1,332.1L579.1,332.1
	L579.1,332.1z M519.7,348.7c7.8,0,14.2,6.3,14.2,14.2s0,0.5,0,0.8c-4.6-0.5-9.3-0.8-14.1-0.8s-9.5,0.3-14.1,0.8v-0.8
	c0-7.8,6.4-14.2,14.2-14.2H519.7z"/>
<path id="path6145" inkscape:connector-curvature="0" class="st1" d="M379.9,460.3l-14.2,7.1l14.2,7.1 M320,460.3l14.2,7.1
	l-14.2,7.1 M334.1,467.4h31.6"/>
<path id="path6147" inkscape:connector-curvature="0" class="st1" d="M379.9,481.6l-14.2,7.1l14.2,7.1 M320,481.6l14.2,7.1
	l-14.2,7.1 M334.1,488.7h31.6"/>
<path id="path6155" inkscape:connector-curvature="0" class="st1" d="M465,396.5l-14.2,7.1l14.2,7.1 M405,396.5l14.2,7.1l-14.2,7.1
	 M419.2,403.6h31.6"/>
<path id="path6157" inkscape:connector-curvature="0" class="st1" d="M423,407.2l-14.2,7.1l14.2,7.1 M363,407.2l14.2,7.1l-14.2,7.1
	 M377.2,414.3h31.6"/>
<path id="path6159" inkscape:connector-curvature="0" class="st1" d="M423,428.4l-14.2,7.1l14.2,7.1 M363,428.4l14.2,7.1l-14.2,7.1
	 M377.2,435.5h31.6"/>
<path id="path6161" inkscape:connector-curvature="0" class="st1" d="M465,417.8l-14.2,7.1L465,432 M405,417.8l14.2,7.1L405,432
	 M419.2,424.9h31.6"/>
<path id="path6163" inkscape:connector-curvature="0" class="st1" d="M465,439.1l-14.2,7.1l14.2,7.1 M405,439.1l14.2,7.1l-14.2,7.1
	 M419.2,446.2h31.6"/>
<path id="path6165" inkscape:connector-curvature="0" class="st1" d="M423,449.7l-14.2,7.1l14.2,7.1 M363,449.7l14.2,7.1l-14.2,7.1
	 M377.2,456.8h31.6"/>
<path id="path6167" inkscape:connector-curvature="0" class="st1" d="M423,471l-14.2,7.1l14.2,7.1 M363,471l14.2,7.1l-14.2,7.1
	 M377.2,478h31.6"/>
<path id="path6169" inkscape:connector-curvature="0" class="st1" d="M465,460.3l-14.2,7.1l14.2,7.1 M405,460.3l14.2,7.1l-14.2,7.1
	 M419.2,467.4h31.6"/>
<path id="path6171" inkscape:connector-curvature="0" class="st1" d="M465,481.6l-14.2,7.1l14.2,7.1 M405,481.6l14.2,7.1l-14.2,7.1
	 M419.2,488.7h31.6"/>
<path id="path6175" inkscape:connector-curvature="0" class="st1" d="M508,385.9l-14.2,7.1l14.2,7.1 M448.1,385.9l14.2,7.1
	l-14.2,7.1 M462.2,393h31.6"/>
<path id="path6179" inkscape:connector-curvature="0" class="st1" d="M550,396.5l-14.2,7.1l14.2,7.1 M490.1,396.5l14.2,7.1
	l-14.2,7.1 M504.2,403.6h31.6"/>
<path id="path6181" inkscape:connector-curvature="0" class="st1" d="M508,407.2l-14.2,7.1l14.2,7.1 M448.1,407.2l14.2,7.1
	l-14.2,7.1 M462.2,414.3h31.6"/>
<path id="path6183" inkscape:connector-curvature="0" class="st1" d="M508,428.4l-14.2,7.1l14.2,7.1 M448.1,428.4l14.2,7.1
	l-14.2,7.1 M462.2,435.5h31.6"/>
<path id="path6185" inkscape:connector-curvature="0" class="st1" d="M550,417.8l-14.2,7.1L550,432 M490.1,417.8l14.2,7.1l-14.2,7.1
	 M504.2,424.9h31.6"/>
<path id="path6187" inkscape:connector-curvature="0" class="st1" d="M550,439.1l-14.2,7.1l14.2,7.1 M490.1,439.1l14.2,7.1
	l-14.2,7.1 M504.2,446.2h31.6"/>
<path id="path6189" inkscape:connector-curvature="0" class="st1" d="M508,449.7l-14.2,7.1l14.2,7.1 M448.1,449.7l14.2,7.1
	l-14.2,7.1 M462.2,456.8h31.6"/>
<path id="path6191" inkscape:connector-curvature="0" class="st1" d="M508,471l-14.2,7.1l14.2,7.1 M448.1,471l14.2,7.1l-14.2,7.1
	 M462.2,478h31.6"/>
<path id="path6193" inkscape:connector-curvature="0" class="st1" d="M550,460.3l-14.2,7.1l14.2,7.1 M490.1,460.3l14.2,7.1
	l-14.2,7.1 M504.2,467.4h31.6"/>
<path id="path6195" inkscape:connector-curvature="0" class="st1" d="M550,481.6l-14.2,7.1l14.2,7.1 M490.1,481.6l14.2,7.1
	l-14.2,7.1 M504.2,488.7h31.6"/>
<path id="path6199" inkscape:connector-curvature="0" class="st1" d="M593,385.9l-14.2,7.1l14.2,7.1 M533.1,385.9l14.2,7.1
	l-14.2,7.1 M547.3,393h31.6"/>
<path id="path6203" inkscape:connector-curvature="0" class="st1" d="M635,396.5l-14.2,7.1l14.2,7.1 M575.1,396.5l14.2,7.1
	l-14.2,7.1 M589.3,403.6h31.6"/>
<path id="path6205" inkscape:connector-curvature="0" class="st1" d="M593,407.2l-14.2,7.1l14.2,7.1 M533.1,407.2l14.2,7.1
	l-14.2,7.1 M547.3,414.3h31.6"/>
<path id="path6207" inkscape:connector-curvature="0" class="st1" d="M593,428.4l-14.2,7.1l14.2,7.1 M533.1,428.4l14.2,7.1
	l-14.2,7.1 M547.3,435.5h31.6"/>
<path id="path6209" inkscape:connector-curvature="0" class="st1" d="M635,417.8l-14.2,7.1L635,432 M575.1,417.8l14.2,7.1l-14.2,7.1
	 M589.3,424.9h31.6"/>
<path id="path6211" inkscape:connector-curvature="0" class="st1" d="M635,439.1l-14.2,7.1l14.2,7.1 M575.1,439.1l14.2,7.1
	l-14.2,7.1 M589.3,446.2h31.6"/>
<path id="path6213" inkscape:connector-curvature="0" class="st1" d="M593,449.7l-14.2,7.1l14.2,7.1 M533.1,449.7l14.2,7.1
	l-14.2,7.1 M547.3,456.8h31.6"/>
<path id="path6215" inkscape:connector-curvature="0" class="st1" d="M593,471l-14.2,7.1l14.2,7.1 M533.1,471l14.2,7.1l-14.2,7.1
	 M547.3,478h31.6"/>
<path id="path6217" inkscape:connector-curvature="0" class="st1" d="M635,460.3l-14.2,7.1l14.2,7.1 M575.1,460.3l14.2,7.1
	l-14.2,7.1 M589.3,467.4h31.6"/>
<path id="path6219" inkscape:connector-curvature="0" class="st1" d="M635,481.6l-14.2,7.1l14.2,7.1 M575.1,481.6l14.2,7.1
	l-14.2,7.1 M589.3,488.7h31.6"/>
<path id="path6229" inkscape:connector-curvature="0" class="st1" d="M678.1,407.2l-14.2,7.1l14.2,7.1 M618.1,407.2l14.2,7.1
	l-14.2,7.1 M632.3,414.3h31.6"/>
<path id="path6231" inkscape:connector-curvature="0" class="st1" d="M678.1,428.4l-14.2,7.1l14.2,7.1 M618.1,428.4l14.2,7.1
	l-14.2,7.1 M632.3,435.5h31.6"/>
<path id="path6237" inkscape:connector-curvature="0" class="st1" d="M678.1,449.7l-14.2,7.1l14.2,7.1 M618.1,449.7l14.2,7.1
	l-14.2,7.1 M632.3,456.8h31.6"/>
<path id="path6239" inkscape:connector-curvature="0" class="st1" d="M678.1,471l-14.2,7.1l14.2,7.1 M618.1,471l14.2,7.1l-14.2,7.1
	 M632.3,478h31.6"/>
<path id="path6241" inkscape:connector-curvature="0" class="st1" d="M720.1,460.3l-14.2,7.1l14.2,7.1 M660.1,460.3l14.2,7.1
	l-14.2,7.1 M674.3,467.4h31.6"/>
<path id="path6243" inkscape:connector-curvature="0" class="st1" d="M720.1,481.6l-14.2,7.1l14.2,7.1 M660.1,481.6l14.2,7.1
	l-14.2,7.1 M674.3,488.7h31.6"/>
<path id="path6273" inkscape:connector-curvature="0" class="st1" d="M379.9,502.8l-14.2,7.1l14.2,7.1 M320,502.8l14.2,7.1L320,517
	 M334.1,509.9h31.6"/>
<path id="path6293" inkscape:connector-curvature="0" class="st1" d="M423,492.2l-14.2,7.1l14.2,7.1 M363,492.2l14.2,7.1l-14.2,7.1
	 M377.2,499.3h31.6"/>
<path id="path6295" inkscape:connector-curvature="0" class="st1" d="M423,513.5l-14.2,7.1l14.2,7.1 M363,513.5l14.2,7.1l-14.2,7.1
	 M377.2,520.6h31.6"/>
<path id="path6297" inkscape:connector-curvature="0" class="st1" d="M465,502.8l-14.2,7.1L465,517 M405,502.8l14.2,7.1L405,517
	 M419.2,509.9h31.6"/>
<path id="path6299" inkscape:connector-curvature="0" class="st1" d="M465,524.1l-14.2,7.1l14.2,7.1 M405,524.1l14.2,7.1l-14.2,7.1
	 M419.2,531.2h31.6"/>
<path id="path6301" inkscape:connector-curvature="0" class="st1" d="M423,534.7l-14.2,7.1l14.2,7.1 M363,534.7l14.2,7.1l-14.2,7.1
	 M377.2,541.8h31.6"/>
<path id="path6303" inkscape:connector-curvature="0" class="st1" d="M423,556l-14.2,7.1l14.2,7.1 M363,556l14.2,7.1l-14.2,7.1
	 M377.2,563.1h31.6"/>
<path id="path6305" inkscape:connector-curvature="0" class="st1" d="M465,545.4l-14.2,7.1l14.2,7.1 M405,545.4l14.2,7.1l-14.2,7.1
	 M419.2,552.5h31.6"/>
<path id="path6307" inkscape:connector-curvature="0" class="st1" d="M465,566.6l-14.2,7.1l14.2,7.1 M405,566.6l14.2,7.1l-14.2,7.1
	 M419.2,573.7h31.6"/>
<path id="path6313" inkscape:connector-curvature="0" class="st1" d="M465,587.9l-14.2,7.1l14.2,7.1 M405,587.9l14.2,7.1l-14.2,7.1
	 M419.2,595h31.6"/>
<path id="path6317" inkscape:connector-curvature="0" class="st1" d="M508,492.2l-14.2,7.1l14.2,7.1 M448.1,492.2l14.2,7.1
	l-14.2,7.1 M462.2,499.3h31.6"/>
<path id="path6319" inkscape:connector-curvature="0" class="st1" d="M508,513.5l-14.2,7.1l14.2,7.1 M448.1,513.5l14.2,7.1
	l-14.2,7.1 M462.2,520.6h31.6"/>
<path id="path6321" inkscape:connector-curvature="0" class="st1" d="M550,502.8l-14.2,7.1L550,517 M490.1,502.8l14.2,7.1l-14.2,7.1
	 M504.2,509.9h31.6"/>
<path id="path6323" inkscape:connector-curvature="0" class="st1" d="M550,524.1l-14.2,7.1l14.2,7.1 M490.1,524.1l14.2,7.1
	l-14.2,7.1 M504.2,531.2h31.6"/>
<path id="path6325" inkscape:connector-curvature="0" class="st1" d="M508,534.7l-14.2,7.1l14.2,7.1 M448.1,534.7l14.2,7.1
	l-14.2,7.1 M462.2,541.8h31.6"/>
<path id="path6327" inkscape:connector-curvature="0" class="st1" d="M508,556l-14.2,7.1l14.2,7.1 M448.1,556l14.2,7.1l-14.2,7.1
	 M462.2,563.1h31.6"/>
<path id="path6329" inkscape:connector-curvature="0" class="st1" d="M550,545.4l-14.2,7.1l14.2,7.1 M490.1,545.4l14.2,7.1
	l-14.2,7.1 M504.2,552.5h31.6"/>
<path id="path6331" inkscape:connector-curvature="0" class="st1" d="M550,566.6l-14.2,7.1l14.2,7.1 M490.1,566.6l14.2,7.1
	l-14.2,7.1 M504.2,573.7h31.6"/>
<path id="path6333" inkscape:connector-curvature="0" class="st1" d="M508,577.3l-14.2,7.1l14.2,7.1 M448.1,577.3l14.2,7.1
	l-14.2,7.1 M462.2,584.3h31.6"/>
<path id="path6335" inkscape:connector-curvature="0" class="st1" d="M508,598.5l-14.2,7.1l14.2,7.1 M448.1,598.5l14.2,7.1
	l-14.2,7.1 M462.2,605.6h31.6"/>
<path id="path6337" inkscape:connector-curvature="0" class="st1" d="M550,587.9l-14.2,7.1l14.2,7.1 M490.1,587.9l14.2,7.1
	l-14.2,7.1 M504.2,595h31.6"/>
<path id="path6341" inkscape:connector-curvature="0" class="st1" d="M593,492.2l-14.2,7.1l14.2,7.1 M533.1,492.2l14.2,7.1
	l-14.2,7.1 M547.3,499.3h31.6"/>
<path id="path6343" inkscape:connector-curvature="0" class="st1" d="M593,513.5l-14.2,7.1l14.2,7.1 M533.1,513.5l14.2,7.1
	l-14.2,7.1 M547.3,520.6h31.6"/>
<path id="path6345" inkscape:connector-curvature="0" class="st1" d="M635,502.8l-14.2,7.1L635,517 M575.1,502.8l14.2,7.1l-14.2,7.1
	 M589.3,509.9h31.6"/>
<path id="path6347" inkscape:connector-curvature="0" class="st1" d="M635,524.1l-14.2,7.1l14.2,7.1 M575.1,524.1l14.2,7.1
	l-14.2,7.1 M589.3,531.2h31.6"/>
<path id="path6349" inkscape:connector-curvature="0" class="st1" d="M593,534.7l-14.2,7.1l14.2,7.1 M533.1,534.7l14.2,7.1
	l-14.2,7.1 M547.3,541.8h31.6"/>
<path id="path6351" inkscape:connector-curvature="0" class="st1" d="M593,556l-14.2,7.1l14.2,7.1 M533.1,556l14.2,7.1l-14.2,7.1
	 M547.3,563.1h31.6"/>
<path id="path6353" inkscape:connector-curvature="0" class="st1" d="M635,545.4l-14.2,7.1l14.2,7.1 M575.1,545.4l14.2,7.1
	l-14.2,7.1 M589.3,552.5h31.6"/>
<path id="path6355" inkscape:connector-curvature="0" class="st1" d="M635,566.6l-14.2,7.1l14.2,7.1 M575.1,566.6l14.2,7.1
	l-14.2,7.1 M589.3,573.7h31.6"/>
<path id="path6357" inkscape:connector-curvature="0" class="st1" d="M593,577.3l-14.2,7.1l14.2,7.1 M533.1,577.3l14.2,7.1
	l-14.2,7.1 M547.3,584.3h31.6"/>
<path id="path6359" inkscape:connector-curvature="0" class="st1" d="M593,598.5l-14.2,7.1l14.2,7.1 M533.1,598.5l14.2,7.1
	l-14.2,7.1 M547.3,605.6h31.6"/>
<path id="path6361" inkscape:connector-curvature="0" class="st1" d="M635,587.9l-14.2,7.1l14.2,7.1 M575.1,587.9l14.2,7.1
	l-14.2,7.1 M589.3,595h31.6"/>
<path id="path6365" inkscape:connector-curvature="0" class="st1" d="M678.1,492.2l-14.2,7.1l14.2,7.1 M618.1,492.2l14.2,7.1
	l-14.2,7.1 M632.3,499.3h31.6"/>
<path id="path6367" inkscape:connector-curvature="0" class="st1" d="M678.1,513.5l-14.2,7.1l14.2,7.1 M618.1,513.5l14.2,7.1
	l-14.2,7.1 M632.3,520.6h31.6"/>
<path id="path6369" inkscape:connector-curvature="0" class="st1" d="M720.1,502.8l-14.2,7.1l14.2,7.1 M660.1,502.8l14.2,7.1
	l-14.2,7.1 M674.3,509.9h31.6"/>
<path id="path6373" inkscape:connector-curvature="0" class="st1" d="M678.1,534.7l-14.2,7.1l14.2,7.1 M618.1,534.7l14.2,7.1
	l-14.2,7.1 M632.3,541.8h31.6"/>
<path id="path6375" inkscape:connector-curvature="0" class="st1" d="M678.1,556l-14.2,7.1l14.2,7.1 M618.1,556l14.2,7.1l-14.2,7.1
	 M632.3,563.1h31.6"/>
<path id="path3935-8" inkscape:connector-curvature="0" class="st0" d="M399.8,639.9h-4.3c-20,0.8-35.1,8.2-35.9,20.2
	c-1,13.6,21.9,27.3,32,29.8c6.3,1.6,20.7,3.5,31.6,4.5c-7.3,0.8-15.3,2.1-23.4,4.4c-30.8,8.9-85,28.4-87.1,93.6
	c-2.2,65.1,29.2,83.9,35.2,88.7c17.1,13.7,67.3,31.2,111.1,73.6c43.8-42.4,94-59.9,111.1-73.6c6-4.8,37.4-23.5,35.2-88.7
	c-2.2-65.1-55.8-86.8-87.1-93.6c-9.9-2.2-18.6-3.4-26.1-4.2c11.1-0.9,27.8-3,34.8-4.8c10.1-2.5,33-16.2,32-29.8
	c-0.9-11.9-15.9-19.3-35.9-20.2h-8.8c-19.3,1-28.4,17.7-33,29.2c-4.9-6.8-12.8-11.2-21.8-11.2s-16.9,4.4-21.8,11.2
	c-4.6-11.6-13.6-28.2-33-29.2c-1.5,0-3,0-4.5-0.2l0,0L399.8,639.9L399.8,639.9L399.8,639.9z M399.7,654.2h3.8
	c7.1,0.4,10.8,3.6,14.7,9.2c3.6,5.2,6,11.6,7.9,16.8c-2.6-0.2-5.1-0.4-8.2-0.8c-9.1-1-19.7-2.7-22.9-3.5c-1.6-0.4-9.6-4-14.8-8.1
	s-6.5-5.5-6.3-6.6c0-0.2,0.3-1.7,3.2-2.9c3.8-1.6,10.6-3.8,18.9-4.2L399.7,654.2L399.7,654.2L399.7,654.2z M518.5,654.2h3.7
	c8.4,0.3,15.1,2.6,18.9,4.2c2.9,1.2,3.2,2.7,3.2,2.9c0,1.1-1.1,2.5-6.3,6.6s-13.1,7.7-14.8,8.1c-3.2,0.8-13.8,2.4-22.9,3.5
	c-3.1,0.3-5.6,0.5-8.2,0.8c1.9-5.2,4.3-11.6,7.9-16.8c3.9-5.6,7.6-8.8,14.7-9.2L518.5,654.2L518.5,654.2L518.5,654.2z M459.1,670.7
	c7.8,0,14.2,6.3,14.2,14.2s0,0.5,0,0.8c-4.6-0.5-9.3-0.8-14.1-0.8s-9.5,0.3-14.1,0.8v-0.8c0-7.8,6.4-14.2,14.2-14.2H459.1z"/>
<path id="path5223" inkscape:connector-curvature="0" class="st1" d="M301.4,723.1h70.9"/>
<path id="path5225" inkscape:connector-curvature="0" class="st1" d="M342.1,714.3H413"/>
<path id="path5227" inkscape:connector-curvature="0" class="st1" d="M382.8,723.1h70.9"/>
<path id="path5235" inkscape:connector-curvature="0" class="st1" d="M301.4,740.8h70.9"/>
<path id="path5237" inkscape:connector-curvature="0" class="st1" d="M342.1,732H413"/>
<path id="path5239" inkscape:connector-curvature="0" class="st1" d="M382.8,740.8h70.9"/>
<path id="path5245" inkscape:connector-curvature="0" class="st1" d="M260.6,749.7h70.9"/>
<path id="path5247" inkscape:connector-curvature="0" class="st1" d="M301.4,758.6h70.9"/>
<path id="path5249" inkscape:connector-curvature="0" class="st1" d="M342.1,749.7H413"/>
<path id="path5251" inkscape:connector-curvature="0" class="st1" d="M382.8,758.6h70.9"/>
<path id="path5257" inkscape:connector-curvature="0" class="st1" d="M260.6,767.4h70.9"/>
<path id="path5259" inkscape:connector-curvature="0" class="st1" d="M301.4,776.3h70.9"/>
<path id="path5261" inkscape:connector-curvature="0" class="st1" d="M342.1,767.4H413"/>
<path id="path5263" inkscape:connector-curvature="0" class="st1" d="M382.8,776.3h70.9"/>
<path id="path5269" inkscape:connector-curvature="0" class="st1" d="M260.6,785.1h70.9"/>
<path id="path5271" inkscape:connector-curvature="0" class="st1" d="M301.4,794h70.9"/>
<path id="path5273" inkscape:connector-curvature="0" class="st1" d="M342.1,785.1H413"/>
<path id="path5275" inkscape:connector-curvature="0" class="st1" d="M382.8,794h70.9"/>
<path id="path5281" inkscape:connector-curvature="0" class="st1" d="M260.6,802.9h70.9"/>
<path id="path5283" inkscape:connector-curvature="0" class="st1" d="M301.4,811.7h70.9"/>
<path id="path5285" inkscape:connector-curvature="0" class="st1" d="M342.1,802.9H413"/>
<path id="path5287" inkscape:connector-curvature="0" class="st1" d="M382.8,811.7h70.9"/>
<path id="path5293" inkscape:connector-curvature="0" class="st1" d="M260.6,820.6h70.9"/>
<path id="path5295" inkscape:connector-curvature="0" class="st1" d="M301.4,829.4h70.9"/>
<path id="path5297" inkscape:connector-curvature="0" class="st1" d="M342.1,820.6H413"/>
<path id="path5299" inkscape:connector-curvature="0" class="st1" d="M382.8,829.4h70.9"/>
<path id="path5313" inkscape:connector-curvature="0" class="st1" d="M423.6,714.3h70.9"/>
<path id="path5315" inkscape:connector-curvature="0" class="st1" d="M464.3,723.1h70.9"/>
<path id="path5317" inkscape:connector-curvature="0" class="st1" d="M505.1,714.3H576"/>
<path id="path5319" inkscape:connector-curvature="0" class="st1" d="M545.8,723.1h70.9"/>
<path id="path5325" inkscape:connector-curvature="0" class="st1" d="M423.6,732h70.9"/>
<path id="path5327" inkscape:connector-curvature="0" class="st1" d="M464.3,740.8h70.9"/>
<path id="path5329" inkscape:connector-curvature="0" class="st1" d="M505.1,732H576"/>
<path id="path5331" inkscape:connector-curvature="0" class="st1" d="M545.8,740.8h70.9"/>
<path id="path5333" inkscape:connector-curvature="0" class="st1" d="M586.6,732h70.9"/>
<path id="path5337" inkscape:connector-curvature="0" class="st1" d="M423.6,749.7h70.9"/>
<path id="path5339" inkscape:connector-curvature="0" class="st1" d="M464.3,758.6h70.9"/>
<path id="path5341" inkscape:connector-curvature="0" class="st1" d="M505.1,749.7H576"/>
<path id="path5343" inkscape:connector-curvature="0" class="st1" d="M545.8,758.6h70.9"/>
<path id="path5345" inkscape:connector-curvature="0" class="st1" d="M586.6,749.7h70.9"/>
<path id="path5349" inkscape:connector-curvature="0" class="st1" d="M423.6,767.4h70.9"/>
<path id="path5351" inkscape:connector-curvature="0" class="st1" d="M464.3,776.3h70.9"/>
<path id="path5353" inkscape:connector-curvature="0" class="st1" d="M505.1,767.4H576"/>
<path id="path5355" inkscape:connector-curvature="0" class="st1" d="M545.8,776.3h70.9"/>
<path id="path5357" inkscape:connector-curvature="0" class="st1" d="M586.6,767.4h70.9"/>
<path id="path5361" inkscape:connector-curvature="0" class="st1" d="M423.6,785.1h70.9"/>
<path id="path5363" inkscape:connector-curvature="0" class="st1" d="M464.3,794h70.9"/>
<path id="path5365" inkscape:connector-curvature="0" class="st1" d="M505.1,785.1H576"/>
<path id="path5367" inkscape:connector-curvature="0" class="st1" d="M545.8,794h70.9"/>
<path id="path5369" inkscape:connector-curvature="0" class="st1" d="M586.6,785.1h70.9"/>
<path id="path5373" inkscape:connector-curvature="0" class="st1" d="M423.6,802.9h70.9"/>
<path id="path5375" inkscape:connector-curvature="0" class="st1" d="M464.3,811.7h70.9"/>
<path id="path5377" inkscape:connector-curvature="0" class="st1" d="M505.1,802.9H576"/>
<path id="path5379" inkscape:connector-curvature="0" class="st1" d="M545.8,811.7h70.9"/>
<path id="path5381" inkscape:connector-curvature="0" class="st1" d="M586.6,802.9h70.9"/>
<path id="path5385" inkscape:connector-curvature="0" class="st1" d="M423.6,820.6h70.9"/>
<path id="path5387" inkscape:connector-curvature="0" class="st1" d="M464.3,829.4h70.9"/>
<path id="path5389" inkscape:connector-curvature="0" class="st1" d="M505.1,820.6H576"/>
<path id="path5391" inkscape:connector-curvature="0" class="st1" d="M545.8,829.4h70.9"/>
<path id="path5393" inkscape:connector-curvature="0" class="st1" d="M586.6,820.6h70.9"/>
<path id="path5401" inkscape:connector-curvature="0" class="st1" d="M260.6,838.3h70.9"/>
<path id="path5403" inkscape:connector-curvature="0" class="st1" d="M301.4,847.1h70.9"/>
<path id="path5405" inkscape:connector-curvature="0" class="st1" d="M342.1,838.3H413"/>
<path id="path5407" inkscape:connector-curvature="0" class="st1" d="M382.8,847.1h70.9"/>
<path id="path5413" inkscape:connector-curvature="0" class="st1" d="M260.6,856h70.9"/>
<path id="path5415" inkscape:connector-curvature="0" class="st1" d="M301.4,864.9h70.9"/>
<path id="path5417" inkscape:connector-curvature="0" class="st1" d="M342.1,856H413"/>
<path id="path5419" inkscape:connector-curvature="0" class="st1" d="M382.8,864.9h70.9"/>
<path id="path5427" inkscape:connector-curvature="0" class="st1" d="M301.4,882.6h70.9"/>
<path id="path5429" inkscape:connector-curvature="0" class="st1" d="M342.1,873.7H413"/>
<path id="path5431" inkscape:connector-curvature="0" class="st1" d="M382.8,882.6h70.9"/>
<path id="path5441" inkscape:connector-curvature="0" class="st1" d="M342.1,891.4H413"/>
<path id="path5443" inkscape:connector-curvature="0" class="st1" d="M382.8,900.3h70.9"/>
<path id="path5453" inkscape:connector-curvature="0" class="st1" d="M342.1,909.2H413"/>
<path id="path5455" inkscape:connector-curvature="0" class="st1" d="M382.8,918h70.9"/>
<path id="path5493" inkscape:connector-curvature="0" class="st1" d="M423.6,838.3h70.9"/>
<path id="path5495" inkscape:connector-curvature="0" class="st1" d="M464.3,847.1h70.9"/>
<path id="path5497" inkscape:connector-curvature="0" class="st1" d="M505.1,838.3H576"/>
<path id="path5499" inkscape:connector-curvature="0" class="st1" d="M545.8,847.1h70.9"/>
<path id="path5501" inkscape:connector-curvature="0" class="st1" d="M586.6,838.3h70.9"/>
<path id="path5505" inkscape:connector-curvature="0" class="st1" d="M423.6,856h70.9"/>
<path id="path5507" inkscape:connector-curvature="0" class="st1" d="M464.3,864.9h70.9"/>
<path id="path5509" inkscape:connector-curvature="0" class="st1" d="M505.1,856H576"/>
<path id="path5511" inkscape:connector-curvature="0" class="st1" d="M545.8,864.9h70.9"/>
<path id="path5513" inkscape:connector-curvature="0" class="st1" d="M586.6,856h70.9"/>
<path id="path5517" inkscape:connector-curvature="0" class="st1" d="M423.6,873.7h70.9"/>
<path id="path5519" inkscape:connector-curvature="0" class="st1" d="M464.3,882.6h70.9"/>
<path id="path5521" inkscape:connector-curvature="0" class="st1" d="M505.1,873.7H576"/>
<path id="path5523" inkscape:connector-curvature="0" class="st1" d="M545.8,882.6h70.9"/>
<path id="path5529" inkscape:connector-curvature="0" class="st1" d="M423.6,891.4h70.9"/>
<path id="path5531" inkscape:connector-curvature="0" class="st1" d="M464.3,900.3h70.9"/>
<path id="path5533" inkscape:connector-curvature="0" class="st1" d="M505.1,891.4H576"/>
<path id="path5541" inkscape:connector-curvature="0" class="st1" d="M423.6,909.2h70.9"/>
<path id="path5543" inkscape:connector-curvature="0" class="st1" d="M464.3,918h70.9"/>
<path id="path5545" inkscape:connector-curvature="0" class="st1" d="M505.1,909.2H576"/>
</svg>
