<?xml version="1.0" encoding="UTF-8" standalone="no"?>
<svg
   id="Capa_1"
   data-name="Capa 1"
   viewBox="0 0 1734.7 1142.57"
   version="1.1"
   sodipodi:docname="arboldenavidadespiral - no inscription.svg"
   inkscape:version="1.2.1 (9c6d41e410, 2022-07-14)"
   xmlns:inkscape="http://www.inkscape.org/namespaces/inkscape"
   xmlns:sodipodi="http://sodipodi.sourceforge.net/DTD/sodipodi-0.dtd"
   xmlns="http://www.w3.org/2000/svg"
   xmlns:svg="http://www.w3.org/2000/svg">
  <sodipodi:namedview
     id="namedview43"
     pagecolor="#ffffff"
     bordercolor="#000000"
     borderopacity="0.25"
     inkscape:showpageshadow="2"
     inkscape:pageopacity="0.0"
     inkscape:pagecheckerboard="0"
     inkscape:deskcolor="#d1d1d1"
     showgrid="false"
     inkscape:document-units="mm"
     inkscape:zoom="0.5005633"
     inkscape:cx="773.129"
     inkscape:cy="457.4846"
     inkscape:window-width="1920"
     inkscape:window-height="1017"
     inkscape:window-x="-8"
     inkscape:window-y="-8"
     inkscape:window-maximized="1"
     inkscape:current-layer="Capa_1" />
  <defs
     id="defs4">
    <style
       id="style2">.cls-1,.cls-2{fill:none;stroke:#231f20;stroke-miterlimit:10;stroke-width:0.22px;}.cls-1,.cls-4{fill-rule:evenodd;}.cls-3,.cls-4{fill:#231f20;}</style>
  </defs>
  <path
     class="cls-1"
     d="M489.89,60.3H482.4V36H468.72V60.3h-6.26c-25.35,1048-24.91,1034.93-440.14,1047.24-13.1.36-20.09,6.91-22.17,13.61H26.57v8.49H.87a22.08,22.08,0,0,0,20.59,12.82H300.89c105,0,141.77-92.66,172.58-102.6V936.18H482v104.33c30.17,12.6,64.73,102,146.09,102H868.9c12.45,0,20.09-6.19,22.82-12.82H865.87v-8.49h26.07c-2.45-6.48-9.79-13-22-13C512.93,1106.89,518,1122.08,489.89,60.3Z"
     id="path6"
     style="stroke:#ff0000;stroke-opacity:1" />
  <path
     class="cls-1"
     d="M1125.36,563.8c26.64,0,41-14.62,41-41.84,0-62.28-91.94-58.68-91.94,3.68,0,32.47,18.93,58.82,51.33,58.82,34.2,0,61.92-28.22,61.92-63a66.33,66.33,0,0,0-66.31-66.38c-38.66,0-69.84,31.89-69.84,71.06A74.86,74.86,0,0,0,1126.37,601c43.56,0,78.62-36.07,78.62-80.14a84.21,84.21,0,0,0-84.24-84.24c-49,0-88.41,40.61-88.41,90.22A94.64,94.64,0,0,0,1127,621.47c55.22,0,99.43-45.65,99.43-101.31,0-59.11-48-106.34-106.49-106.34-61.92,0-111.53,51.34-111.53,113.83,0,66.31,53.93,119.23,119.45,119.23,69.55,0,125.14-57.6,125.14-127.65,0-74.38-60.55-133.71-134-133.71-78,0-140.19,64.66-140.19,143.14,0,83.38,67.9,149.76,150.12,149.76,87.41,0,157-72.5,157-160.34,0-93.39-76-167.69-168.05-167.69-97.84,0-175.68,81.29-175.68,179.57,0,104.47,85.11,187.56,188.14,187.56,109.44,0,196.49-90.94,196.49-200.88,0-116.86-95.33-209.74-210.46-209.74-122.47,0-219.67,101.74-219.67,224.64,0,130.75,106.56,234.43,235.22,234.43,136.95,0,245.6-113.76,245.6-251.06,0-146.09-119.16-262-263-262-153,0-274.32,127.22-274.32,280.58,0,163.23,133.2,292.61,293.76,292.61,170.93,0,306.29-142.05,306.29-313.34,0-182.38-148.75-326.74-328-326.74-190.87,0-342,158.69-342,349.85,0,203.62,166.17,364.75,366.26,364.75,213,0,381.67-177.19,381.67-390.6,0-227.23-185.47-407-408.74-407C871.63,103,683.5,300.78,683.5,538.88c0,253.59,207,454.18,456.12,454.18,265.39,0,475.2-220.75,475.2-486.36,0-283-231-506.59-508.83-506.59C809.93.11,575.93,246.42,575.93,542.63c0,315.57,257.69,565,567.58,565,321.91,0,579.81-261.79,590.76-583.92"
     id="path8"
     style="stroke:#ff0000;stroke-opacity:1" />
  <line
     class="cls-2"
     x1="1734.7"
     y1="523.4"
     x2="1614.67"
     y2="523.4"
     id="line10"
     style="stroke:#ff0000;stroke-opacity:1" />
  <path
     class="cls-1"
     d="M119,661.57c117.5,24.34,179.64,61.85,201.45,132.77,24.12,78.41,44.5,112.9,65.52,58V775.48c0-111-103.46-143.86-103.46-176S386,535.79,386,448.31c-.43-50.91-.57-87.63-.93-113-33.84-58.68-46.8,87.34-74.81,123.84-33.84,44.06-95.54,70.27-208.3,87.26C86.91,548.68,77,567.11,77,583.38l.22,11.52h102.6l-.22,1.22h.15v6h-.15v1.15H77v16C77,640.48,100.23,657.61,119,661.57Z"
     id="path12"
     style="stroke:#ff0000;stroke-opacity:1" />
  <circle
     class="cls-2"
     cx="1122.63"
     cy="522.68"
     r="6.77"
     id="circle14"
     style="stroke:#ff0000;stroke-opacity:1" />
</svg>
